<?xml version="1.0" standalone="no"?>
<!DOCTYPE svg PUBLIC "-//W3C//DTD SVG 20010904//EN"
 "http://www.w3.org/TR/2001/REC-SVG-20010904/DTD/svg10.dtd">
<svg version="1.0" xmlns="http://www.w3.org/2000/svg"
 width="1760.000000pt" height="1760.000000pt" viewBox="0 0 1760.000000 1760.000000"
 preserveAspectRatio="xMidYMid meet">
<metadata>
Created by potrace 1.11, written by Peter Selinger 2001-2013
</metadata>
<g transform="translate(0.000000,1760.000000) scale(0.100000,-0.100000)"
fill="#000000" stroke="none">
<path d="M7838 17575 c-3 -14 -2 -25 3 -25 4 0 4 -13 -1 -30 -5 -16 -5 -30 -1
-30 4 0 5 -20 1 -45 -4 -24 -3 -50 1 -57 4 -6 4 -19 -1 -28 -5 -9 -5 -22 0
-30 5 -8 6 -18 4 -22 -10 -16 -12 -48 -4 -53 6 -3 5 -16 0 -30 -6 -15 -6 -27
0 -30 6 -4 7 -13 1 -24 -5 -9 -6 -23 -1 -31 4 -7 6 -19 4 -25 -8 -19 -10 -105
-3 -105 3 0 3 -20 -1 -45 -4 -24 -3 -50 1 -57 4 -6 4 -19 -1 -28 -5 -9 -5 -22
0 -30 5 -8 5 -21 0 -30 -5 -9 -5 -22 0 -30 5 -8 6 -18 3 -24 -8 -13 -10 -66
-2 -66 3 0 3 -20 -1 -44 -4 -25 -3 -51 2 -60 5 -8 4 -17 -1 -21 -7 -4 -7 -15
-1 -30 5 -14 6 -25 2 -25 -8 0 -6 -85 3 -100 3 -5 3 -10 -2 -10 -9 0 -9 -107
0 -116 3 -3 2 -17 -3 -30 -6 -14 -6 -26 0 -29 6 -4 7 -13 1 -24 -5 -9 -6 -23
-1 -31 4 -7 6 -19 4 -25 -7 -17 -10 -105 -4 -105 3 0 3 -27 2 -60 -3 -43 -8
-60 -18 -60 -8 0 -14 -3 -14 -7 0 -5 -24 -24 -52 -43 -55 -37 -174 -122 -195
-140 -7 -5 -15 -10 -18 -10 -5 0 -189 -129 -212 -149 -6 -6 -35 -26 -65 -45
-29 -19 -64 -44 -78 -55 -14 -11 -30 -21 -37 -21 -6 0 -13 -4 -15 -8 -1 -4
-61 -49 -133 -99 -71 -51 -134 -95 -140 -100 -5 -4 -37 -26 -70 -48 -32 -22
-129 -89 -215 -150 -86 -60 -163 -114 -172 -120 -21 -14 -191 -133 -203 -143
-12 -9 -123 -88 -145 -102 -8 -5 -68 -47 -132 -92 -65 -46 -147 -103 -183
-128 -36 -25 -73 -51 -83 -58 -9 -6 -60 -42 -112 -79 -52 -36 -148 -104 -212
-150 -65 -45 -122 -83 -127 -83 -5 0 -11 -4 -13 -8 -1 -5 -25 -23 -53 -42 -27
-19 -54 -38 -60 -43 -5 -4 -77 -55 -160 -111 -82 -57 -157 -110 -165 -117 -9
-8 -45 -33 -82 -57 -37 -24 -72 -50 -79 -58 -6 -7 -15 -11 -20 -8 -5 3 -9 1
-9 -4 0 -5 -24 -24 -52 -42 -29 -19 -55 -36 -58 -40 -3 -3 -22 -16 -42 -30
-21 -14 -38 -29 -38 -33 0 -5 -4 -5 -10 -2 -5 3 -10 2 -10 -4 0 -5 -9 -13 -20
-16 -20 -6 -20 -15 -20 -1220 l0 -1213 53 -41 c61 -48 47 -38 222 -166 177
-130 367 -271 381 -283 5 -5 20 -14 31 -21 12 -6 27 -17 35 -24 7 -7 65 -51
128 -97 63 -46 120 -89 126 -94 6 -6 22 -18 34 -26 23 -15 197 -143 215 -158
6 -4 26 -19 45 -32 47 -33 50 -35 91 -70 20 -16 40 -30 44 -30 5 0 15 -7 24
-16 9 -8 41 -33 71 -55 30 -22 66 -49 80 -59 67 -52 202 -150 206 -150 3 0 12
-6 20 -14 8 -8 80 -63 161 -123 82 -59 157 -116 167 -125 11 -10 23 -18 26
-18 4 0 18 -9 31 -21 13 -12 44 -35 69 -52 25 -17 50 -36 56 -42 6 -5 21 -17
33 -25 49 -33 208 -152 233 -174 15 -13 30 -21 33 -18 3 3 5 0 5 -6 0 -7 5
-12 10 -12 6 0 23 -11 38 -25 15 -14 32 -25 38 -25 7 0 14 -7 18 -15 3 -9 14
-19 23 -23 23 -9 257 -183 261 -194 2 -4 9 -8 16 -8 6 0 25 -12 42 -27 17 -16
53 -44 80 -63 27 -19 54 -38 59 -42 6 -5 53 -40 105 -78 52 -38 100 -73 105
-78 6 -4 31 -22 56 -40 l46 -33 0 -348 c0 -191 3 -353 7 -360 4 -6 4 -11 -1
-11 -9 0 -9 -67 0 -76 3 -3 2 -17 -3 -30 -6 -14 -6 -26 0 -29 6 -4 7 -13 1
-24 -5 -9 -6 -23 -1 -31 4 -7 6 -19 4 -25 -7 -18 -10 -105 -3 -105 3 0 2 -25
-1 -55 -3 -30 -3 -55 1 -55 4 0 4 -13 -1 -30 -5 -16 -6 -30 -2 -30 4 0 6 -17
5 -37 -1 -21 -2 -38 -3 -38 -1 0 -2 -15 -3 -33 -1 -17 1 -32 4 -32 3 0 3 -20
-1 -44 -4 -25 -3 -51 2 -60 5 -8 4 -17 -1 -21 -7 -4 -7 -15 -1 -30 5 -14 6
-25 2 -25 -8 0 -6 -85 3 -100 3 -5 3 -10 -2 -10 -9 0 -9 -107 0 -116 3 -3 2
-17 -3 -30 -6 -14 -6 -26 0 -29 6 -4 7 -13 1 -24 -5 -9 -6 -23 -1 -31 4 -7 6
-19 4 -25 -8 -19 -10 -105 -3 -105 3 0 3 -20 -1 -45 -4 -24 -3 -50 1 -57 4 -6
4 -19 -1 -28 -5 -9 -5 -22 0 -30 5 -8 5 -21 0 -30 -5 -9 -5 -22 0 -30 5 -8 6
-18 3 -24 -8 -13 -10 -66 -2 -66 3 0 3 -20 -1 -44 -4 -25 -3 -51 2 -60 5 -8 4
-17 -1 -21 -7 -4 -7 -15 -1 -30 5 -14 6 -25 2 -25 -8 0 -6 -85 3 -100 3 -5 3
-10 -2 -10 -9 0 -9 -107 0 -116 3 -3 2 -17 -3 -30 -6 -14 -6 -26 0 -29 6 -4 7
-13 1 -24 -5 -9 -6 -23 -1 -31 4 -7 6 -19 4 -25 -8 -19 -10 -105 -3 -105 3 0
3 -20 -1 -45 -4 -24 -3 -50 1 -57 4 -6 4 -19 -1 -28 -5 -9 -5 -22 0 -30 5 -8
5 -21 0 -30 -5 -9 -5 -22 0 -30 5 -8 6 -18 3 -24 -8 -13 -10 -66 -2 -66 3 0 3
-20 -1 -44 -4 -25 -3 -51 2 -60 5 -8 4 -17 -1 -21 -7 -4 -7 -15 -1 -30 5 -14
6 -25 2 -25 -8 0 -6 -85 3 -100 3 -5 3 -10 -2 -10 -9 0 -9 -107 0 -116 3 -3 2
-17 -3 -30 -6 -14 -6 -26 0 -29 6 -4 7 -13 1 -24 -5 -9 -6 -23 -1 -31 4 -7 6
-19 4 -25 -8 -19 -10 -105 -3 -105 3 0 3 -20 -1 -45 -4 -24 -3 -50 1 -57 4 -6
4 -19 -1 -28 -5 -9 -5 -22 0 -30 5 -8 5 -21 0 -30 -5 -9 -5 -22 0 -30 5 -8 6
-18 3 -24 -8 -12 -10 -66 -2 -66 3 0 3 -22 -1 -50 -4 -27 -4 -50 -1 -50 5 0 5
-27 2 -97 -1 -15 -31 -18 -31 -3 0 6 -7 10 -15 10 -9 0 -18 7 -21 15 -4 8 -10
15 -15 15 -9 0 -94 56 -117 78 -7 6 -35 26 -60 44 -87 59 -357 252 -370 265
-7 7 -17 13 -21 13 -4 0 -21 11 -37 25 -16 14 -32 25 -35 25 -3 0 -15 8 -27
17 -24 21 -44 36 -140 103 -40 28 -70 55 -67 60 3 5 1 11 -5 15 -6 4 -7 12 -1
24 5 9 6 23 1 31 -4 7 -5 23 0 35 5 12 4 28 0 35 -5 8 -5 19 0 25 5 6 5 17 0
25 -5 8 -5 21 1 32 6 12 6 18 0 18 -7 0 -7 9 -1 25 6 15 6 26 0 30 -6 4 -7 13
-1 23 6 11 6 24 0 34 -6 11 -6 19 1 23 6 4 7 13 1 24 -6 10 -6 23 -1 31 5 8 5
21 -1 31 -6 11 -5 20 1 24 6 4 7 13 1 23 -6 11 -6 24 0 35 7 11 7 17 0 17 -7
0 -7 8 -1 25 6 15 6 26 0 30 -6 4 -7 13 -1 23 6 11 6 24 0 34 -6 11 -6 19 1
23 6 4 7 13 1 23 -5 9 -5 26 -1 37 4 11 4 28 -1 37 -6 10 -5 19 1 23 6 4 6 15
0 30 -5 14 -6 25 -2 25 4 0 7 11 7 25 0 14 -4 25 -8 25 -5 0 -5 4 -2 10 8 13
12 90 5 90 -7 0 -4 66 5 79 3 6 1 11 -5 11 -8 0 -8 6 0 20 8 14 8 20 0 20 -8
0 -8 6 0 20 8 14 8 20 0 20 -7 0 -8 6 -2 18 9 19 8 53 -2 70 -3 6 -2 13 4 17
7 4 7 12 0 25 -7 13 -7 21 0 25 6 4 8 11 4 16 -10 16 -12 59 -3 59 5 0 4 11
-1 25 -5 14 -6 25 -2 25 9 0 7 53 -2 69 -4 6 -17 11 -29 10 -12 0 -71 0 -131
0 -59 1 -112 -2 -117 -5 -5 -3 -9 -2 -9 3 0 4 -60 7 -132 5 -73 -1 -178 -2
-233 -1 -55 0 -109 0 -120 -1 -11 -1 -27 -1 -35 -1 -42 0 -288 0 -310 -1 -14
0 -52 0 -85 1 -33 0 -67 1 -75 0 -8 0 -76 0 -150 0 -74 0 -148 0 -165 -1 -16
0 -57 0 -90 1 -33 0 -69 1 -80 0 -11 0 -81 0 -155 0 -74 0 -146 -1 -160 -1
-14 0 -52 0 -85 1 -33 0 -68 1 -77 0 -10 0 -79 0 -153 0 -74 0 -142 -1 -150
-1 -13 -1 -15 -120 -15 -1002 l1 -1001 32 -23 c68 -48 143 -102 159 -114 9 -7
25 -19 35 -25 10 -7 67 -48 126 -90 60 -43 143 -102 185 -131 43 -29 86 -61
97 -70 12 -9 48 -35 80 -57 33 -22 66 -45 73 -52 7 -7 26 -20 42 -30 17 -9 30
-21 30 -25 0 -4 5 -8 10 -8 6 0 43 -24 83 -53 39 -30 104 -76 142 -102 39 -27
75 -53 80 -58 6 -4 46 -33 90 -65 44 -31 86 -62 93 -69 7 -7 19 -13 26 -13 6
0 18 -9 26 -20 8 -11 20 -20 27 -20 7 0 13 -4 13 -10 0 -5 4 -10 9 -10 6 0 50
-29 98 -65 48 -35 102 -74 118 -85 130 -91 213 -151 228 -164 9 -9 21 -16 26
-16 4 0 20 -10 34 -22 14 -13 60 -48 104 -78 43 -30 80 -57 83 -61 3 -3 25
-18 49 -34 25 -15 49 -32 55 -37 18 -15 147 -108 201 -143 28 -19 60 -43 72
-54 12 -12 26 -21 31 -21 5 0 17 -9 27 -20 10 -11 24 -20 32 -20 7 0 13 -4 13
-10 0 -5 4 -10 10 -10 9 0 35 -19 65 -48 8 -6 16 -12 20 -12 3 0 11 -5 18 -11
7 -5 66 -48 132 -95 66 -47 128 -92 138 -100 9 -7 21 -14 26 -14 5 0 11 -3 13
-8 3 -8 137 -106 212 -154 11 -7 31 -23 45 -35 14 -13 32 -23 39 -23 7 0 15
-6 18 -14 3 -8 19 -20 35 -26 16 -7 29 -15 29 -19 0 -3 17 -17 38 -31 20 -14
40 -28 43 -33 3 -4 6 -120 6 -256 0 -137 4 -254 7 -260 4 -6 4 -11 -1 -11 -4
0 -8 -27 -8 -60 0 -33 3 -60 7 -60 4 0 3 -13 -2 -30 -5 -16 -5 -30 -1 -30 4 0
5 -22 1 -50 -3 -27 -3 -56 2 -64 5 -8 4 -17 -1 -21 -7 -4 -7 -15 -1 -30 5 -14
6 -25 2 -25 -4 0 -7 -16 -7 -35 0 -19 3 -35 7 -35 4 0 3 -13 -2 -30 -5 -16 -5
-30 -1 -30 4 0 5 -22 1 -50 -3 -27 -3 -56 2 -64 5 -8 4 -17 -1 -21 -7 -4 -7
-15 -1 -30 5 -14 6 -25 2 -25 -4 0 -7 -16 -7 -35 0 -19 3 -35 7 -35 4 0 3 -13
-2 -30 -5 -16 -5 -30 -1 -30 4 0 5 -22 1 -50 -3 -27 -3 -56 2 -64 5 -8 4 -17
-1 -21 -7 -4 -7 -15 -1 -30 5 -14 6 -25 2 -25 -4 0 -7 -16 -7 -35 0 -19 3 -35
7 -35 4 0 3 -13 -2 -30 -5 -16 -5 -30 -1 -30 4 0 6 -14 3 -30 l-4 -30 960 0
960 0 4 30 c3 16 1 30 -3 30 -4 0 -4 14 1 30 5 17 6 30 2 30 -4 0 -6 17 -5 37
1 21 2 38 3 38 1 0 2 15 3 33 1 17 -1 32 -4 32 -3 0 -3 22 1 50 3 27 3 55 -1
62 -4 6 -4 19 1 28 5 9 4 23 -1 32 -6 10 -6 19 0 23 7 3 7 15 1 30 -6 15 -6
27 0 30 6 3 6 15 0 30 -6 15 -6 27 0 30 5 3 6 15 1 27 -4 12 -5 37 -1 55 5 18
4 33 0 33 -5 0 -5 14 0 30 5 17 5 30 1 30 -4 0 -5 20 -1 45 4 24 3 50 -1 57
-4 6 -4 19 1 28 5 9 5 22 0 30 -5 8 -6 18 -4 22 10 16 12 48 4 53 -6 3 -5 16
0 30 6 15 6 27 0 30 -6 4 -7 13 -1 24 5 9 6 23 1 30 -4 8 -4 27 0 42 5 16 5
29 0 29 -5 0 -5 13 0 30 5 18 5 30 0 30 -5 0 -6 10 -2 22 4 13 7 150 6 305
l-1 282 61 43 c34 23 63 44 66 47 3 4 12 11 22 16 38 24 253 180 256 187 2 5
8 8 13 8 5 0 35 20 66 43 32 24 137 100 233 168 96 68 193 137 216 154 23 16
51 37 63 45 23 16 188 133 206 147 6 4 33 24 60 43 28 19 51 38 53 42 2 4 10
8 18 8 8 0 17 7 20 15 4 8 10 15 16 15 5 0 29 15 52 33 24 17 54 39 66 47 48
33 296 212 313 225 9 8 19 15 22 15 2 0 33 21 68 48 36 26 75 54 87 62 32 21
123 88 136 98 6 5 29 21 51 35 22 14 46 31 54 39 8 7 34 26 58 42 25 16 50 33
55 38 6 5 65 47 131 94 66 47 129 92 140 100 11 8 49 35 85 61 36 25 66 50 68
55 2 4 8 8 14 8 6 0 27 14 48 30 21 17 42 30 48 30 6 0 12 4 14 8 2 5 91 71
198 147 107 76 197 142 198 147 2 4 9 8 15 8 7 1 25 11 41 24 21 18 28 32 28
60 0 21 -2 40 -5 43 -3 3 -2 16 3 29 6 14 6 26 0 29 -6 3 -6 15 0 30 6 16 6
25 0 25 -5 0 -6 9 -1 22 4 13 5 35 0 50 -4 16 -4 28 1 28 5 0 5 13 0 30 -5 17
-5 30 0 30 5 0 5 12 1 28 -5 15 -5 37 0 49 5 13 4 25 -1 28 -6 4 -7 13 -1 24
5 9 6 23 2 29 -4 7 -4 35 -1 62 4 28 3 50 -1 50 -4 0 -4 14 1 30 5 17 6 30 2
30 -8 0 -7 68 1 76 3 3 2 17 -3 30 -6 14 -6 26 0 29 6 3 6 15 0 30 -6 15 -6
25 0 25 5 0 5 12 0 30 -5 17 -5 30 0 30 5 0 5 13 0 30 -5 17 -5 30 0 30 5 0 5
12 1 28 -5 15 -5 37 0 49 5 13 4 25 -1 28 -6 4 -7 13 -1 24 5 9 6 22 3 28 -8
13 -7 77 1 90 3 5 2 15 -3 23 -5 8 -5 21 0 30 5 9 5 22 0 30 -4 7 -5 23 0 35
4 11 4 28 -1 37 -6 10 -6 19 0 22 6 4 6 18 1 36 -5 17 -6 30 -2 30 8 0 7 89
-2 97 -3 3 -1 13 4 22 5 10 5 23 0 31 -5 8 -5 21 0 30 5 9 5 22 0 30 -5 8 -5
21 0 30 5 9 5 22 0 30 -5 8 -5 21 0 30 5 9 5 22 0 30 -5 8 -5 21 0 30 5 9 5
22 0 30 -5 8 -5 21 0 30 5 9 5 22 0 30 -5 8 -5 21 0 30 5 9 5 22 0 30 -5 8 -5
21 0 30 5 9 5 22 0 30 -5 8 -5 21 0 30 5 9 5 22 1 28 -4 7 -5 33 -1 57 4 25 3
45 -1 45 -4 0 -4 14 1 30 5 17 5 30 0 30 -4 0 -4 16 0 35 4 20 4 38 -1 41 -6
3 -6 12 0 22 15 27 -7 54 -102 124 -51 37 -101 74 -112 82 -105 81 -126 96
-134 96 -5 0 -11 4 -13 8 -2 5 -120 96 -263 203 -143 106 -264 197 -270 202
-5 4 -98 73 -205 153 -107 79 -202 150 -210 157 -8 6 -49 37 -90 67 -41 30
-80 59 -86 65 -15 13 -222 167 -243 180 -9 6 -18 12 -21 15 -3 3 -34 27 -70
54 -102 75 -216 161 -245 183 -5 5 -55 42 -110 83 -55 40 -101 77 -103 82 -2
4 -8 8 -14 8 -6 0 -25 12 -43 28 -19 15 -55 43 -81 62 -27 19 -55 40 -64 47
-8 7 -44 34 -80 60 -36 26 -72 53 -80 60 -72 57 -312 233 -318 233 -4 0 -14 9
-22 20 -8 11 -18 20 -22 20 -4 0 -16 7 -25 15 -28 23 -129 99 -153 115 -12 8
-28 20 -34 25 -31 28 -110 85 -117 85 -15 0 -38 56 -29 70 5 8 5 21 0 31 -5 9
-6 19 -3 23 9 8 10 66 1 66 -4 0 -3 14 2 30 5 17 5 30 1 30 -4 0 -5 20 -1 45
4 24 3 50 -1 57 -4 6 -4 19 1 28 5 9 5 22 0 30 -5 8 -6 18 -4 22 10 16 12 48
4 53 -6 3 -5 16 0 30 6 15 6 27 0 30 -6 4 -7 13 -1 24 5 9 6 23 1 31 -4 7 -6
19 -4 25 8 19 10 105 3 105 -3 0 -3 23 1 50 4 28 3 50 -1 50 -4 0 -4 14 1 30
5 17 5 30 1 30 -4 0 -5 20 -1 45 4 24 3 50 -1 57 -4 6 -4 19 1 28 5 9 5 22 0
30 -5 8 -6 18 -3 23 7 11 10 127 3 127 -3 0 -5 18 -5 40 0 22 2 40 5 40 3 0 5
25 5 55 0 30 -3 55 -6 55 -4 0 -3 18 1 40 4 22 4 40 -1 40 -4 0 -4 14 1 30 5
17 5 30 1 30 -4 0 -5 20 -1 45 4 24 3 50 -1 57 -4 6 -4 19 1 28 5 9 5 22 0 30
-5 8 -6 18 -4 22 10 16 12 48 4 53 -6 3 -5 16 0 30 6 15 6 27 0 30 -6 4 -7 13
-1 24 5 9 6 23 1 31 -4 7 -6 19 -4 25 8 19 10 105 3 105 -3 0 -3 23 1 50 4 28
3 50 -1 50 -4 0 -4 14 1 30 5 17 5 30 1 30 -4 0 -5 20 -1 45 4 24 3 50 -1 57
-4 6 -4 19 1 28 5 9 5 22 0 30 -5 8 -6 18 -3 23 7 11 10 127 3 127 -3 0 -5 18
-5 40 0 22 2 40 5 40 3 0 5 25 5 55 0 30 -3 55 -6 55 -4 0 -3 18 1 40 4 22 4
40 -1 40 -4 0 -4 14 1 30 5 17 5 30 1 30 -4 0 -5 20 -1 45 4 24 3 50 -1 57 -4
6 -4 19 1 28 5 9 5 22 0 30 -5 8 -6 18 -4 22 10 16 12 48 4 53 -6 3 -5 16 0
30 6 15 6 27 0 30 -6 4 -7 13 -1 24 5 9 6 23 1 31 -4 7 -6 19 -4 25 8 19 10
105 3 105 -3 0 -3 23 1 50 4 28 3 50 -1 50 -4 0 -4 14 1 30 5 17 5 30 1 30 -4
0 -5 20 -1 45 4 24 3 50 -1 57 -4 6 -4 19 1 28 5 9 5 22 0 30 -5 8 -6 18 -3
23 7 11 10 127 3 127 -3 0 -5 18 -5 40 0 22 2 40 5 40 3 0 5 25 5 55 0 30 -3
55 -6 55 -4 0 -3 18 1 40 4 22 4 40 -1 40 -4 0 -4 14 1 30 5 17 5 30 1 30 -4
0 -5 20 -1 45 4 24 3 50 -1 57 -4 6 -4 19 1 28 5 9 5 22 0 30 -5 8 -6 18 -3
23 8 13 9 127 2 127 -4 0 -3 18 1 40 4 22 3 43 -1 46 -5 3 -5 14 1 24 7 13 7
21 0 25 -7 4 -7 12 0 24 5 10 6 21 3 25 -3 3 -3 6 1 6 10 0 100 -63 104 -72 2
-5 10 -8 17 -8 7 0 15 -3 17 -7 4 -11 97 -73 107 -73 5 0 11 -4 13 -8 2 -5 79
-60 173 -123 174 -117 186 -125 209 -146 8 -7 16 -9 20 -6 3 4 6 1 6 -5 0 -7
5 -12 10 -12 6 0 19 -9 30 -20 11 -11 27 -20 35 -20 8 0 15 -3 15 -8 0 -4 18
-18 40 -32 22 -14 40 -28 40 -32 0 -5 5 -8 10 -8 19 0 109 -65 105 -76 -2 -6
1 -17 5 -25 5 -7 5 -18 -1 -25 -7 -8 -6 -14 1 -19 6 -4 7 -13 2 -23 -9 -19 -8
-54 2 -70 3 -6 2 -13 -4 -17 -7 -4 -7 -12 0 -25 7 -13 7 -21 0 -25 -6 -4 -7
-13 -1 -23 6 -11 6 -24 0 -35 -7 -11 -6 -17 1 -17 7 0 8 -6 1 -18 -6 -11 -6
-24 0 -34 6 -11 6 -19 -1 -23 -6 -4 -7 -13 -1 -23 11 -21 11 -33 0 -54 -7 -12
-6 -18 1 -18 8 0 8 -6 0 -20 -8 -14 -8 -20 0 -20 8 0 8 -6 0 -20 -8 -14 -8
-20 0 -20 8 0 8 -6 0 -20 -8 -14 -8 -20 0 -20 8 0 8 -6 0 -20 -8 -14 -8 -20 0
-20 8 0 8 -6 0 -20 -8 -14 -8 -20 0 -20 8 0 8 -6 0 -20 -8 -14 -8 -20 0 -20 7
0 8 -6 2 -17 -9 -20 -8 -54 2 -71 3 -6 2 -13 -4 -17 -7 -4 -7 -12 0 -25 7 -13
7 -21 0 -25 -6 -4 -7 -13 -1 -23 6 -11 6 -24 0 -35 -7 -11 -6 -17 1 -17 7 0 8
-6 1 -18 -6 -11 -6 -24 0 -34 6 -11 6 -19 -1 -23 -7 -4 -6 -14 2 -28 6 -12 10
-24 9 -27 -2 -3 -7 -13 -12 -22 -7 -12 -6 -18 1 -18 8 0 8 -6 0 -20 -8 -14 -8
-20 0 -20 8 0 8 -6 0 -20 -8 -14 -8 -20 0 -20 8 0 8 -6 0 -20 -8 -14 -8 -20 0
-20 8 0 8 -6 0 -20 -8 -14 -8 -20 0 -20 8 0 8 -6 0 -20 -8 -14 -8 -20 0 -20 8
0 8 -6 0 -20 -8 -14 -8 -20 0 -20 7 0 7 -7 -1 -22 -7 -13 -12 -23 -11 -23 0 0
5 -12 11 -27 6 -17 7 -28 1 -28 -6 0 -6 -9 0 -25 5 -14 6 -25 1 -25 -5 0 -7
-9 -4 -21 7 -27 38 -38 80 -29 18 5 33 4 33 -1 0 -5 10 -5 23 0 12 5 24 9 27
11 3 1 17 -3 33 -9 18 -7 27 -7 27 0 0 6 5 7 10 4 14 -9 194 -10 208 -1 6 3
13 2 17 -4 4 -6 13 -7 23 -1 11 6 24 6 34 0 10 -6 19 -6 23 0 3 7 15 7 30 1
15 -6 27 -6 30 0 3 5 15 6 28 1 12 -5 34 -5 49 0 16 4 28 4 28 -1 0 -6 10 -6
25 0 14 5 27 5 30 0 3 -5 18 -5 33 -1 15 5 37 4 50 0 12 -5 22 -4 22 1 0 5 13
5 30 0 17 -5 30 -5 30 -2 0 9 64 7 79 -2 5 -4 12 -2 16 3 3 7 15 7 30 1 15 -6
27 -6 30 0 3 5 15 6 28 1 12 -5 32 -5 44 0 13 5 25 4 28 -1 4 -6 13 -7 23 -1
11 6 24 6 34 0 11 -6 19 -6 23 1 4 6 11 8 17 4 12 -7 167 -8 175 0 3 2 16 1
29 -4 14 -6 24 -6 24 0 0 5 12 5 30 0 17 -5 30 -5 30 -2 0 9 64 7 79 -2 5 -4
12 -2 16 3 3 7 15 7 30 1 15 -6 27 -6 30 0 3 5 15 6 28 1 12 -5 32 -5 44 0 13
5 25 4 28 -1 4 -6 13 -7 23 -1 11 6 24 6 34 0 11 -6 19 -6 23 1 4 6 11 8 17 4
12 -7 167 -8 175 0 3 2 16 1 29 -4 16 -6 24 -6 24 1 0 6 5 7 10 4 14 -9 194
-10 208 -1 6 3 13 2 17 -4 4 -6 13 -7 23 -1 11 6 24 6 34 0 10 -6 19 -6 23 0
3 7 15 7 30 1 14 -5 27 -5 30 -1 3 5 14 7 25 4 20 -5 20 0 20 971 l0 976 -62
46 c-35 26 -70 49 -78 52 -14 6 -39 25 -65 50 -8 6 -17 12 -22 12 -4 0 -21 12
-38 26 -16 14 -45 35 -65 47 -19 12 -39 25 -45 30 -9 7 -177 126 -293 207 -24
17 -47 30 -53 30 -5 0 -9 3 -9 8 0 4 -18 18 -40 32 -22 14 -40 28 -40 32 0 5
-4 8 -10 8 -8 0 -101 63 -145 98 -5 4 -39 28 -75 52 -36 24 -67 46 -70 49 -3
3 -12 11 -21 16 -10 6 -37 24 -60 41 -24 16 -75 52 -114 79 -38 27 -71 52 -73
57 -2 4 -8 8 -13 8 -7 0 -175 115 -189 130 -3 3 -12 10 -21 15 -57 35 -119 80
-119 87 0 4 -5 8 -11 8 -12 0 -102 61 -107 73 -2 4 -10 7 -18 7 -8 0 -14 5
-14 10 0 6 -4 10 -10 10 -5 0 -18 7 -27 15 -30 27 -140 105 -148 105 -3 0 -13
6 -20 13 -8 6 -29 22 -47 35 -41 29 -368 258 -388 272 -8 6 -76 53 -150 105
-74 52 -162 114 -195 137 -33 22 -61 45 -63 50 -2 4 -9 8 -16 8 -6 0 -27 13
-46 30 -19 16 -41 29 -47 30 -7 0 -13 4 -13 8 0 4 -15 16 -32 27 -18 10 -37
23 -43 27 -33 28 -136 98 -144 98 -5 0 -11 4 -13 8 -3 8 -97 77 -146 107 -9 6
-25 18 -36 28 -11 9 -25 17 -32 17 -10 0 -26 22 -28 42 -1 3 -4 9 -8 13 -4 4
-3 18 2 31 6 14 6 26 0 29 -6 3 -6 15 0 30 6 15 6 27 0 30 -6 4 -7 13 -1 24 5
9 6 23 1 31 -4 7 -6 19 -4 25 8 19 10 105 3 105 -3 0 -3 23 1 50 4 28 3 50 -1
50 -4 0 -4 14 1 30 5 17 5 30 1 30 -4 0 -5 20 -1 45 4 24 3 50 -1 57 -4 6 -4
19 1 28 5 9 5 22 0 30 -5 8 -6 18 -3 23 7 11 10 127 3 127 -3 0 -5 18 -5 40 0
22 2 40 5 40 3 0 5 25 5 55 0 30 -3 55 -6 55 -4 0 -3 18 1 40 4 22 4 40 -1 40
-4 0 -4 14 1 30 5 17 5 30 1 30 -4 0 -5 20 -1 45 4 24 3 50 -1 57 -4 6 -4 19
1 28 5 9 5 22 0 30 -5 8 -6 18 -4 22 10 16 12 48 4 53 -6 3 -5 16 0 30 6 15 6
27 0 30 -6 4 -7 13 -1 24 5 9 6 23 1 31 -4 7 -6 19 -4 25 8 19 10 105 3 105
-3 0 -4 11 -1 25 l4 25 -960 0 -960 0 -4 -25z m2 -3744 c0 -5 -18 -23 -41 -39
-33 -24 -37 -31 -22 -34 10 -3 29 -1 42 4 18 7 22 5 18 -6 -4 -9 -2 -18 3 -21
6 -3 6 -15 0 -30 -6 -15 -6 -27 0 -30 7 -4 7 -13 0 -24 -5 -10 -6 -21 -3 -25
8 -8 6 -113 -2 -126 -3 -6 -2 -10 3 -10 5 0 6 -20 2 -45 -4 -24 -3 -50 1 -57
4 -6 4 -19 -1 -28 -5 -9 -5 -22 0 -30 5 -8 5 -21 0 -30 -5 -9 -5 -22 0 -30 5
-8 6 -18 3 -24 -8 -13 -10 -66 -2 -66 3 0 3 -20 -1 -44 -4 -25 -3 -51 2 -60 5
-8 4 -17 -1 -21 -7 -4 -7 -15 -1 -30 5 -14 6 -25 2 -25 -8 0 -6 -85 3 -100 3
-5 2 -10 -4 -10 -5 0 -6 -11 -2 -27 4 -16 4 -40 0 -55 -4 -15 -4 -30 1 -33 5
-3 5 -16 0 -30 -6 -15 -6 -27 0 -30 7 -4 7 -13 0 -24 -5 -10 -6 -21 -3 -25 8
-8 6 -113 -2 -126 -3 -6 -2 -10 3 -10 4 0 6 -22 2 -50 -4 -27 -3 -50 1 -50 4
0 4 -13 -1 -30 -5 -16 -5 -30 -1 -30 4 0 5 -20 1 -45 -4 -24 -3 -50 1 -57 4
-6 4 -19 -1 -28 -5 -9 -5 -22 0 -30 5 -8 6 -18 4 -22 -10 -16 -12 -48 -4 -53
6 -3 5 -16 0 -30 -6 -15 -6 -27 0 -30 7 -4 7 -13 0 -24 -5 -10 -6 -21 -3 -25
8 -8 6 -113 -2 -126 -3 -6 -2 -10 3 -10 5 0 6 -20 2 -45 -4 -24 -3 -50 1 -57
4 -6 4 -19 -1 -28 -5 -9 -5 -22 0 -30 5 -8 5 -21 0 -30 -5 -9 -5 -22 0 -30 5
-8 6 -18 3 -24 -8 -13 -10 -66 -2 -66 3 0 3 -20 -1 -44 -4 -25 -3 -51 2 -60 5
-8 4 -17 -1 -21 -7 -4 -7 -15 -1 -30 5 -14 6 -25 2 -25 -8 0 -6 -85 3 -100 3
-5 2 -10 -4 -10 -5 0 -6 -11 -2 -27 4 -16 4 -40 0 -55 -4 -15 -4 -30 1 -33 5
-3 5 -16 0 -30 -6 -15 -6 -27 0 -30 7 -4 7 -13 0 -24 -5 -10 -6 -21 -3 -25 8
-8 6 -113 -2 -126 -3 -6 -2 -10 3 -10 4 0 6 -23 2 -50 -4 -28 -3 -53 2 -56 4
-3 4 -13 -1 -23 -6 -10 -6 -23 -1 -31 5 -8 6 -18 4 -22 -10 -16 -13 -48 -4
-48 5 0 5 -13 0 -28 -4 -16 -4 -36 1 -45 5 -8 6 -18 2 -20 -6 -3 -317 222
-388 281 -5 4 -26 19 -45 32 -19 14 -37 27 -40 30 -7 8 -173 132 -200 150 -12
8 -36 27 -54 42 -17 15 -34 28 -37 28 -6 0 -66 44 -99 72 -8 7 -32 26 -55 42
-22 16 -41 33 -43 38 -2 4 -8 8 -13 8 -11 0 -92 60 -97 73 -2 4 -9 7 -16 7
-16 0 -40 45 -32 59 4 6 3 11 -3 11 -6 0 -6 11 -1 30 5 17 5 30 0 30 -5 0 -5
13 0 30 5 17 5 30 0 30 -5 0 -5 13 0 30 5 17 5 30 0 30 -5 0 -5 13 0 30 5 17
5 30 0 30 -5 0 -5 13 0 30 5 17 5 30 1 30 -4 0 -5 22 -1 50 3 27 3 55 -1 62
-4 6 -3 20 2 29 6 11 5 20 -1 24 -5 3 -6 15 -1 28 5 12 5 34 0 49 -4 16 -4 28
1 28 5 0 5 13 0 30 -5 17 -5 30 0 30 5 0 5 13 0 30 -5 17 -5 30 0 30 5 0 5 13
0 30 -5 18 -5 30 0 30 6 0 6 10 0 24 -5 13 -6 27 -3 30 8 8 9 76 1 76 -4 0 -3
14 2 30 5 17 5 30 1 30 -4 0 -5 22 -1 50 3 27 3 55 -1 62 -4 6 -3 20 2 29 6
11 5 20 -1 24 -5 3 -6 15 -1 28 5 12 5 34 0 49 -4 16 -4 28 1 28 5 0 5 13 0
30 -5 17 -5 30 0 30 5 0 5 12 1 28 -5 15 -5 37 0 49 5 13 4 25 -1 28 -6 3 -6
15 0 30 6 15 6 25 0 25 -5 0 -5 12 -1 28 5 15 5 37 0 49 -5 13 -4 25 1 28 6 3
6 15 0 29 -7 19 -4 28 13 43 20 18 233 164 275 188 9 6 19 13 22 16 3 3 75 52
160 110 85 57 157 107 160 110 3 3 20 14 38 24 17 11 32 23 32 27 0 4 5 8 10
8 6 0 34 17 63 38 29 21 60 41 70 45 9 3 17 10 17 16 0 5 8 11 18 15 17 5 53
26 62 36 8 9 120 84 141 95 10 5 19 13 19 17 0 5 5 8 10 8 6 0 10 -4 10 -9z
m1966 -6839 c10 -10 35 -29 54 -42 19 -13 44 -32 54 -42 11 -10 24 -18 29 -18
4 0 14 -6 21 -12 7 -7 28 -24 46 -38 19 -14 46 -35 61 -47 15 -13 31 -23 37
-23 6 0 12 -3 14 -7 2 -5 42 -37 91 -73 93 -69 235 -175 252 -187 6 -5 32 -24
58 -43 27 -19 61 -45 77 -57 15 -13 31 -23 34 -23 4 0 18 -11 32 -25 14 -14
29 -25 33 -25 15 0 28 -54 20 -82 -4 -16 -3 -30 2 -34 5 -3 5 -12 0 -22 -6
-11 -6 -24 0 -34 6 -11 6 -19 -1 -23 -6 -4 -7 -13 -1 -23 5 -9 5 -26 1 -37 -4
-11 -4 -28 1 -37 6 -10 5 -19 -1 -23 -6 -4 -6 -15 0 -30 5 -14 6 -25 2 -25 -4
0 -7 -11 -7 -25 0 -14 3 -25 7 -25 4 0 3 -12 -2 -26 -6 -15 -6 -23 -1 -19 6 3
6 -6 1 -25 -5 -16 -5 -30 -1 -30 5 0 5 -18 1 -39 -4 -21 -3 -46 2 -54 5 -9 4
-18 -1 -22 -7 -4 -7 -15 -1 -30 5 -14 6 -25 2 -25 -4 0 -7 -11 -7 -25 0 -14 3
-25 7 -25 4 0 3 -12 -2 -26 -6 -15 -6 -23 -1 -19 6 3 6 -6 1 -25 -5 -16 -5
-30 0 -30 4 0 4 -15 0 -34 -4 -19 -4 -40 1 -47 4 -7 4 -18 -1 -24 -5 -6 -5
-17 0 -25 5 -8 5 -21 -1 -32 -6 -12 -6 -18 0 -18 7 0 7 -9 1 -25 -6 -15 -6
-26 1 -30 6 -4 6 -13 0 -23 -6 -10 -6 -23 0 -34 6 -10 5 -19 -1 -23 -6 -4 -7
-13 -1 -23 11 -21 11 -33 0 -54 -7 -12 -6 -18 1 -18 8 0 8 -6 0 -20 -8 -14 -8
-20 0 -20 8 0 8 -6 0 -20 -8 -14 -8 -20 0 -20 6 0 8 -5 4 -11 -10 -17 -11 -52
-2 -71 5 -10 4 -19 -2 -23 -7 -4 -7 -12 0 -25 7 -13 7 -21 0 -25 -7 -4 -7 -13
0 -26 8 -13 7 -19 0 -19 -7 0 -8 -6 0 -19 6 -13 7 -22 0 -26 -6 -3 -6 -15 0
-30 6 -15 6 -27 -1 -30 -5 -4 -7 -11 -4 -16 4 -5 -1 -9 -10 -9 -8 0 -18 -7
-21 -15 -4 -8 -12 -15 -19 -15 -7 0 -15 -3 -17 -7 -1 -5 -25 -24 -53 -43 -27
-19 -56 -40 -63 -46 -6 -7 -21 -16 -32 -19 -11 -3 -20 -10 -20 -14 0 -5 -14
-14 -30 -21 -17 -7 -28 -15 -25 -18 4 -5 -16 -19 -54 -38 -8 -4 -22 -15 -31
-23 -9 -9 -27 -23 -39 -31 -13 -8 -43 -30 -67 -47 -23 -18 -48 -33 -53 -33 -6
0 -11 -3 -11 -8 0 -4 -18 -18 -40 -32 -22 -14 -40 -27 -40 -30 0 -3 -16 -14
-35 -24 -19 -11 -35 -23 -35 -28 0 -4 -5 -8 -11 -8 -9 0 -84 -54 -99 -71 -3
-3 -12 -8 -20 -12 -8 -4 -40 -25 -70 -46 -53 -39 -55 -39 -61 -18 -3 12 -2 37
2 55 4 17 4 32 0 32 -5 0 -5 20 -1 45 4 24 3 50 -1 57 -4 6 -4 19 1 27 5 9 4
23 -1 33 -6 10 -5 19 1 23 6 3 6 15 0 30 -6 15 -6 27 0 30 6 3 6 15 0 30 -6
15 -6 27 0 30 5 3 6 15 1 27 -4 12 -5 37 -1 55 5 18 4 33 0 33 -5 0 -5 14 0
30 5 17 5 30 1 30 -4 0 -5 20 -1 45 4 24 3 50 -1 57 -4 6 -4 19 1 27 4 9 4 23
0 31 -5 9 -5 22 0 30 5 8 5 21 -1 31 -6 11 -5 20 1 24 6 3 6 15 0 30 -6 15 -6
27 0 30 5 3 6 15 0 29 -4 12 -5 29 0 36 5 7 4 24 -1 37 -5 13 -5 23 1 23 5 0
5 12 0 30 -5 17 -6 30 -2 30 8 0 6 85 -2 99 -4 5 -2 12 3 16 7 4 7 15 1 30 -5
14 -6 25 -2 25 4 0 7 16 7 35 0 19 -3 35 -7 35 -4 0 -3 14 2 30 5 17 5 30 1
30 -4 0 -4 27 -1 60 3 33 3 60 -1 60 -4 0 -4 14 1 30 5 17 6 30 2 30 -4 0 -6
17 -5 37 1 21 2 38 3 38 1 0 2 15 3 33 1 17 -1 32 -4 32 -3 0 -3 20 1 44 3 24
3 53 -1 64 -5 12 -4 24 1 27 6 3 6 15 0 30 -6 15 -6 25 0 25 5 0 5 12 0 29 -4
16 -6 32 -2 35 7 8 9 66 1 66 -3 0 -3 22 1 50 3 27 3 55 -1 62 -4 7 -4 19 1
27 5 9 4 23 -1 33 -6 10 -5 19 1 23 7 4 7 12 0 25 -6 12 -7 21 0 25 6 3 6 15
0 29 -5 13 -6 27 -3 30 3 3 6 159 6 346 0 356 1 361 43 322z"/>
</g>
</svg>
