<?xml version="1.0" standalone="no"?>
<!DOCTYPE svg PUBLIC "-//W3C//DTD SVG 1.1//EN" "http://www.w3.org/Graphics/SVG/1.1/DTD/svg11.dtd" >
<svg xmlns="http://www.w3.org/2000/svg" xmlns:xlink="http://www.w3.org/1999/xlink" version="1.1">
<metadata>
Created by FontForge 20170731 at Fri Mar 12 22:18:03 2021
 By Aleksey,,,
Copyright (c) 2018 by Sujan Sundareswaran. All rights reserved.
</metadata>
<defs>
<font id="AFParseGroteskMono-Bold" horiz-adv-x="1228" >
  <font-face 
    font-family="AF Parse Grotesk Mono"
    font-weight="700"
    font-stretch="normal"
    units-per-em="2048"
    panose-1="0 0 8 9 0 0 0 0 0 0"
    ascent="1638"
    descent="-410"
    x-height="913"
    cap-height="1262"
    bbox="-1022 -631 1649 1815"
    underline-thickness="102"
    underline-position="-307"
    unicode-range="U+0020-2265"
  />
<missing-glyph horiz-adv-x="1001" 
d="M821 1532v-2003h-635v2003h635zM668 1397h-332v-66h131v-74h-133v-65h334v65h-133v74h133v66zM535 1139h-201v-207h334v67h-133v140zM467 1071v-72h-66v72h66zM668 877h-334v-66h133v-74h-133v-67h201v141h133v66zM668 758h-68v-133h-266v-68h334v201zM668 512h-201v-113
h68v47h65v-94h-199v160h-67v-225h334v225zM668 166h-334v-227h334v227zM600 100v-94h-199v94h199zM668 -106h-334v-66h141l-141 -94v-68h334v68h-205l139 94h66v66z" />
    <glyph glyph-name=".notdef" horiz-adv-x="1001" 
d="M821 1532v-2003h-635v2003h635zM668 1397h-332v-66h131v-74h-133v-65h334v65h-133v74h133v66zM535 1139h-201v-207h334v67h-133v140zM467 1071v-72h-66v72h66zM668 877h-334v-66h133v-74h-133v-67h201v141h133v66zM668 758h-68v-133h-266v-68h334v201zM668 512h-201v-113
h68v47h65v-94h-199v160h-67v-225h334v225zM668 166h-334v-227h334v227zM600 100v-94h-199v94h199zM668 -106h-334v-66h141l-141 -94v-68h334v68h-205l139 94h66v66z" />
    <glyph glyph-name=".null" horiz-adv-x="0" 
 />
    <glyph glyph-name="nonmarkingreturn" horiz-adv-x="682" 
 />
    <glyph glyph-name="space" unicode=" " 
 />
    <glyph glyph-name="exclam" unicode="!" 
d="M498 418l-15 887l262 41l-14 -887zM614 0q-67 0 -115 45.5t-48 110.5q0 64 47.5 109.5t115.5 45.5t116 -45.5t48 -109.5t-48 -110t-116 -46z" />
    <glyph glyph-name="quotedbl" unicode="&#x22;" 
d="M340 737l-18 588l253 41l-18 -588zM672 737l-19 588l254 41l-18 -588z" />
    <glyph glyph-name="numbersign" unicode="#" 
d="M135 0l88 362h-217l29 168h227l64 285h-244l31 170h254l82 354h208l-82 -354h248l82 354h209l-82 -354h201l-31 -170h-217l-63 -285h233l-29 -168h-245l-88 -362h-209l88 362h-240l-88 -362h-209zM469 526h252l63 285h-252z" />
    <glyph glyph-name="dollar" unicode="$" 
d="M819 727q178 -27 263 -109t85 -219q0 -168 -120 -282q-129 -123 -359 -135l-10 -218h-213l12 228q-143 25 -252 90.5t-162 163.5l177 121q23 -64 87.5 -111.5t157.5 -69.5l19 379l-43 6q-45 6 -86.5 17t-92.5 35.5t-88 58t-62.5 88.5t-25.5 123q0 156 117 264
q118 109 318 123l10 219h213l-12 -231q219 -42 350 -240l-189 -100q-43 97 -170 141l-16 -328zM500 776l14 -2l16 311q-92 -14 -143 -66.5t-51 -117.5q0 -28 11 -49.5t26 -34t40.5 -21.5t42.5 -12.5t44 -7.5zM698 172q120 13 181 69t61 138q0 28 -9.5 50.5t-27 38t-35.5 26
t-44 17.5t-42 10.5t-39 6.5l-26 4z" />
    <glyph glyph-name="percent" unicode="%" 
d="M584 1024q0 -120 -84 -201q-79 -82 -205 -82q-111 0 -203 80q-84 78 -84 203q0 120 84 201q79 82 203 82q113 0 205 -80q84 -81 84 -203zM25 -45l929 1352h222l-930 -1352h-221zM197 1024q0 -56 27 -89.5t71 -33.5t72 34t28 89t-28 89t-72 34t-71 -33.5t-27 -89.5z
M1219 238q0 -120 -84 -201q-79 -82 -205 -82q-111 0 -203 80q-84 78 -84 203q0 119 84 200q79 82 203 82q113 0 205 -80q84 -81 84 -202zM831 238q0 -55 27.5 -89t71.5 -34t72 34t28 89t-27.5 88.5t-72.5 33.5q-44 0 -71.5 -33.5t-27.5 -88.5z" />
    <glyph glyph-name="ampersand" unicode="&#x26;" 
d="M428 -20q-195 0 -311.5 96.5t-116.5 257.5q0 107 59.5 188t194.5 156q-121 142 -121 295q0 135 100.5 222t255.5 87q154 0 245 -84t91 -225q0 -199 -264 -328l256 -278q59 80 74 202l190 -75q-6 -135 -129 -279q49 -51 93.5 -55t119.5 24l68 -151q-79 -53 -195 -53
q-73 0 -131.5 24t-120.5 80q-146 -104 -358 -104zM444 774q97 52 132.5 94.5t35.5 104.5q0 63 -33 99t-90 36q-63 0 -103 -37.5t-40 -97.5q0 -92 98 -199zM428 166q132 0 227 63l-280 314q-85 -47 -115.5 -91t-30.5 -118q0 -78 53 -123t146 -45z" />
    <glyph glyph-name="quotesingle" unicode="'" 
d="M506 737l-19 588l254 41l-18 -588z" />
    <glyph glyph-name="parenleft" unicode="(" 
d="M711 1382l135 -141q-114 -95 -180 -163.5t-109 -144.5t-57.5 -153.5t-14.5 -189.5q0 -153 32.5 -257t108.5 -194.5t222 -199.5l-137 -142q-218 161 -331.5 363.5t-113.5 429.5t113.5 429t331.5 363z" />
    <glyph glyph-name="parenright" unicode=")" 
d="M403 1382q218 -161 331.5 -363t113.5 -429t-113.5 -429.5t-331.5 -363.5l-137 142q146 109 222 199.5t108.5 194.5t32.5 257q0 112 -14.5 189.5t-57.5 153.5t-109 144.5t-180 163.5z" />
    <glyph glyph-name="asterisk" unicode="*" 
d="M227 1071l64 199l231 -96l-20 243h221l-18 -243l233 96l63 -199l-247 -59l159 -195l-172 -123l-127 207l-127 -209l-174 125l162 195z" />
    <glyph glyph-name="plus" unicode="+" 
d="M1106 631l-55 -180h-338v-345l-197 -40v385h-393l55 180h338v344l197 41v-385h393z" />
    <glyph glyph-name="comma" unicode="," 
d="M637 287q54 -8 93 -56t48 -117.5t-8 -143.5t-80 -143.5t-162 -107.5l-137 101q171 76 184 162q-60 8 -100.5 51.5t-40.5 101.5q0 64 48 110t116 46q15 0 39 -4z" />
    <glyph glyph-name="hyphen" unicode="-" 
d="M301 631h682l-55 -180h-682z" />
    <glyph glyph-name="period" unicode="." 
d="M512 -20q-68 0 -116 48t-48 115t48 115.5t116 48.5t116 -48.5t48 -115.5t-48 -115t-116 -48z" />
    <glyph glyph-name="slash" unicode="/" 
d="M41 -162l924 1585l190 -61l-924 -1585z" />
    <glyph glyph-name="zero" unicode="0" 
d="M612 1282q235 0 381 -176.5t146 -476.5q0 -194 -71.5 -343.5t-190.5 -227.5t-265 -78q-118 0 -218 52.5t-166 142t-103 207t-37 247.5q0 139 36 258.5t102.5 207t166 137.5t219.5 50zM612 1077q-129 0 -213 -126.5t-84 -321.5q0 -180 74 -303l287 743q-40 8 -64 8z
M612 184q128 0 212.5 126.5t84.5 318.5q0 176 -71 299l-285 -735q27 -9 59 -9z" />
    <glyph glyph-name="one" unicode="1" 
d="M758 197h327v-197h-892l55 197h280v702q-126 -88 -282 -88l-86 176q88 0 161.5 29t116.5 73t66.5 89.5t23.5 83.5h230v-1065z" />
    <glyph glyph-name="two" unicode="2" 
d="M109 0v100q0 100 35 179t88.5 126t125 87t136.5 64t132 55.5t103 62.5q57 38 90 98t33 123q0 90 -66.5 147.5t-173.5 57.5q-126 0 -198 -83.5t-72 -230.5l-221 41q0 218 133 336q134 119 356 119q217 0 344 -108t127 -297q0 -97 -36 -178t-105 -134q-42 -31 -119.5 -65
t-149 -62t-140.5 -63t-110.5 -83t-41.5 -106h743v-186h-1013z" />
    <glyph glyph-name="three" unicode="3" 
d="M745 864q167 -29 277.5 -143.5t110.5 -276.5q0 -130 -66.5 -236.5t-183 -167t-258.5 -60.5q-182 0 -318 90.5t-164 232.5l213 47q-1 -73 79.5 -127.5t187.5 -54.5q127 0 209.5 77.5t82.5 194.5q0 78 -48.5 139t-123.5 88.5t-174 11.5t-190 -83l-158 147l430 326h-540
l61 193h850v-193z" />
    <glyph glyph-name="four" unicode="4" 
d="M1085 399v-196h-133v-203h-213v203h-633v196q14 0 55 27.5t91 72.5t103.5 114t84.5 139q40 88 57.5 192t14.5 277l227 41q0 -400 -94 -609q-56 -122 -182 -254h276v328l213 -59v-269h133z" />
    <glyph glyph-name="five" unicode="5" 
d="M584 934q142 0 256 -54.5t183 -164.5t69 -258q0 -211 -146.5 -344t-361.5 -133q-182 0 -318 88.5t-164 226.5l213 49q-1 -73 79.5 -127.5t187.5 -54.5q122 0 207 85t85 208q0 120 -84.5 203t-207.5 83q-90 0 -164 -47t-109 -127l-4 -6l-207 57q84 235 107.5 341t23.5 303
h813l-49 -191h-542q0 -58 -23 -158q71 21 156 21z" />
    <glyph glyph-name="six" unicode="6" 
d="M643 1282q85 0 164 -18.5t147.5 -55t110 -100.5t41.5 -147l-227 -54q0 91 -74.5 141t-161.5 50q-68 0 -125 -18.5t-95 -48t-67 -70t-45 -80t-26.5 -83t-13.5 -74t-3 -56.5q33 49 64.5 84t76 66.5t103 48t131.5 16.5q106 0 197 -29t160.5 -84.5t109 -142.5t39.5 -195
q0 -124 -67.5 -228t-184 -164t-254.5 -60q-296 0 -431.5 162.5t-135.5 475.5q0 117 19.5 216t63 183t109 142t161 90.5t214.5 32.5zM643 696q-72 0 -129 -25.5t-91.5 -67t-52.5 -91.5t-18 -102q0 -111 80 -175.5t211 -64.5q126 0 207.5 69.5t81.5 188.5q0 121 -83 194.5
t-206 73.5z" />
    <glyph glyph-name="seven" unicode="7" 
d="M174 1262h952v-197q-24 -7 -72.5 -36t-112.5 -76.5t-131 -121t-108 -153.5q-106 -207 -106 -678h-234q-2 185 32.5 394.5t101.5 363.5q30 66 98 148.5t151 158.5h-636z" />
    <glyph glyph-name="eight" unicode="8" 
d="M979 649q149 -125 149 -282q0 -178 -149 -281q-153 -106 -365 -106q-218 0 -364 108q-148 110 -148 279q0 175 150 284q53 34 80 45q-2 1 -5 4.5t-5 4.5q-121 103 -121 241q0 140 121 240q113 96 290 96q166 0 291 -96q123 -94 123 -240q0 -153 -125 -244q-1 0 -2 -1
t-2 -1q30 -14 82 -51zM612 1106q-79 0 -126.5 -47t-47.5 -125q0 -75 47 -118.5t127 -43.5q82 0 129 43t47 119q0 78 -47.5 125t-128.5 47zM614 150q127 -1 196 55t69 160q0 110 -71 173.5t-194 63.5t-193.5 -63.5t-70.5 -173.5q0 -103 67 -158.5t197 -56.5z" />
    <glyph glyph-name="nine" unicode="9" 
d="M582 -20q-85 0 -164 18.5t-147.5 55t-110 100.5t-41.5 147l227 53q0 -62 39 -107t91 -64t106 -19q68 0 125 18.5t94.5 48t66.5 70t45.5 80t26.5 83t13 74t3 56.5q-33 -49 -64 -83.5t-75.5 -67t-103 -48.5t-131.5 -16q-142 0 -255 49.5t-182 153t-69 247.5
q0 124 67.5 228.5t184 164.5t254.5 60q296 0 431.5 -163t135.5 -476q0 -147 -32 -265.5t-98.5 -209t-177.5 -139.5t-259 -49zM582 565q72 0 129 25.5t91 67.5t52 92t18 102q0 111 -79.5 175.5t-210.5 64.5q-126 0 -207.5 -69.5t-81.5 -188.5q0 -122 83 -195.5t206 -73.5z
" />
    <glyph glyph-name="colon" unicode=":" 
d="M684 594q-68 0 -116 48t-48 116t48 116t116 48t116 -48t48 -116t-48 -116t-116 -48zM684 20q-68 0 -116 48t-48 116t48 116t116 48t116 -48t48 -116t-48 -116t-116 -48z" />
    <glyph glyph-name="semicolon" unicode=";" 
d="M659 528q-67 0 -115 48t-48 116t48 116t115 48t115.5 -48t48.5 -116t-48.5 -116t-115.5 -48zM637 287q54 -8 93 -56t48 -117.5t-8 -143.5t-80 -143.5t-162 -107.5l-137 101q171 76 184 162q-60 8 -100.5 51.5t-40.5 101.5q0 64 48 110t116 46q15 0 39 -4z" />
    <glyph glyph-name="less" unicode="&#x3c;" 
d="M100 389l50 207l974 399v-215l-682 -288l682 -277v-213z" />
    <glyph glyph-name="equal" unicode="=" 
d="M240 733h804l-55 -180h-805zM240 446h804l-55 -180h-805z" />
    <glyph glyph-name="greater" unicode="&#x3e;" 
d="M1079 387l-975 -387v215l682 277l-682 288v215l1024 -401z" />
    <glyph glyph-name="question" unicode="?" 
d="M487 418q0 62 21 117t54.5 96.5t73.5 79.5t80.5 70t74 62.5t54.5 64t21 67.5q0 85 -62.5 140.5t-182.5 55.5q-139 0 -204 -74.5t-65 -232.5q-22 7 -111.5 30t-99.5 24q0 51 15 107.5t51 117.5t89 109.5t138 80t189 31.5q111 0 197 -26.5t137 -67t83.5 -96t44 -106.5
t11.5 -105q0 -52 -20.5 -99t-53.5 -83.5t-72.5 -71t-79.5 -67t-73 -66t-53.5 -74t-20.5 -84.5h-236zM604 0q-68 0 -116 46t-48 110t48 109.5t116 45.5t116 -45.5t48 -109.5t-48 -110t-116 -46z" />
    <glyph glyph-name="at" unicode="@" 
d="M573 88q-129 0 -203.5 54t-74.5 155q0 118 109.5 184t330.5 66v18q0 38 -29 57t-77 19q-81 0 -128 -26t-81 -74l-115 77q42 73 130 119.5t206 46.5q123 0 196.5 -54t73.5 -157v-264q0 -41 16.5 -59.5t39.5 -18.5q25 0 43 22.5t27.5 58.5t13.5 72t4 73q0 207 -121.5 319.5
t-304.5 112.5q-197 0 -326 -127t-129 -346q0 -226 138.5 -334t365.5 -66l57 -151q-217 -41 -385.5 13t-262 194.5t-93.5 345.5q0 192 83 337.5t227 221.5t327 76q128 0 237.5 -39t191.5 -112.5t128.5 -188t46.5 -256.5q0 -184 -74.5 -280.5t-204.5 -96.5q-99 0 -165 72
q-82 -64 -218 -64zM729 334q6 25 6 88q-133 -1 -199.5 -34.5t-66.5 -90.5q0 -36 27 -55t69 -19q69 0 115.5 41t48.5 70z" />
    <glyph glyph-name="A" unicode="A" 
d="M33 0l469 1262l225 41l467 -1303h-229l-127 326h-451l-125 -326h-229zM453 522h321l-160 432z" />
    <glyph glyph-name="B" unicode="B" 
d="M152 -2v1264h391q220 0 328 -87.5t108 -265.5q0 -157 -113 -235q43 -19 76 -40.5t66 -56.5t51 -88t18 -120q0 -177 -119 -274t-333 -97h-473zM346 723h176q128 0 186 51t58 135q0 181 -244 181h-176v-367zM346 184h258q126 0 185 49t59 136q0 76 -63.5 122t-180.5 46
h-258v-353z" />
    <glyph glyph-name="C" unicode="C" 
d="M37 631q0 289 166 467q172 184 426 184q104 0 181 -22.5t128 -59t113 -102.5q84 -90 123 -199l-211 -59q-43 129 -129 197.5t-205 68.5q-163 0 -263 -130t-100 -345q0 -212 100 -341.5t263 -129.5q135 0 229 90t125 250l197 -86q-46 -156 -129 -244q-181 -190 -422 -190
q-255 0 -426 190q-166 184 -166 461z" />
    <glyph glyph-name="D" unicode="D" 
d="M967 1081q172 -187 172 -458q0 -268 -172 -455q-155 -168 -422 -168h-416v1262h416q253 0 422 -181zM545 176q167 0 265.5 121t98.5 326q0 210 -99.5 337t-264.5 127h-187v-911h187z" />
    <glyph glyph-name="E" unicode="E" 
d="M1077 1069h-655v-319h582l-56 -193h-526v-362h655v-195h-884v1262h884v-193z" />
    <glyph glyph-name="F" unicode="F" 
d="M1083 1069h-655v-321h582l-56 -193h-526v-555h-229v1262h884v-193z" />
    <glyph glyph-name="G" unicode="G" 
d="M690 694h488v-694h-185l-24 111q-153 -131 -355 -131q-249 0 -421 190q-166 184 -166 461q0 286 166 467q169 184 428 184q241 0 419 -184q78 -81 123 -197l-211 -61q-43 129 -129 197.5t-205 68.5q-163 0 -262.5 -130t-99.5 -343q0 -215 100.5 -343t261.5 -128
q139 0 234.5 93t95.5 247h-313z" />
    <glyph glyph-name="H" unicode="H" 
d="M868 1262h230v-1262h-230v573h-508v-573h-229v1262h229v-496h508v496z" />
    <glyph glyph-name="I" unicode="I" 
d="M143 0l56 197h301v868h-357l56 197h878v-197h-348v-868h348v-197h-934z" />
    <glyph glyph-name="J" unicode="J" 
d="M1053 1262v-797q0 -485 -471 -485q-170 0 -280 99.5t-132 270.5l201 60q23 -131 70.5 -182.5t144.5 -51.5q39 0 71 7.5t55 18.5t41 30t29.5 35.5t20 43t12 44.5t6 47t2.5 43v40v580h-420l56 197h594z" />
    <glyph glyph-name="K" unicode="K" 
d="M848 0l-365 571q-66 -8 -98 -8v-563h-229v1221l229 41v-494q189 6 319 135t130 318l227 41q0 -187 -92.5 -350t-251.5 -257l424 -655h-293z" />
    <glyph glyph-name="L" unicode="L" 
d="M190 0v1204l230 58v-1065h655v-197h-885z" />
    <glyph glyph-name="M" unicode="M" 
d="M59 0v1221l217 41l338 -578l338 537l219 41v-1262h-210v850l-252 -387h-189l-252 387v-850h-209z" />
    <glyph glyph-name="N" unicode="N" 
d="M109 1221l217 41l561 -850v809l229 41v-1262h-217l-561 881v-881h-229v1221z" />
    <glyph glyph-name="O" unicode="O" 
d="M612 -20q-258 0 -426 186q-166 187 -166 465q0 291 166 469q170 182 426 182q249 0 422 -182q172 -184 172 -469q0 -284 -172 -465q-180 -186 -422 -186zM612 168q160 0 258.5 128t98.5 337q0 211 -98 338t-259 127q-160 0 -259 -128t-99 -337q0 -207 99 -336t259 -129z
" />
    <glyph glyph-name="P" unicode="P" 
d="M139 0v1262h514q183 0 310 -121.5t127 -298.5q0 -108 -60 -203.5t-161.5 -152t-215.5 -56.5h-284v-430h-230zM369 627h284q85 0 146 63.5t61 151.5q0 98 -58 160.5t-149 62.5h-284v-438z" />
    <glyph glyph-name="Q" unicode="Q" 
d="M1034 166q-78 -81 -176 -129q99 -86 330 -86v-180q-216 0 -352.5 50.5t-212.5 158.5h-11q-258 0 -426 186q-166 187 -166 465q0 291 166 469q170 182 426 182q249 0 422 -182q172 -184 172 -469q0 -284 -172 -465zM254 633q0 -182 78 -305.5t209 -151.5q-33 135 -33 344
h227q0 -212 29 -315q96 50 150.5 162t54.5 266q0 211 -98 338t-259 127q-160 0 -259 -128t-99 -337z" />
    <glyph glyph-name="R" unicode="R" 
d="M842 555q237 -187 237 -555h-229q0 135 -33.5 235.5t-94 160.5t-138.5 90t-174 32v-518h-230v1260h473q183 0 310 -109t127 -266q0 -104 -69 -193.5t-179 -136.5zM410 1079v-381h243q85 0 146 55t61 132q0 85 -57.5 139.5t-149.5 54.5h-243z" />
    <glyph glyph-name="S" unicode="S" 
d="M63 246l177 121q31 -88 139.5 -142.5t255.5 -54.5q151 0 228 58t77 151q0 28 -9.5 50.5t-27 38t-35.5 26t-44 17.5t-42 10.5t-39 6.5l-282 43q-45 6 -86.5 17t-92.5 35.5t-88 58t-62.5 88.5t-25.5 123q0 156 117 264q135 125 381 125q168 0 290 -62t208 -192l-189 -100
q-33 75 -121 119.5t-194 44.5q-123 0 -192.5 -56.5t-69.5 -134.5q0 -28 11 -49.5t26 -34t40.5 -21.5t42.5 -12.5t44 -7.5l319 -49q178 -27 263 -109t85 -219q0 -168 -120 -282q-147 -137 -414 -137q-192 0 -348 71t-222 195z" />
    <glyph glyph-name="T" unicode="T" 
d="M1139 1262v-197h-410v-1065h-229v1065h-418l55 197h1002z" />
    <glyph glyph-name="U" unicode="U" 
d="M608 -20q-104 0 -187 28.5t-135 69.5t-89.5 107.5t-55 119t-27.5 129.5t-11 114.5t-1 96.5v559l230 58v-617v-2q0 -56 0.5 -86t6 -85t15.5 -87t30.5 -73.5t50 -64t75 -38.5t104.5 -16q58 0 103.5 16t75 38.5t50 64t30.5 73.5t15.5 87t6 86t0.5 87v559l229 58v-617
q0 -55 -1 -91.5t-11 -112.5t-28 -129.5t-56.5 -121t-91.5 -109.5t-137.5 -71.5t-190.5 -29.5z" />
    <glyph glyph-name="V" unicode="V" 
d="M485 0l-403 1221l211 41l330 -975l292 954l232 21l-385 -1262h-277z" />
    <glyph glyph-name="W" unicode="W" 
d="M209 0l-195 1221l230 41l112 -897l164 528l189 41l168 -574l108 861l229 41l-194 -1262h-213l-193 543l-192 -543h-213z" />
    <glyph glyph-name="X" unicode="X" 
d="M1200 1262l-465 -650l445 -612h-265l-309 434l-311 -434h-258l444 610l-436 613l217 43l348 -480l330 453z" />
    <glyph glyph-name="Y" unicode="Y" 
d="M86 1221l254 41l266 -519l262 498l275 21l-422 -775v-487h-229v487z" />
    <glyph glyph-name="Z" unicode="Z" 
d="M90 0v197l752 868h-746l41 197h993v-197l-753 -868h753v-197h-1040z" />
    <glyph glyph-name="bracketleft" unicode="[" 
d="M1106 1640l-55 -196h-277v-1583h332l-55 -197h-473v1976h528z" />
    <glyph glyph-name="backslash" unicode="\" 
d="M1155 -162l-190 -61l-924 1585l190 61z" />
    <glyph glyph-name="bracketright" unicode="]" 
d="M178 1640h514v-1976h-569l55 197h318v1583h-373z" />
    <glyph glyph-name="asciicircum" unicode="^" 
d="M713 1450q7 -29 68.5 -127.5t147 -202t138.5 -125.5l-94 -176q-77 34 -170 136t-176 225q-87 -132 -188.5 -249t-182.5 -153l-94 176q53 22 138.5 122.5t147 194t68.5 118.5z" />
    <glyph glyph-name="underscore" unicode="_" 
d="M178 -86h928l-55 -180h-928z" />
    <glyph glyph-name="a" unicode="a" 
d="M471 -20q-166 0 -265.5 73.5t-99.5 206.5q0 158 154.5 227.5t466.5 69.5v64q0 86 -43 117.5t-141 31.5q-144 0 -228 -121l-149 92q125 195 409 195q75 0 135.5 -14.5t98 -36t65 -53.5t40 -58.5t19.5 -60.5t8 -49t1 -35v-365q0 -73 39 -95t137 9l53 -158
q-1 -4 -31.5 -13.5t-79 -18t-87.5 -8.5q-49 0 -86.5 13t-62 37.5t-36 41.5t-24.5 43q-73 -135 -293 -135zM473 152q54 0 98.5 14.5t72.5 37t44.5 44t24.5 41.5q14 35 14 108q-110 -1 -179 -6.5t-123 -20t-77.5 -41t-23.5 -69.5q0 -108 149 -108z" />
    <glyph glyph-name="b" unicode="b" 
d="M651 934q213 0 337 -128.5t124 -350.5q0 -209 -130 -342t-331 -133q-157 0 -274 114l-29 -94h-170v1262l217 41v-467q112 98 256 98zM651 166q117 0 179.5 75.5t62.5 213.5q0 137 -64 215t-178 78q-103 0 -179.5 -87t-76.5 -206q0 -120 75 -204.5t181 -84.5z" />
    <glyph glyph-name="c" unicode="c" 
d="M121 459q0 199 143 337t361 138q163 0 278.5 -82t159.5 -231l-209 -64q-13 81 -85 136t-163 55q-114 0 -190 -82.5t-76 -206.5t77 -208.5t195 -84.5q87 0 152.5 49t99.5 139l199 -59q-60 -153 -174.5 -234t-270.5 -81q-213 0 -355 139.5t-142 339.5z" />
    <glyph glyph-name="d" unicode="d" 
d="M838 1262l217 41v-1303h-170l-29 94q-117 -114 -274 -114q-201 0 -331 133t-130 342q0 222 124 350.5t337 128.5q144 0 256 -98v426zM582 166q106 0 181 84.5t75 204.5q0 119 -76.5 206t-179.5 87q-114 0 -178 -78t-64 -215q0 -138 62.5 -213.5t179.5 -75.5z" />
    <glyph glyph-name="e" unicode="e" 
d="M104 481q0 121 63.5 224t182.5 166t268 63q238 0 369 -143.5t131 -397.5h-813q14 -103 95.5 -165t215.5 -62q44 0 74.5 4t71 17.5t76 45.5t65.5 82l166 -84q-141 -251 -453 -251q-101 0 -186.5 29t-144.5 78t-100.5 114t-61 136t-19.5 144zM305 549h594q0 77 -81 145
t-210 68q-122 0 -205.5 -60.5t-97.5 -152.5z" />
    <glyph glyph-name="f" unicode="f" horiz-adv-x="1230" 
d="M788 1417q180 0 299 -89.5t142 -260.5l-201 -59q-22 124 -81 176.5t-152 52.5q-31 0 -57.5 -5t-60 -24.5t-57 -52.5t-39.5 -95.5t-16 -146.5h381l-55 -180h-326v-733h-217v733h-235l55 180h180v19q0 211 122 348t318 137z" />
    <glyph glyph-name="g" unicode="g" 
d="M737 156q24 0 39.5 -0.5t47.5 -2.5t54.5 -6.5t54.5 -13.5t54.5 -22t47.5 -33t40 -45.5t25 -61t10 -77.5q0 -170 -143.5 -267.5t-384.5 -97.5q-240 0 -387.5 91.5t-147.5 238.5q0 67 33.5 112t103.5 86q-118 56 -118 160q0 66 39.5 108.5t101.5 73.5q-60 86 -60 189
q0 153 117.5 250.5t294.5 97.5q148 0 262 -68q42 54 90 84q70 44 179 72q3 -7 45 -87t45 -85q-88 -7 -160 -55q-36 -25 -66 -66q37 -64 37 -143q0 -145 -123.5 -243.5t-308.5 -98.5q-143 0 -246 61q-57 -33 -57 -76q0 -14 5.5 -25t17.5 -18.5t24 -13.5t32 -9t33.5 -5
t37.5 -3t34.5 -1h32.5h264zM563 745q-97 0 -150 -40.5t-53 -116.5q0 -75 51.5 -113.5t149.5 -38.5q103 0 160 40.5t57 111.5t-57.5 114t-157.5 43zM606 -311q151 0 225 39t74 108q0 58 -51.5 94.5t-148.5 36.5q-5 0 -59 -0.5t-109 -0.5h-110.5t-72.5 1q-98 -45 -98 -121
q0 -75 98 -116t252 -41z" />
    <glyph glyph-name="h" unicode="h" 
d="M141 0v1262l199 41v-588q36 66 77 111.5t106.5 76.5t146.5 31q45 0 91 -8t103 -33.5t100.5 -66t73 -113.5t29.5 -168v-545h-236v487q0 67 -14.5 117t-35 75.5t-49 41t-49.5 19t-44 3.5q-32 0 -64.5 -7t-70.5 -27.5t-66.5 -53t-47.5 -90t-19 -131.5v-434h-230z" />
    <glyph glyph-name="i" unicode="i" 
d="M588 1130q-68 0 -116 48t-48 116t48 116t116 48t116 -48t48 -116t-48 -116t-116 -48zM168 0l55 180h320v553h-334l55 180h488v-733h362v-180h-946z" />
    <glyph glyph-name="j" unicode="j" 
d="M834 1139q-68 0 -116 48.5t-48 115.5t48 115t116 48t115.5 -48t47.5 -115q0 -68 -48 -116t-115 -48zM997 913v-837q0 -236 -127 -361t-333 -125q-174 0 -285.5 97.5t-134.5 273.5l200 59q23 -130 71.5 -181.5t148.5 -51.5q25 0 43 1.5t44 8t44.5 18.5t38.5 35t32.5 55
t20.5 80.5t8 110.5v637h-514l55 180h688z" />
    <glyph glyph-name="k" unicode="k" 
d="M838 0l-299 377q-85 -30 -146 -47v-330h-217v1262l217 41v-762q133 36 230 96q189 118 251 276l185 -100q-42 -97 -126.5 -189t-189.5 -157l387 -467h-292z" />
    <glyph glyph-name="l" unicode="l" 
d="M121 0l55 180h340v922h-313l55 180h475v-1102h375v-180h-987z" />
    <glyph glyph-name="m" unicode="m" 
d="M37 0v913h139l43 -204q21 82 84.5 153.5t149.5 71.5q65 0 125.5 -45t93.5 -115q43 85 93.5 122.5t131.5 37.5q139 0 217 -106t78 -306v-522h-213v440q0 31 -0.5 49.5t-2.5 53t-6.5 56.5t-13.5 49.5t-21.5 43.5t-32 27.5t-44.5 11.5q-62 0 -95.5 -61.5t-33.5 -147.5v-522
h-213v440q0 31 -0.5 49t-2.5 52.5t-6.5 56.5t-13 50t-21 44t-31.5 27.5t-44 11.5q-67 0 -107 -77t-40 -214v-440h-213z" />
    <glyph glyph-name="n" unicode="n" 
d="M141 0v913h140l38 -239q15 46 42 88.5t69 82.5t104 64.5t136 24.5q45 0 91 -8t103 -33.5t100.5 -66t73 -113.5t29.5 -168v-545h-215v487q0 67 -17 117t-40 75.5t-55 41t-54.5 19t-46.5 3.5q-32 0 -64.5 -7t-70.5 -27.5t-66.5 -53t-47.5 -90t-19 -131.5v-434h-230z" />
    <glyph glyph-name="o" unicode="o" 
d="M614 -20q-202 0 -342 137q-137 134 -137 340q0 216 137 344q139 133 342 133q205 0 340 -135q140 -140 140 -342q0 -209 -140 -340q-143 -137 -340 -137zM616 152q117 0 189 83.5t72 221.5q0 139 -72 224t-189 85q-119 0 -191.5 -85t-72.5 -224q0 -138 72.5 -221.5
t191.5 -83.5z" />
    <glyph glyph-name="p" unicode="p" 
d="M651 934q201 0 331 -133t130 -342q0 -222 -124 -350.5t-337 -128.5q-144 0 -256 98v-447l-217 -41v1323h170l29 -94q118 115 274 115zM651 166q114 0 178 78t64 215q0 138 -62.5 213.5t-179.5 75.5q-106 0 -181 -84.5t-75 -204.5q0 -119 76.5 -206t179.5 -87z" />
    <glyph glyph-name="q" unicode="q" 
d="M889 913h182v-1282l-229 -41v488q-112 -98 -256 -98q-213 0 -337 128.5t-124 350.5q0 209 130 342t331 133q156 0 274 -115zM586 166q103 0 179.5 87t76.5 206q0 120 -75 204.5t-181 84.5q-117 0 -179.5 -75.5t-62.5 -213.5q0 -137 64 -215t178 -78z" />
    <glyph glyph-name="r" unicode="r" 
d="M176 0v913h139l62 -194q32 107 110 161t218 54q45 0 91 -8t103 -33.5t100.5 -66t73 -113.5t29.5 -168l-236 -58q0 71 -16.5 123t-37 76.5t-49.5 38.5t-44 16t-31 2q-38 0 -73 -7t-74.5 -27.5t-68 -53t-47.5 -89.5t-19 -132v-434h-230z" />
    <glyph glyph-name="s" unicode="s" 
d="M166 176l162 141q72 -167 340 -167q91 0 133.5 31.5t42.5 97.5q0 61 -123 79l-229 35q-289 43 -289 250q0 113 96 197q49 43 124 68.5t150 25.5q162 0 265 -44.5t178 -146.5l-168 -108q-38 66 -104 96.5t-171 30.5q-69 0 -111 -32.5t-42 -86.5q0 -25 19.5 -40t84.5 -23
l256 -35q142 -20 211.5 -85.5t69.5 -180.5q0 -132 -92 -209q-110 -90 -303 -90q-377 0 -500 196z" />
    <glyph glyph-name="t" unicode="t" 
d="M985 406l186 -60q-23 -176 -134 -273.5t-285 -97.5q-205 0 -333 127t-128 359v264h-254l55 188h199v291l217 58v-349h465l-55 -188h-410v-244q0 -323 252 -323q93 0 147.5 60t77.5 188z" />
    <glyph glyph-name="u" unicode="u" 
d="M1067 934v-934h-139l-39 240q-15 -46 -42 -88.5t-68.5 -82.5t-103.5 -64.5t-136 -24.5q-45 0 -91 8t-103.5 33.5t-100.5 66t-73 113.5t-30 168v524l215 41v-508q0 -69 22.5 -121.5t58 -80.5t72.5 -41t73 -13q27 0 57 7t66.5 27.5t65 53t48 90t19.5 131.5v414z" />
    <glyph glyph-name="v" unicode="v" 
d="M719 0h-209l-412 893l232 41l293 -635v4l274 590l254 41z" />
    <glyph glyph-name="w" unicode="w" 
d="M12 893l230 41l90 -653l186 612l193 41l188 -649l88 608l230 41l-199 -934h-213l-189 629l-192 -629h-213z" />
    <glyph glyph-name="x" unicode="x" 
d="M291 0h-260l446 471l-389 422l223 41l303 -322l281 301h266l-409 -442l444 -471h-260l-322 328z" />
    <glyph glyph-name="y" unicode="y" 
d="M838 893l229 41v-934q0 -60 -11 -114.5t-41 -110t-77 -95.5t-126 -65t-181 -25q-82 0 -148 17t-108.5 44.5t-71.5 64t-41 73.5t-12 76l180 59q0 -74 53 -118t154 -44q37 0 66.5 5.5t50 18.5t35.5 25.5t24 35t14.5 38.5t7.5 44.5t2.5 44.5t0.5 46v117q-107 -157 -299 -157
q-45 0 -91 8t-103.5 33.5t-100.5 66t-73 113.5t-30 168v524l215 41v-508q0 -69 22.5 -121.5t58 -80.5t72.5 -41t73 -13q27 0 57 7t66.5 27.5t65 53t48 90t19.5 131.5v414z" />
    <glyph glyph-name="z" unicode="z" 
d="M90 0v186l717 531h-725l55 196h993v-182l-716 -530h716v-201h-1040z" />
    <glyph glyph-name="braceleft" unicode="{" 
d="M135 772h203q53 0 68.5 27t15.5 127v317q0 148 75.5 236t204.5 88h332l-55 -197h-289q-30 0 -48.5 -34.5t-18.5 -90.5v-323q0 -107 -22 -166t-75 -88q52 -26 74.5 -80.5t22.5 -149.5v-426q0 -72 14 -98.5t53 -26.5h344l-55 -196h-277q-56 0 -100 10t-73.5 25t-50 41.5
t-31.5 50t-16.5 61t-7 65t-1.5 70.5v437q0 73 -15.5 93.5t-68.5 20.5h-256z" />
    <glyph glyph-name="bar" unicode="|" 
d="M508 -195v1653l213 41v-1653z" />
    <glyph glyph-name="braceright" unicode="}" 
d="M1022 565h-203q-53 0 -68.5 -26.5t-15.5 -126.5v-398q0 -148 -75.5 -235.5t-204.5 -87.5h-332l55 196h289q30 0 49 34.5t19 90.5v404q0 108 21.5 166.5t74.5 87.5q-52 26 -74 80t-22 149v346q0 71 -14.5 98t-53.5 27h-344l55 197h277q56 0 100 -10t73.5 -25t50 -41.5
t31.5 -50.5t16.5 -61.5t7 -65t1.5 -70.5v-356q0 -73 15.5 -94t68.5 -21h256z" />
    <glyph glyph-name="asciitilde" unicode="~" 
d="M844 289q-55 0 -107.5 24.5t-93 59.5t-78 69.5t-76.5 59t-75 24.5q-55 0 -75 -53.5t-20 -153.5l-196 68q0 152 82.5 248t206.5 96q50 0 96.5 -17.5t79.5 -43.5t65.5 -56.5t57.5 -56.5t53.5 -43.5t54.5 -17.5q42 0 60 48t18 154l207 -65q0 -158 -73.5 -251t-186.5 -93z
" />
    <glyph glyph-name="exclamdown" unicode="&#xa1;" 
d="M614 682q-67 0 -115 45.5t-48 110.5q0 64 47.5 109.5t115.5 45.5t116 -45.5t48 -109.5t-48 -110t-116 -46zM483 -311l15 886l233 41l14 -886z" />
    <glyph glyph-name="cent" unicode="&#xa2;" 
d="M707 182q108 45 157 172l199 -59q-52 -133 -146 -211.5t-221 -97.5l-18 -365h-213l20 375q-163 41 -263.5 169t-100.5 294q0 176 114 307t297 162l19 346h213l-19 -352q118 -28 200.5 -105t117.5 -196l-209 -64q-9 50 -40.5 91.5t-78.5 66.5zM340 459q0 -88 42.5 -159
t113.5 -107l26 542q-82 -28 -132 -102.5t-50 -173.5z" />
    <glyph glyph-name="sterling" unicode="&#xa3;" 
d="M492 197h620v-197h-987v197h6q34 10 67.5 27t70.5 45.5t60 72.5t23 98q0 32 -14 72h-258l55 180h111q-37 83 -37 152q0 191 131 314.5t330 123.5q174 0 285.5 -86.5t134.5 -241.5l-201 -53q-23 117 -71 163t-148 46q-105 0 -178.5 -75.5t-73.5 -190.5q0 -66 51 -152h453
l-56 -180h-297q13 -37 13 -72q0 -143 -90 -243z" />
    <glyph glyph-name="currency" unicode="&#xa4;" 
d="M1016 575q0 -106 -55 -196l157 -158l-135 -155l-170 167q-91 -51 -199 -51q-107 0 -198 51l-170 -167l-135 155l157 158q-55 90 -55 196q0 108 55 201l-159 158l143 149l166 -165q91 51 196 51q106 0 197 -51l166 165l143 -149l-159 -158q55 -93 55 -201zM432 575
q0 -78 53.5 -134t128.5 -56t129 56t54 134t-54 134.5t-129 56.5t-128.5 -56.5t-53.5 -134.5z" />
    <glyph glyph-name="yen" unicode="&#xa5;" 
d="M989 348h-268v-106h323l-55 -181h-268v-61h-229v61h-308l56 181h252v106h-308l56 180h229l-383 693l254 41l266 -519l262 498l275 21l-400 -734h301z" />
    <glyph glyph-name="brokenbar" unicode="&#xa6;" 
d="M508 733v705l213 41v-705zM508 -174v704l213 41v-704z" />
    <glyph glyph-name="copyright" unicode="&#xa9;" 
d="M612 88q-106 0 -203.5 41.5t-167.5 111.5t-111.5 167.5t-41.5 203.5q0 142 70 263t191 191.5t263 70.5q144 0 265 -70.5t190.5 -191.5t69.5 -263t-70.5 -263t-191.5 -191t-263 -70zM612 176q180 0 308.5 128t128.5 308q0 182 -128 309.5t-309 127.5q-180 0 -308 -128.5
t-128 -308.5t128 -308t308 -128zM608 276q-141 0 -240.5 98t-99.5 236q0 137 99.5 233.5t240.5 96.5q257 0 322 -227l-166 -51q-3 56 -49 95.5t-107 39.5q-72 0 -121 -54t-49 -133q0 -81 49 -135.5t121 -54.5q54 0 101.5 36.5t70.5 96.5l164 -64q-101 -213 -336 -213z" />
    <glyph glyph-name="guillemotleft" unicode="&#xab;" 
d="M813 512q123 -83 225 -176t136 -170l-177 -94q-22 53 -125.5 138.5t-201.5 147t-127 68.5l61 197q48 14 225 145.5t209 208.5l176 -94q-25 -56 -97 -128.5t-147.5 -131t-156.5 -111.5zM285 504q123 -82 224.5 -175.5t135.5 -170.5l-176 -95q-22 53 -125.5 138.5
t-202 147.5t-127.5 69l62 196q25 7 118.5 69t193.5 147.5t122 138.5l176 -95q-36 -81 -152.5 -182t-248.5 -188z" />
    <glyph glyph-name="logicalnot" unicode="&#xac;" 
d="M1024 631v-438l-197 -41v299h-622l55 180h764z" />
    <glyph glyph-name="registered" unicode="&#xae;" 
d="M612 1458q107 0 204.5 -41.5t167.5 -112t111.5 -167t41.5 -203.5q0 -142 -70.5 -263t-191.5 -191t-263 -70q-106 0 -203.5 41.5t-167.5 111.5t-111.5 167.5t-41.5 203.5t41.5 203.5t111.5 167.5t167.5 111.5t203.5 41.5zM612 498q180 0 308.5 128t128.5 308
q0 181 -128.5 308.5t-308.5 127.5t-308 -128t-128 -308t128 -308t308 -128zM899 1038q0 -53 -31.5 -99.5t-85.5 -78.5q103 -111 103 -233h-166q0 62 -48.5 124.5t-111.5 69.5v-194h-199v630h279q107 0 183.5 -63.5t76.5 -155.5zM559 1104v-127h80q27 0 44 18.5t17 42.5
q0 31 -16.5 48.5t-44.5 17.5h-80z" />
    <glyph glyph-name="degree" unicode="&#xb0;" 
d="M942 1110q0 -128 -96 -229q-92 -95 -234 -95q-134 0 -231 93q-96 93 -96 231q0 128 96 229q92 95 231 95q134 0 234 -93q96 -93 96 -231zM494 1110q0 -66 32 -105.5t86 -39.5t87.5 39.5t33.5 105.5t-33.5 105.5t-87.5 39.5t-86 -39.5t-32 -105.5z" />
    <glyph glyph-name="plusminus" unicode="&#xb1;" 
d="M713 815h393l-55 -180h-338v-344l-197 -41v385h-393l55 180h338v344l197 41v-385zM184 0l56 180h804l-55 -180h-805z" />
    <glyph glyph-name="periodcentered" unicode="&#xb7;" 
d="M625 356q-68 0 -116 46t-48 110t48 110t116 46q67 0 115 -45.5t48 -110.5t-48 -110.5t-115 -45.5z" />
    <glyph glyph-name="guillemotright" unicode="&#xbb;" 
d="M686 586l-61 -197q-25 -7 -118.5 -68.5t-194 -147t-122.5 -138.5l-176 94q36 81 153 182.5t249 188.5q-123 83 -225 176t-136 170l176 94q22 -53 125.5 -138.5t202 -147t127.5 -68.5zM760 940q22 -53 125.5 -138.5t201.5 -147t127 -68.5l-61 -197q-48 -14 -225 -145.5
t-209 -208.5l-176 94q25 56 97 128.5t147.5 131t156.5 111.5q-123 82 -224.5 175.5t-135.5 170.5z" />
    <glyph glyph-name="questiondown" unicode="&#xbf;" 
d="M633 975q68 0 116 -46t48 -110t-48 -109.5t-116 -45.5t-116 45.5t-48 109.5t48 110t116 46zM750 557q0 -62 -21 -117t-54.5 -96.5t-73.5 -79.5t-80.5 -70t-74 -62.5t-54.5 -64t-21 -67.5q0 -85 62.5 -141t182.5 -56q139 0 204 74.5t65 233.5q22 -7 111.5 -30t99.5 -24
q0 -51 -15 -107.5t-51 -117.5t-89 -109.5t-138 -80t-189 -31.5q-111 0 -197 26.5t-137 67t-83.5 96t-44 106.5t-11.5 105q0 52 20.5 99t53.5 83.5t72.5 71t79.5 67t73 66t53.5 74t20.5 84.5h236z" />
    <glyph glyph-name="Agrave" unicode="&#xc0;" 
d="M698 1386l-127 -43l-315 336l211 70zM33 0l469 1262l225 41l467 -1303h-229l-127 326h-451l-125 -326h-229zM453 522h321l-160 432z" />
    <glyph glyph-name="Aacute" unicode="&#xc1;" 
d="M551 1386l231 363l211 -70l-315 -336zM33 0l469 1262l225 41l467 -1303h-229l-127 326h-451l-125 -326h-229zM453 522h321l-160 432z" />
    <glyph glyph-name="Acircumflex" unicode="&#xc2;" 
d="M719 1782q0 -132 81.5 -207.5t229.5 -75.5l-84 -164q-111 0 -186 48t-129 135q-56 -89 -134 -136t-196 -47l-84 164q311 0 311 244zM33 0l469 1262l225 41l467 -1303h-229l-127 326h-451l-125 -326h-229zM453 522h321l-160 432z" />
    <glyph glyph-name="Atilde" unicode="&#xc3;" 
d="M260 1425q-7 99 55.5 168.5t155.5 69.5q33 0 69 -12.5t53 -22.5t54 -33q71 -47 96 -47q24 0 39.5 31t16.5 92l168 -53q6 -98 -59.5 -168t-155.5 -70q-29 0 -60.5 11t-48.5 21t-49 30q-85 55 -111 55q-25 0 -41.5 -35.5t-13.5 -89.5zM33 0l469 1262l225 41l467 -1303h-229
l-127 326h-451l-125 -326h-229zM453 522h321l-160 432z" />
    <glyph glyph-name="Adieresis" unicode="&#xc4;" 
d="M401 1352q-67 0 -115 48t-48 116t48 115.5t115 47.5q68 0 116 -48t48 -115q0 -68 -48.5 -116t-115.5 -48zM819 1352q-67 0 -115.5 48t-48.5 116q0 67 48 115t116 48t116 -48t48 -115q0 -68 -48.5 -116t-115.5 -48zM33 0l469 1262l225 41l467 -1303h-229l-127 326h-451
l-125 -326h-229zM453 522h321l-160 432z" />
    <glyph glyph-name="Aring" unicode="&#xc5;" 
d="M608 1358q-86 0 -143 56t-57 142t57.5 144.5t140.5 58.5q88 0 145.5 -56.5t57.5 -141.5q0 -88 -57.5 -145.5t-143.5 -57.5zM608 1475q35 0 59.5 24.5t24.5 59.5t-24.5 59t-59.5 24t-59.5 -24t-24.5 -59q0 -36 24 -60t60 -24zM33 0l469 1262l225 41l467 -1303h-229
l-127 326h-451l-125 -326h-229zM453 522h321l-160 432z" />
    <glyph glyph-name="AE" unicode="&#xc6;" 
d="M1229 1090h-430v-336h356l-55 -197h-301v-385h430v-197h-660v347h-194l-144 -347h-231l510 1311h719v-196zM440 518h129v326z" />
    <glyph glyph-name="Ccedilla" unicode="&#xc7;" 
d="M983 500l197 -86q-46 -156 -129 -244q-181 -190 -422 -190h-31q45 -23 72.5 -65.5t27.5 -98.5q0 -81 -53.5 -134t-144.5 -53q-85 0 -141 44t-56 108l133 29q0 -28 18 -45t44 -17q31 0 50 21t19 49q0 32 -26 54t-54 22q-16 0 -34 -11l-23 -18l-96 96l78 59
q-120 51 -209 150q-166 184 -166 461q0 289 166 467q172 184 426 184q104 0 181 -22.5t128 -59t113 -102.5q84 -90 123 -199l-211 -59q-43 129 -129 197.5t-205 68.5q-163 0 -263 -130t-100 -345q0 -212 100 -341.5t263 -129.5q135 0 229 90t125 250z" />
    <glyph glyph-name="Egrave" unicode="&#xc8;" 
d="M698 1386l-127 -43l-315 336l211 70zM1077 1069h-655v-319h582l-56 -193h-526v-362h655v-195h-884v1262h884v-193z" />
    <glyph glyph-name="Eacute" unicode="&#xc9;" 
d="M993 1700l-315 -336l-127 43l231 362zM1077 1069h-655v-319h582l-56 -193h-526v-362h655v-195h-884v1262h884v-193z" />
    <glyph glyph-name="Ecircumflex" unicode="&#xca;" 
d="M631 1518q-56 -89 -134 -136t-196 -47l-84 164q311 0 311 244l191 39q0 -132 81.5 -207.5t229.5 -75.5l-84 -164q-111 0 -186 48t-129 135zM1077 1069h-655v-319h582l-56 -193h-526v-362h655v-195h-884v1262h884v-193z" />
    <glyph glyph-name="Edieresis" unicode="&#xcb;" 
d="M401 1352q-67 0 -115 48t-48 116t48 115.5t115 47.5q68 0 116 -48t48 -115q0 -68 -48.5 -116t-115.5 -48zM819 1352q-67 0 -115.5 48t-48.5 116q0 67 48 115t116 48t116 -48t48 -115q0 -68 -48.5 -116t-115.5 -48zM1077 1069h-655v-319h582l-56 -193h-526v-362h655v-195
h-884v1262h884v-193z" />
    <glyph glyph-name="Igrave" unicode="&#xcc;" 
d="M698 1386l-127 -43l-315 336l211 70zM143 0l56 197h301v868h-357l56 197h878v-197h-348v-868h348v-197h-934z" />
    <glyph glyph-name="Iacute" unicode="&#xcd;" 
d="M551 1386l231 363l211 -70l-315 -336zM143 0l56 197h301v868h-357l56 197h878v-197h-348v-868h348v-197h-934z" />
    <glyph glyph-name="Icircumflex" unicode="&#xce;" 
d="M719 1782q0 -132 81.5 -207.5t229.5 -75.5l-84 -164q-111 0 -186 48t-129 135q-56 -89 -134 -136t-196 -47l-84 164q311 0 311 244zM143 0l56 197h301v868h-357l56 197h878v-197h-348v-868h348v-197h-934z" />
    <glyph glyph-name="Idieresis" unicode="&#xcf;" 
d="M422 1352q-68 0 -116 48t-48 116q0 67 48 115t116 48t116 -48t48 -115q0 -68 -48 -116t-116 -48zM840 1352q-68 0 -116 48t-48 116q0 67 48 115t116 48t116 -48t48 -115q0 -68 -48 -116t-116 -48zM143 0l56 197h301v868h-357l56 197h878v-197h-348v-868h348v-197h-934z
" />
    <glyph glyph-name="Eth" unicode="&#xd0;" 
d="M967 1081q172 -187 172 -458q0 -268 -172 -455q-155 -168 -422 -168h-416v553h-129l55 180h74v529h416q253 0 422 -181zM545 176q167 0 265.5 121t98.5 326q0 210 -99.5 337t-264.5 127h-187v-354h461l-55 -180h-406v-377h187z" />
    <glyph glyph-name="Ntilde" unicode="&#xd1;" 
d="M260 1425q-7 99 55.5 168.5t155.5 69.5q33 0 69 -12.5t53 -22.5t54 -33q71 -47 96 -47q24 0 39.5 31t16.5 92l168 -53q6 -98 -59.5 -168t-155.5 -70q-29 0 -60.5 11t-48.5 21t-49 30q-85 55 -111 55q-25 0 -41.5 -35.5t-13.5 -89.5zM109 1221l217 41l561 -850v809l229 41
v-1262h-217l-561 881v-881h-229v1221z" />
    <glyph glyph-name="Ograve" unicode="&#xd2;" 
d="M698 1386l-127 -43l-315 336l211 70zM612 -20q-258 0 -426 186q-166 187 -166 465q0 291 166 469q170 182 426 182q249 0 422 -182q172 -184 172 -469q0 -284 -172 -465q-180 -186 -422 -186zM612 168q160 0 258.5 128t98.5 337q0 211 -98 338t-259 127q-160 0 -259 -128
t-99 -337q0 -207 99 -336t259 -129z" />
    <glyph glyph-name="Oacute" unicode="&#xd3;" 
d="M551 1386l231 363l211 -70l-315 -336zM612 -20q-258 0 -426 186q-166 187 -166 465q0 291 166 469q170 182 426 182q249 0 422 -182q172 -184 172 -469q0 -284 -172 -465q-180 -186 -422 -186zM612 168q160 0 258.5 128t98.5 337q0 211 -98 338t-259 127
q-160 0 -259 -128t-99 -337q0 -207 99 -336t259 -129z" />
    <glyph glyph-name="Ocircumflex" unicode="&#xd4;" 
d="M719 1782q0 -132 81.5 -207.5t229.5 -75.5l-84 -164q-111 0 -186 48t-129 135q-56 -89 -134 -136t-196 -47l-84 164q311 0 311 244zM612 -20q-258 0 -426 186q-166 187 -166 465q0 291 166 469q170 182 426 182q249 0 422 -182q172 -184 172 -469q0 -284 -172 -465
q-180 -186 -422 -186zM612 168q160 0 258.5 128t98.5 337q0 211 -98 338t-259 127q-160 0 -259 -128t-99 -337q0 -207 99 -336t259 -129z" />
    <glyph glyph-name="Otilde" unicode="&#xd5;" 
d="M260 1425q-7 99 55.5 168.5t155.5 69.5q33 0 69 -12.5t53 -22.5t54 -33q71 -47 96 -47q24 0 39.5 31t16.5 92l168 -53q6 -98 -59.5 -168t-155.5 -70q-29 0 -60.5 11t-48.5 21t-49 30q-85 55 -111 55q-25 0 -41.5 -35.5t-13.5 -89.5zM612 -20q-258 0 -426 186
q-166 187 -166 465q0 291 166 469q170 182 426 182q249 0 422 -182q172 -184 172 -469q0 -284 -172 -465q-180 -186 -422 -186zM612 168q160 0 258.5 128t98.5 337q0 211 -98 338t-259 127q-160 0 -259 -128t-99 -337q0 -207 99 -336t259 -129z" />
    <glyph glyph-name="Odieresis" unicode="&#xd6;" 
d="M401 1352q-67 0 -115 48t-48 116t48 115.5t115 47.5q68 0 116 -48t48 -115q0 -68 -48.5 -116t-115.5 -48zM819 1352q-67 0 -115.5 48t-48.5 116q0 67 48 115t116 48t116 -48t48 -115q0 -68 -48.5 -116t-115.5 -48zM612 -20q-258 0 -426 186q-166 187 -166 465
q0 291 166 469q170 182 426 182q249 0 422 -182q172 -184 172 -469q0 -284 -172 -465q-180 -186 -422 -186zM612 168q160 0 258.5 128t98.5 337q0 211 -98 338t-259 127q-160 0 -259 -128t-99 -337q0 -207 99 -336t259 -129z" />
    <glyph glyph-name="multiply" unicode="&#xd7;" 
d="M1026 256l-166 -88l-239 240l-244 -244l-168 110l272 273l-278 278l166 88l239 -239l244 244l168 -111l-272 -272z" />
    <glyph glyph-name="Oslash" unicode="&#xd8;" 
d="M1034 1100q172 -184 172 -469q0 -284 -172 -465q-180 -186 -422 -186q-126 0 -235 47l-146 -250l-190 61l174 299q-16 13 -29 29q-166 187 -166 465q0 291 166 469q170 182 426 182q135 0 240 -51l113 192l190 -61l-141 -242zM254 633q0 -177 76 -301l426 733
q-62 33 -144 33q-160 0 -259 -128t-99 -337zM612 168q160 0 258.5 128t98.5 337q0 170 -68 293l-424 -729q66 -29 135 -29z" />
    <glyph glyph-name="Ugrave" unicode="&#xd9;" 
d="M698 1386l-127 -43l-315 336l211 70zM608 -20q-104 0 -187 28.5t-135 69.5t-89.5 107.5t-55 119t-27.5 129.5t-11 114.5t-1 96.5v559l230 58v-617v-2q0 -56 0.5 -86t6 -85t15.5 -87t30.5 -73.5t50 -64t75 -38.5t104.5 -16q58 0 103.5 16t75 38.5t50 64t30.5 73.5t15.5 87
t6 86t0.5 87v559l229 58v-617q0 -55 -1 -91.5t-11 -112.5t-28 -129.5t-56.5 -121t-91.5 -109.5t-137.5 -71.5t-190.5 -29.5z" />
    <glyph glyph-name="Uacute" unicode="&#xda;" 
d="M551 1386l231 363l211 -70l-315 -336zM608 -20q-104 0 -187 28.5t-135 69.5t-89.5 107.5t-55 119t-27.5 129.5t-11 114.5t-1 96.5v559l230 58v-617v-2q0 -56 0.5 -86t6 -85t15.5 -87t30.5 -73.5t50 -64t75 -38.5t104.5 -16q58 0 103.5 16t75 38.5t50 64t30.5 73.5
t15.5 87t6 86t0.5 87v559l229 58v-617q0 -55 -1 -91.5t-11 -112.5t-28 -129.5t-56.5 -121t-91.5 -109.5t-137.5 -71.5t-190.5 -29.5z" />
    <glyph glyph-name="Ucircumflex" unicode="&#xdb;" 
d="M719 1782q0 -132 81.5 -207.5t229.5 -75.5l-84 -164q-111 0 -186 48t-129 135q-56 -89 -134 -136t-196 -47l-84 164q311 0 311 244zM608 -20q-104 0 -187 28.5t-135 69.5t-89.5 107.5t-55 119t-27.5 129.5t-11 114.5t-1 96.5v559l230 58v-617v-2q0 -56 0.5 -86t6 -85
t15.5 -87t30.5 -73.5t50 -64t75 -38.5t104.5 -16q58 0 103.5 16t75 38.5t50 64t30.5 73.5t15.5 87t6 86t0.5 87v559l229 58v-617q0 -55 -1 -91.5t-11 -112.5t-28 -129.5t-56.5 -121t-91.5 -109.5t-137.5 -71.5t-190.5 -29.5z" />
    <glyph glyph-name="Udieresis" unicode="&#xdc;" 
d="M401 1352q-67 0 -115 48t-48 116t48 115.5t115 47.5q68 0 116 -48t48 -115q0 -68 -48.5 -116t-115.5 -48zM819 1352q-67 0 -115.5 48t-48.5 116q0 67 48 115t116 48t116 -48t48 -115q0 -68 -48.5 -116t-115.5 -48zM608 -20q-104 0 -187 28.5t-135 69.5t-89.5 107.5
t-55 119t-27.5 129.5t-11 114.5t-1 96.5v559l230 58v-617v-2q0 -56 0.5 -86t6 -85t15.5 -87t30.5 -73.5t50 -64t75 -38.5t104.5 -16q58 0 103.5 16t75 38.5t50 64t30.5 73.5t15.5 87t6 86t0.5 87v559l229 58v-617q0 -55 -1 -91.5t-11 -112.5t-28 -129.5t-56.5 -121
t-91.5 -109.5t-137.5 -71.5t-190.5 -29.5z" />
    <glyph glyph-name="Yacute" unicode="&#xdd;" 
d="M551 1386l231 363l211 -70l-315 -336zM86 1221l254 41l266 -519l262 498l275 21l-422 -775v-487h-229v487z" />
    <glyph glyph-name="Thorn" unicode="&#xde;" 
d="M653 1061q183 0 310 -121.5t127 -298.5q0 -108 -60 -203.5t-161.5 -152t-215.5 -56.5h-243v-172l-230 -57v1204l230 58v-201h243zM653 426q85 0 146 63.5t61 151.5q0 98 -58 160.5t-149 62.5h-243v-438h243z" />
    <glyph glyph-name="germandbls" unicode="&#xdf;" 
d="M868 680q45 -18 75.5 -36t64.5 -51t51.5 -85t17.5 -121q0 -180 -113 -293.5t-292 -113.5q-106 0 -186.5 42t-120.5 115v-137l-213 59v689q0 272 103.5 403t313.5 131q177 0 293.5 -101.5t116.5 -265.5q0 -80 -27.5 -135t-83.5 -100zM684 176q74 0 127 59.5t53 133.5
q0 60 -39.5 105t-92.5 65t-107 20h-189l53 193h54q223 0 223 163q0 88 -56.5 129t-140.5 41q-204 0 -204 -337v-461l163 51q0 -65 44.5 -113.5t111.5 -48.5z" />
    <glyph glyph-name="agrave" unicode="&#xe0;" 
d="M664 1075l-127 -43l-316 336l211 70zM471 -20q-166 0 -265.5 73.5t-99.5 206.5q0 158 154.5 227.5t466.5 69.5v64q0 86 -43 117.5t-141 31.5q-144 0 -228 -121l-149 92q125 195 409 195q75 0 135.5 -14.5t98 -36t65 -53.5t40 -58.5t19.5 -60.5t8 -49t1 -35v-365
q0 -73 39 -95t137 9l53 -158q-1 -4 -31.5 -13.5t-79 -18t-87.5 -8.5q-49 0 -86.5 13t-62 37.5t-36 41.5t-24.5 43q-73 -135 -293 -135zM473 152q54 0 98.5 14.5t72.5 37t44.5 44t24.5 41.5q14 35 14 108q-110 -1 -179 -6.5t-123 -20t-77.5 -41t-23.5 -69.5q0 -108 149 -108z
" />
    <glyph glyph-name="aacute" unicode="&#xe1;" 
d="M532 1079l232 363l211 -70l-316 -336zM471 -20q-166 0 -265.5 73.5t-99.5 206.5q0 158 154.5 227.5t466.5 69.5v64q0 86 -43 117.5t-141 31.5q-144 0 -228 -121l-149 92q125 195 409 195q75 0 135.5 -14.5t98 -36t65 -53.5t40 -58.5t19.5 -60.5t8 -49t1 -35v-365
q0 -73 39 -95t137 9l53 -158q-1 -4 -31.5 -13.5t-79 -18t-87.5 -8.5q-49 0 -86.5 13t-62 37.5t-36 41.5t-24.5 43q-73 -135 -293 -135zM473 152q54 0 98.5 14.5t72.5 37t44.5 44t24.5 41.5q14 35 14 108q-110 -1 -179 -6.5t-123 -20t-77.5 -41t-23.5 -69.5q0 -108 149 -108z
" />
    <glyph glyph-name="acircumflex" unicode="&#xe2;" 
d="M653 1438q0 -132 82 -207.5t230 -75.5l-84 -164q-111 0 -186.5 48t-129.5 135q-57 -90 -134 -136.5t-195 -46.5l-84 164q311 0 311 244zM471 -20q-166 0 -265.5 73.5t-99.5 206.5q0 158 154.5 227.5t466.5 69.5v64q0 86 -43 117.5t-141 31.5q-144 0 -228 -121l-149 92
q125 195 409 195q75 0 135.5 -14.5t98 -36t65 -53.5t40 -58.5t19.5 -60.5t8 -49t1 -35v-365q0 -73 39 -95t137 9l53 -158q-1 -4 -31.5 -13.5t-79 -18t-87.5 -8.5q-49 0 -86.5 13t-62 37.5t-36 41.5t-24.5 43q-73 -135 -293 -135zM473 152q54 0 98.5 14.5t72.5 37t44.5 44
t24.5 41.5q14 35 14 108q-110 -1 -179 -6.5t-123 -20t-77.5 -41t-23.5 -69.5q0 -108 149 -108z" />
    <glyph glyph-name="atilde" unicode="&#xe3;" 
d="M201 1100q0 106 59 171.5t152 65.5q42 0 94.5 -28.5t100.5 -57t77 -28.5q52 0 55 123l168 -54q0 -99 -63.5 -168t-151.5 -69q-40 0 -87.5 29t-94.5 58t-86 29q-35 0 -45 -29.5t-10 -94.5zM471 -20q-166 0 -265.5 73.5t-99.5 206.5q0 158 154.5 227.5t466.5 69.5v64
q0 86 -43 117.5t-141 31.5q-144 0 -228 -121l-149 92q125 195 409 195q75 0 135.5 -14.5t98 -36t65 -53.5t40 -58.5t19.5 -60.5t8 -49t1 -35v-365q0 -73 39 -95t137 9l53 -158q-1 -4 -31.5 -13.5t-79 -18t-87.5 -8.5q-49 0 -86.5 13t-62 37.5t-36 41.5t-24.5 43
q-73 -135 -293 -135zM473 152q54 0 98.5 14.5t72.5 37t44.5 44t24.5 41.5q14 35 14 108q-110 -1 -179 -6.5t-123 -20t-77.5 -41t-23.5 -69.5q0 -108 149 -108z" />
    <glyph glyph-name="adieresis" unicode="&#xe4;" 
d="M303 1116q-68 0 -116 46t-48 110t48 109.5t116 45.5t116 -45.5t48 -109.5t-48 -110t-116 -46zM721 1116q-68 0 -116 46t-48 110t48 109.5t116 45.5t116 -45.5t48 -109.5t-48 -110t-116 -46zM471 -20q-166 0 -265.5 73.5t-99.5 206.5q0 158 154.5 227.5t466.5 69.5v64
q0 86 -43 117.5t-141 31.5q-144 0 -228 -121l-149 92q125 195 409 195q75 0 135.5 -14.5t98 -36t65 -53.5t40 -58.5t19.5 -60.5t8 -49t1 -35v-365q0 -73 39 -95t137 9l53 -158q-1 -4 -31.5 -13.5t-79 -18t-87.5 -8.5q-49 0 -86.5 13t-62 37.5t-36 41.5t-24.5 43
q-73 -135 -293 -135zM473 152q54 0 98.5 14.5t72.5 37t44.5 44t24.5 41.5q14 35 14 108q-110 -1 -179 -6.5t-123 -20t-77.5 -41t-23.5 -69.5q0 -108 149 -108z" />
    <glyph glyph-name="aring" unicode="&#xe5;" 
d="M555 1014q-89 0 -149 59t-60 148t60 150t147 61q90 0 150.5 -59.5t60.5 -147.5q0 -91 -60 -151t-149 -60zM555 1143q34 0 57 23t23 57t-23 57t-57 23t-57 -23t-23 -57q0 -35 23 -57.5t57 -22.5zM471 -20q-166 0 -265.5 73.5t-99.5 206.5q0 158 154.5 227.5t466.5 69.5v64
q0 86 -43 117.5t-141 31.5q-144 0 -228 -121l-149 92q125 195 409 195q75 0 135.5 -14.5t98 -36t65 -53.5t40 -58.5t19.5 -60.5t8 -49t1 -35v-365q0 -73 39 -95t137 9l53 -158q-1 -4 -31.5 -13.5t-79 -18t-87.5 -8.5q-49 0 -86.5 13t-62 37.5t-36 41.5t-24.5 43
q-73 -135 -293 -135zM473 152q54 0 98.5 14.5t72.5 37t44.5 44t24.5 41.5q14 35 14 108q-110 -1 -179 -6.5t-123 -20t-77.5 -41t-23.5 -69.5q0 -108 149 -108z" />
    <glyph glyph-name="ae" unicode="&#xe6;" 
d="M1059 328l168 -74q-33 -73 -72 -125t-75 -80.5t-80.5 -44.5t-77.5 -20t-76 -4q-167 0 -271 129q-52 -57 -126 -93t-144 -36q-140 0 -221.5 70.5t-81.5 193.5q0 358 469 358q0 87 -26.5 120.5t-106.5 33.5q-48 0 -110 -41.5t-81 -100.5l-133 103q40 90 135 153.5t189 63.5
q197 0 270 -107q99 107 238 107q183 0 283.5 -144t95.5 -397h-572q8 -101 64.5 -173.5t128.5 -72.5q81 0 131.5 39.5t81.5 141.5zM846 770q-66 0 -125 -67.5t-66 -153.5h365q-10 105 -56 163t-118 58zM465 311q11 55 6 135q-147 -4 -206.5 -50t-59.5 -152q0 -92 100 -92
q62 0 105 48.5t55 110.5z" />
    <glyph glyph-name="ccedilla" unicode="&#xe7;" 
d="M612 166q87 0 152.5 49t99.5 139l199 -59q-59 -148 -166.5 -228.5t-255.5 -86.5l-39 -31q52 -21 84.5 -65.5t32.5 -106.5q0 -80 -54 -133.5t-145 -53.5q-85 0 -140.5 44t-55.5 108l133 29q0 -28 17.5 -45t43.5 -17q31 0 50.5 21t19.5 49q0 32 -26 54t-54 22
q-17 0 -35 -11l-22 -18l-97 96l107 80q-153 47 -246.5 172.5t-93.5 284.5q0 199 143 337t361 138q163 0 278.5 -82t159.5 -231l-209 -64q-13 81 -85 136t-163 55q-114 0 -190 -82.5t-76 -206.5t77 -208.5t195 -84.5z" />
    <glyph glyph-name="egrave" unicode="&#xe8;" 
d="M653 1079l-127 -43l-315 336l211 70zM104 481q0 121 63.5 224t182.5 166t268 63q238 0 369 -143.5t131 -397.5h-813q14 -103 95.5 -165t215.5 -62q44 0 74.5 4t71 17.5t76 45.5t65.5 82l166 -84q-141 -251 -453 -251q-101 0 -186.5 29t-144.5 78t-100.5 114t-61 136
t-19.5 144zM305 549h594q0 77 -81 145t-210 68q-122 0 -205.5 -60.5t-97.5 -152.5z" />
    <glyph glyph-name="eacute" unicode="&#xe9;" 
d="M489 1079l232 363l211 -70l-316 -336zM104 481q0 121 63.5 224t182.5 166t268 63q238 0 369 -143.5t131 -397.5h-813q14 -103 95.5 -165t215.5 -62q44 0 74.5 4t71 17.5t76 45.5t65.5 82l166 -84q-141 -251 -453 -251q-101 0 -186.5 29t-144.5 78t-100.5 114t-61 136
t-19.5 144zM305 549h594q0 77 -81 145t-210 68q-122 0 -205.5 -60.5t-97.5 -152.5z" />
    <glyph glyph-name="ecircumflex" unicode="&#xea;" 
d="M719 1438q0 -132 81.5 -207.5t229.5 -75.5l-84 -164q-111 0 -186 48t-129 135q-56 -89 -134 -136t-196 -47l-84 164q311 0 311 244zM104 481q0 121 63.5 224t182.5 166t268 63q238 0 369 -143.5t131 -397.5h-813q14 -103 95.5 -165t215.5 -62q44 0 74.5 4t71 17.5
t76 45.5t65.5 82l166 -84q-141 -251 -453 -251q-101 0 -186.5 29t-144.5 78t-100.5 114t-61 136t-19.5 144zM305 549h594q0 77 -81 145t-210 68q-122 0 -205.5 -60.5t-97.5 -152.5z" />
    <glyph glyph-name="edieresis" unicode="&#xeb;" 
d="M389 1116q-68 0 -116 46t-48 110t48 109.5t116 45.5t116 -45.5t48 -109.5t-48 -110t-116 -46zM807 1116q-68 0 -116 46t-48 110t48 109.5t116 45.5t116 -45.5t48 -109.5t-48 -110t-116 -46zM104 481q0 121 63.5 224t182.5 166t268 63q238 0 369 -143.5t131 -397.5h-813
q14 -103 95.5 -165t215.5 -62q44 0 74.5 4t71 17.5t76 45.5t65.5 82l166 -84q-141 -251 -453 -251q-101 0 -186.5 29t-144.5 78t-100.5 114t-61 136t-19.5 144zM305 549h594q0 77 -81 145t-210 68q-122 0 -205.5 -60.5t-97.5 -152.5z" />
    <glyph glyph-name="igrave" unicode="&#xec;" 
d="M653 1038l-127 -43l-315 336l211 70zM168 0l55 180h320v553h-334l55 180h488v-733h362v-180h-946z" />
    <glyph glyph-name="iacute" unicode="&#xed;" 
d="M489 1038l232 363l211 -70l-316 -336zM168 0l55 180h320v553h-334l55 180h488v-733h362v-180h-946z" />
    <glyph glyph-name="icircumflex" unicode="&#xee;" 
d="M719 1438q0 -132 81.5 -207.5t229.5 -75.5l-84 -164q-111 0 -186 48t-129 135q-56 -89 -134 -136t-196 -47l-84 164q311 0 311 244zM168 0l55 180h320v553h-334l55 180h488v-733h362v-180h-946z" />
    <glyph glyph-name="idieresis" unicode="&#xef;" 
d="M389 1116q-68 0 -116 46t-48 110t48 109.5t116 45.5t116 -45.5t48 -109.5t-48 -110t-116 -46zM807 1116q-68 0 -116 46t-48 110t48 109.5t116 45.5t116 -45.5t48 -109.5t-48 -110t-116 -46zM168 0l55 180h320v553h-334l55 180h488v-733h362v-180h-946z" />
    <glyph glyph-name="ntilde" unicode="&#xf1;" 
d="M260 1100q0 106 59 171.5t152 65.5q42 0 94.5 -28.5t100.5 -57t77 -28.5q24 0 39.5 31t16.5 92l168 -54q0 -99 -63.5 -168t-151.5 -69q-40 0 -87.5 29l-95 58t-86.5 29q-35 0 -45 -29.5t-10 -94.5zM141 0v913h140l38 -239q15 46 42 88.5t69 82.5t104 64.5t136 24.5
q45 0 91 -8t103 -33.5t100.5 -66t73 -113.5t29.5 -168v-545h-215v487q0 67 -17 117t-40 75.5t-55 41t-54.5 19t-46.5 3.5q-32 0 -64.5 -7t-70.5 -27.5t-66.5 -53t-47.5 -90t-19 -131.5v-434h-230z" />
    <glyph glyph-name="ograve" unicode="&#xf2;" 
d="M653 1038l-127 -43l-315 336l211 70zM614 -20q-202 0 -342 137q-137 134 -137 340q0 216 137 344q139 133 342 133q205 0 340 -135q140 -140 140 -342q0 -209 -140 -340q-143 -137 -340 -137zM616 152q117 0 189 83.5t72 221.5q0 139 -72 224t-189 85q-119 0 -191.5 -85
t-72.5 -224q0 -138 72.5 -221.5t191.5 -83.5z" />
    <glyph glyph-name="oacute" unicode="&#xf3;" 
d="M489 1038l232 363l211 -70l-316 -336zM614 -20q-202 0 -342 137q-137 134 -137 340q0 216 137 344q139 133 342 133q205 0 340 -135q140 -140 140 -342q0 -209 -140 -340q-143 -137 -340 -137zM616 152q117 0 189 83.5t72 221.5q0 139 -72 224t-189 85q-119 0 -191.5 -85
t-72.5 -224q0 -138 72.5 -221.5t191.5 -83.5z" />
    <glyph glyph-name="ocircumflex" unicode="&#xf4;" 
d="M719 1438q0 -132 81.5 -207.5t229.5 -75.5l-84 -164q-111 0 -186 48t-129 135q-56 -89 -134 -136t-196 -47l-84 164q311 0 311 244zM614 -20q-202 0 -342 137q-137 134 -137 340q0 216 137 344q139 133 342 133q205 0 340 -135q140 -140 140 -342q0 -209 -140 -340
q-143 -137 -340 -137zM616 152q117 0 189 83.5t72 221.5q0 139 -72 224t-189 85q-119 0 -191.5 -85t-72.5 -224q0 -138 72.5 -221.5t191.5 -83.5z" />
    <glyph glyph-name="otilde" unicode="&#xf5;" 
d="M260 1100q0 106 59 171.5t152 65.5q42 0 94.5 -28.5t100.5 -57t77 -28.5q24 0 39.5 31t16.5 92l168 -54q0 -99 -63.5 -168t-151.5 -69q-40 0 -87.5 29l-95 58t-86.5 29q-35 0 -45 -29.5t-10 -94.5zM614 -20q-202 0 -342 137q-137 134 -137 340q0 216 137 344
q139 133 342 133q205 0 340 -135q140 -140 140 -342q0 -209 -140 -340q-143 -137 -340 -137zM616 152q117 0 189 83.5t72 221.5q0 139 -72 224t-189 85q-119 0 -191.5 -85t-72.5 -224q0 -138 72.5 -221.5t191.5 -83.5z" />
    <glyph glyph-name="odieresis" unicode="&#xf6;" 
d="M389 1116q-68 0 -116 46t-48 110t48 109.5t116 45.5t116 -45.5t48 -109.5t-48 -110t-116 -46zM807 1116q-68 0 -116 46t-48 110t48 109.5t116 45.5t116 -45.5t48 -109.5t-48 -110t-116 -46zM614 -20q-202 0 -342 137q-137 134 -137 340q0 216 137 344q139 133 342 133
q205 0 340 -135q140 -140 140 -342q0 -209 -140 -340q-143 -137 -340 -137zM616 152q117 0 189 83.5t72 221.5q0 139 -72 224t-189 85q-119 0 -191.5 -85t-72.5 -224q0 -138 72.5 -221.5t191.5 -83.5z" />
    <glyph glyph-name="divide" unicode="&#xf7;" 
d="M614 682q-67 0 -115 45.5t-48 110.5q0 64 47.5 109.5t115.5 45.5t116 -45.5t48 -109.5t-48 -110t-116 -46zM240 631h804l-55 -180h-805zM614 96q-67 0 -115 45.5t-48 110.5t48 110.5t115 45.5q68 0 116 -46t48 -110t-48 -110t-116 -46z" />
    <glyph glyph-name="oslash" unicode="&#xf8;" 
d="M932 819q8 -6 22 -20q140 -140 140 -342q0 -209 -140 -340q-143 -137 -340 -137q-84 0 -155 24l-90 -154h-213l141 244q-8 6 -25 23q-137 134 -137 340q0 216 137 344q139 133 342 133q81 0 158 -25l111 191h213zM352 457q0 -113 47 -187l285 488q-31 8 -68 8
q-119 0 -191.5 -85t-72.5 -224zM616 152q117 0 189 83.5t72 221.5q0 107 -46 188l-282 -485q27 -8 67 -8z" />
    <glyph glyph-name="ugrave" unicode="&#xf9;" 
d="M653 1038l-127 -43l-315 336l211 70zM1067 934v-934h-139l-39 240q-15 -46 -42 -88.5t-68.5 -82.5t-103.5 -64.5t-136 -24.5q-45 0 -91 8t-103.5 33.5t-100.5 66t-73 113.5t-30 168v524l215 41v-508q0 -69 22.5 -121.5t58 -80.5t72.5 -41t73 -13q27 0 57 7t66.5 27.5
t65 53t48 90t19.5 131.5v414z" />
    <glyph glyph-name="uacute" unicode="&#xfa;" 
d="M489 1038l232 363l211 -70l-316 -336zM1067 934v-934h-139l-39 240q-15 -46 -42 -88.5t-68.5 -82.5t-103.5 -64.5t-136 -24.5q-45 0 -91 8t-103.5 33.5t-100.5 66t-73 113.5t-30 168v524l215 41v-508q0 -69 22.5 -121.5t58 -80.5t72.5 -41t73 -13q27 0 57 7t66.5 27.5
t65 53t48 90t19.5 131.5v414z" />
    <glyph glyph-name="ucircumflex" unicode="&#xfb;" 
d="M719 1438q0 -132 81.5 -207.5t229.5 -75.5l-84 -164q-111 0 -186 48t-129 135q-56 -89 -134 -136t-196 -47l-84 164q311 0 311 244zM1067 934v-934h-139l-39 240q-15 -46 -42 -88.5t-68.5 -82.5t-103.5 -64.5t-136 -24.5q-45 0 -91 8t-103.5 33.5t-100.5 66t-73 113.5
t-30 168v524l215 41v-508q0 -69 22.5 -121.5t58 -80.5t72.5 -41t73 -13q27 0 57 7t66.5 27.5t65 53t48 90t19.5 131.5v414z" />
    <glyph glyph-name="udieresis" unicode="&#xfc;" 
d="M389 1116q-68 0 -116 46t-48 110t48 109.5t116 45.5t116 -45.5t48 -109.5t-48 -110t-116 -46zM807 1116q-68 0 -116 46t-48 110t48 109.5t116 45.5t116 -45.5t48 -109.5t-48 -110t-116 -46zM1067 934v-934h-139l-39 240q-15 -46 -42 -88.5t-68.5 -82.5t-103.5 -64.5
t-136 -24.5q-45 0 -91 8t-103.5 33.5t-100.5 66t-73 113.5t-30 168v524l215 41v-508q0 -69 22.5 -121.5t58 -80.5t72.5 -41t73 -13q27 0 57 7t66.5 27.5t65 53t48 90t19.5 131.5v414z" />
    <glyph glyph-name="yacute" unicode="&#xfd;" 
d="M950 1329l-315 -336l-127 43l231 363zM838 893l229 41v-934q0 -60 -11 -114.5t-41 -110t-77 -95.5t-126 -65t-181 -25q-82 0 -148 17t-108.5 44.5t-71.5 64t-41 73.5t-12 76l180 59q0 -74 53 -118t154 -44q37 0 66.5 5.5t50 18.5t35.5 25.5t24 35t14.5 38.5t7.5 44.5
t2.5 44.5t0.5 46v117q-107 -157 -299 -157q-45 0 -91 8t-103.5 33.5t-100.5 66t-73 113.5t-30 168v524l215 41v-508q0 -69 22.5 -121.5t58 -80.5t72.5 -41t73 -13q27 0 57 7t66.5 27.5t65 53t48 90t19.5 131.5v414z" />
    <glyph glyph-name="thorn" unicode="&#xfe;" 
d="M623 983q211 0 347 -140.5t136 -359.5q0 -233 -130 -368t-353 -135q-154 0 -271 104v-446l-209 -58v1641l209 41v-383q117 104 271 104zM623 176q119 0 186.5 81.5t67.5 225.5q0 146 -66 224.5t-188 78.5q-113 0 -192 -88.5t-79 -214.5q0 -125 81 -216t190 -91z" />
    <glyph glyph-name="ydieresis" unicode="&#xff;" 
d="M365 1116q-68 0 -116 46t-48 110t48 109.5t116 45.5t115.5 -45.5t47.5 -109.5q0 -65 -48 -110.5t-115 -45.5zM782 1116q-68 0 -116 46t-48 110t48 109.5t116 45.5t116 -45.5t48 -109.5t-48 -110t-116 -46zM838 893l229 41v-934q0 -60 -11 -114.5t-41 -110t-77 -95.5
t-126 -65t-181 -25q-82 0 -148 17t-108.5 44.5t-71.5 64t-41 73.5t-12 76l180 59q0 -74 53 -118t154 -44q37 0 66.5 5.5t50 18.5t35.5 25.5t24 35t14.5 38.5t7.5 44.5t2.5 44.5t0.5 46v117q-107 -157 -299 -157q-45 0 -91 8t-103.5 33.5t-100.5 66t-73 113.5t-30 168v524
l215 41v-508q0 -69 22.5 -121.5t58 -80.5t72.5 -41t73 -13q27 0 57 7t66.5 27.5t65 53t48 90t19.5 131.5v414z" />
    <glyph glyph-name="Amacron" unicode="&#x100;" 
d="M301 1552h723l-55 -180h-723zM33 0l469 1262l225 41l467 -1303h-229l-127 326h-451l-125 -326h-229zM453 522h321l-160 432z" />
    <glyph glyph-name="amacron" unicode="&#x101;" 
d="M301 1206h682l-55 -180h-682zM471 -20q-166 0 -265.5 73.5t-99.5 206.5q0 158 154.5 227.5t466.5 69.5v64q0 86 -43 117.5t-141 31.5q-144 0 -228 -121l-149 92q125 195 409 195q75 0 135.5 -14.5t98 -36t65 -53.5t40 -58.5t19.5 -60.5t8 -49t1 -35v-365q0 -73 39 -95
t137 9l53 -158q-1 -4 -31.5 -13.5t-79 -18t-87.5 -8.5q-49 0 -86.5 13t-62 37.5t-36 41.5t-24.5 43q-73 -135 -293 -135zM473 152q54 0 98.5 14.5t72.5 37t44.5 44t24.5 41.5q14 35 14 108q-110 -1 -179 -6.5t-123 -20t-77.5 -41t-23.5 -69.5q0 -108 149 -108z" />
    <glyph glyph-name="Abreve" unicode="&#x102;" 
d="M647 1360q-73 0 -128.5 22t-85 52t-48.5 71t-24.5 70.5t-6.5 58.5l178 58q3 -168 132 -168q44 0 70 29.5t28 80.5l192 58q-3 -158 -83.5 -245t-223.5 -87zM33 0l469 1262l225 41l467 -1303h-229l-127 326h-451l-125 -326h-229zM453 522h321l-160 432z" />
    <glyph glyph-name="abreve" unicode="&#x103;" 
d="M606 1032q-73 0 -128.5 22t-85 52.5t-48.5 71.5t-24.5 70.5t-6.5 58.5l179 57q3 -168 131 -168q44 0 70 30t28 81l192 57q-3 -158 -83.5 -245t-223.5 -87zM471 -20q-166 0 -265.5 73.5t-99.5 206.5q0 158 154.5 227.5t466.5 69.5v64q0 86 -43 117.5t-141 31.5
q-144 0 -228 -121l-149 92q125 195 409 195q75 0 135.5 -14.5t98 -36t65 -53.5t40 -58.5t19.5 -60.5t8 -49t1 -35v-365q0 -73 39 -95t137 9l53 -158q-1 -4 -31.5 -13.5t-79 -18t-87.5 -8.5q-49 0 -86.5 13t-62 37.5t-36 41.5t-24.5 43q-73 -135 -293 -135zM473 152
q54 0 98.5 14.5t72.5 37t44.5 44t24.5 41.5q14 35 14 108q-110 -1 -179 -6.5t-123 -20t-77.5 -41t-23.5 -69.5q0 -108 149 -108z" />
    <glyph glyph-name="Aogonek" unicode="&#x104;" 
d="M952 -195q0 -38 36.5 -52t78.5 -7.5t66 23.5l57 -162q-82 -44 -164.5 -50.5t-145 20t-102 84.5t-39.5 136q0 91 49.5 168.5t139.5 130.5l-90 230h-451l-125 -326h-229l469 1262l225 41l406 -1133q2 2 6 2l12 -53l43 -119h-74q-29 -13 -55 -29t-53 -40.5t-43.5 -57
t-16.5 -68.5zM453 522h321l-160 432z" />
    <glyph glyph-name="aogonek" unicode="&#x105;" 
d="M1051 -14q-140 -73 -140 -181q0 -38 36.5 -52t78.5 -7.5t66 23.5l57 -162q-82 -44 -164.5 -50.5t-145 20t-102 84.5t-39.5 136q0 140 113 244q-22 24 -47 74q-73 -135 -293 -135q-166 0 -265.5 73.5t-99.5 206.5q0 158 154.5 227.5t466.5 69.5v64q0 86 -43 117.5
t-141 31.5q-144 0 -228 -121l-149 92q125 195 409 195q75 0 135.5 -14.5t98 -36t65 -53.5t40 -58.5t19.5 -60.5t8 -49t1 -35v-365q0 -57 25 -83.5t80 -20.5l51 12l20 6l53 -158q-1 -3 -17.5 -9t-44.5 -13t-58 -12zM713 289q14 35 14 108q-110 -1 -179 -6.5t-123 -20
t-77.5 -41t-23.5 -69.5q0 -108 149 -108q54 0 98.5 14.5t72.5 37t44.5 44t24.5 41.5z" />
    <glyph glyph-name="Cacute" unicode="&#x106;" 
d="M551 1386l231 363l211 -70l-315 -336zM37 631q0 289 166 467q172 184 426 184q104 0 181 -22.5t128 -59t113 -102.5q84 -90 123 -199l-211 -59q-43 129 -129 197.5t-205 68.5q-163 0 -263 -130t-100 -345q0 -212 100 -341.5t263 -129.5q135 0 229 90t125 250l197 -86
q-46 -156 -129 -244q-181 -190 -422 -190q-255 0 -426 190q-166 184 -166 461z" />
    <glyph glyph-name="cacute" unicode="&#x107;" 
d="M551 1079l231 363l211 -70l-315 -336zM121 459q0 199 143 337t361 138q163 0 278.5 -82t159.5 -231l-209 -64q-13 81 -85 136t-163 55q-114 0 -190 -82.5t-76 -206.5t77 -208.5t195 -84.5q87 0 152.5 49t99.5 139l199 -59q-60 -153 -174.5 -234t-270.5 -81
q-213 0 -355 139.5t-142 339.5z" />
    <glyph glyph-name="Cdotaccent" unicode="&#x10a;" 
d="M614 1372q-67 0 -115 45.5t-48 110.5q0 64 47.5 109.5t115.5 45.5t116 -45.5t48 -109.5t-48 -110t-116 -46zM37 631q0 289 166 467q172 184 426 184q104 0 181 -22.5t128 -59t113 -102.5q84 -90 123 -199l-211 -59q-43 129 -129 197.5t-205 68.5q-163 0 -263 -130
t-100 -345q0 -212 100 -341.5t263 -129.5q135 0 229 90t125 250l197 -86q-46 -156 -129 -244q-181 -190 -422 -190q-255 0 -426 190q-166 184 -166 461z" />
    <glyph glyph-name="cdotaccent" unicode="&#x10b;" 
d="M614 1108q-67 0 -115 45.5t-48 110.5q0 64 47.5 109.5t115.5 45.5t116 -45.5t48 -109.5t-48 -110t-116 -46zM121 459q0 199 143 337t361 138q163 0 278.5 -82t159.5 -231l-209 -64q-13 81 -85 136t-163 55q-114 0 -190 -82.5t-76 -206.5t77 -208.5t195 -84.5
q87 0 152.5 49t99.5 139l199 -59q-60 -153 -174.5 -234t-270.5 -81q-213 0 -355 139.5t-142 339.5z" />
    <glyph glyph-name="Ccaron" unicode="&#x10c;" 
d="M528 1364q0 132 -81.5 207.5t-229.5 75.5l84 163q111 0 186 -47.5t129 -134.5q56 89 134 135.5t196 46.5l84 -163q-311 0 -311 -244zM37 631q0 289 166 467q172 184 426 184q104 0 181 -22.5t128 -59t113 -102.5q84 -90 123 -199l-211 -59q-43 129 -129 197.5t-205 68.5
q-163 0 -263 -130t-100 -345q0 -212 100 -341.5t263 -129.5q135 0 229 90t125 250l197 -86q-46 -156 -129 -244q-181 -190 -422 -190q-255 0 -426 190q-166 184 -166 461z" />
    <glyph glyph-name="ccaron" unicode="&#x10d;" 
d="M518 1036q0 132 -81.5 207.5t-229.5 75.5l84 164q111 0 186 -48t129 -135q56 89 134 136t196 47l84 -164q-311 0 -311 -244zM121 459q0 199 143 337t361 138q163 0 278.5 -82t159.5 -231l-209 -64q-13 81 -85 136t-163 55q-114 0 -190 -82.5t-76 -206.5t77 -208.5
t195 -84.5q87 0 152.5 49t99.5 139l199 -59q-60 -153 -174.5 -234t-270.5 -81q-213 0 -355 139.5t-142 339.5z" />
    <glyph glyph-name="Dcaron" unicode="&#x10e;" 
d="M528 1364q0 132 -81.5 207.5t-229.5 75.5l84 163q111 0 186 -47.5t129 -134.5q56 89 134 135.5t196 46.5l84 -163q-311 0 -311 -244zM967 1081q172 -187 172 -458q0 -268 -172 -455q-155 -168 -422 -168h-416v1262h416q253 0 422 -181zM545 176q167 0 265.5 121t98.5 326
q0 210 -99.5 337t-264.5 127h-187v-911h187z" />
    <glyph glyph-name="dcaron" unicode="&#x10f;" 
d="M1438 1401l211 -70l-316 -336l-127 43zM838 836v426l217 41v-1303h-170l-29 94q-117 -114 -274 -114q-201 0 -331 133t-130 342q0 222 124 350.5t337 128.5q144 0 256 -98zM582 166q106 0 181 84.5t75 204.5q0 119 -76.5 206t-179.5 87q-114 0 -178 -78t-64 -215
q0 -138 62.5 -213.5t179.5 -75.5z" />
    <glyph glyph-name="Dcroat" unicode="&#x110;" 
d="M967 1081q172 -187 172 -458q0 -268 -172 -455q-155 -168 -422 -168h-416v553h-129l55 180h74v529h416q253 0 422 -181zM545 176q167 0 265.5 121t98.5 326q0 210 -99.5 337t-264.5 127h-187v-354h461l-55 -180h-406v-377h187z" />
    <glyph glyph-name="dcroat" unicode="&#x111;" 
d="M1249 1202l-55 -180h-139v-1022h-170l-29 94q-117 -114 -274 -114q-201 0 -331 133t-130 342q0 222 124 350.5t337 128.5q144 0 256 -98v186h-408l55 180h353v60l217 41v-101h194zM582 166q106 0 181 84.5t75 204.5q0 119 -76.5 206t-179.5 87q-114 0 -178 -78t-64 -215
q0 -138 62.5 -213.5t179.5 -75.5z" />
    <glyph glyph-name="Emacron" unicode="&#x112;" 
d="M1004 1552l-56 -180h-723l56 180h723zM1077 1069h-655v-319h582l-56 -193h-526v-362h655v-195h-884v1262h884v-193z" />
    <glyph glyph-name="emacron" unicode="&#x113;" 
d="M301 1206h682l-55 -180h-682zM104 481q0 121 63.5 224t182.5 166t268 63q238 0 369 -143.5t131 -397.5h-813q14 -103 95.5 -165t215.5 -62q44 0 74.5 4t71 17.5t76 45.5t65.5 82l166 -84q-141 -251 -453 -251q-101 0 -186.5 29t-144.5 78t-100.5 114t-61 136t-19.5 144z
M305 549h594q0 77 -81 145t-210 68q-122 0 -205.5 -60.5t-97.5 -152.5z" />
    <glyph glyph-name="Edotaccent" unicode="&#x116;" 
d="M614 1372q-67 0 -115 45.5t-48 110.5q0 64 47.5 109.5t115.5 45.5t116 -45.5t48 -109.5t-48 -110t-116 -46zM1077 1069h-655v-319h582l-56 -193h-526v-362h655v-195h-884v1262h884v-193z" />
    <glyph glyph-name="edotaccent" unicode="&#x117;" 
d="M614 1108q-67 0 -115 45.5t-48 110.5q0 64 47.5 109.5t115.5 45.5t116 -45.5t48 -109.5t-48 -110t-116 -46zM104 481q0 121 63.5 224t182.5 166t268 63q238 0 369 -143.5t131 -397.5h-813q14 -103 95.5 -165t215.5 -62q44 0 74.5 4t71 17.5t76 45.5t65.5 82l166 -84
q-141 -251 -453 -251q-101 0 -186.5 29t-144.5 78t-100.5 114t-61 136t-19.5 144zM305 549h594q0 77 -81 145t-210 68q-122 0 -205.5 -60.5t-97.5 -152.5z" />
    <glyph glyph-name="Eogonek" unicode="&#x118;" 
d="M1077 1069h-655v-319h582l-56 -193h-526v-362h655v-195h-30q-17 -5 -39.5 -14t-54.5 -27.5t-57.5 -41t-43.5 -56.5t-18 -72t36 -52.5t78 -8t66 23.5l57 -162q-65 -35 -132 -47t-123 0.5t-100.5 43t-69.5 81.5t-25 113q0 125 88 219h-516v1262h884v-193z" />
    <glyph glyph-name="eogonek" unicode="&#x119;" 
d="M1034 -154l131 -112q-65 -105 -159.5 -152t-184 -22.5t-141.5 114.5q-80 142 -10 308q-18 -2 -54 -2q-101 0 -186.5 29t-144.5 78t-100.5 114t-61 136t-19.5 144q0 121 63.5 224t182.5 166t268 63q238 0 369 -143.5t131 -397.5h-813q14 -103 95.5 -165t215.5 -62
q44 0 74.5 4t71 17.5t76 45.5t65.5 82l166 -84q-51 -92 -125 -149q-10 -9 -25.5 -27.5t-35 -51t-32 -66t-12 -74.5t20.5 -76q23 -33 58.5 -26.5t69.5 33t46 52.5zM608 762q-122 0 -205.5 -60.5t-97.5 -152.5h594q0 77 -81 145t-210 68z" />
    <glyph glyph-name="Ecaron" unicode="&#x11a;" 
d="M528 1364q0 132 -81.5 207.5t-229.5 75.5l84 163q111 0 186 -47.5t129 -134.5q56 89 134 135.5t196 46.5l84 -163q-311 0 -311 -244zM1077 1069h-655v-319h582l-56 -193h-526v-362h655v-195h-884v1262h884v-193z" />
    <glyph glyph-name="ecaron" unicode="&#x11b;" 
d="M518 1036q0 132 -81.5 207.5t-229.5 75.5l84 164q111 0 186 -48t129 -135q56 89 134 136t196 47l84 -164q-311 0 -311 -244zM104 481q0 121 63.5 224t182.5 166t268 63q238 0 369 -143.5t131 -397.5h-813q14 -103 95.5 -165t215.5 -62q44 0 74.5 4t71 17.5t76 45.5
t65.5 82l166 -84q-141 -251 -453 -251q-101 0 -186.5 29t-144.5 78t-100.5 114t-61 136t-19.5 144zM305 549h594q0 77 -81 145t-210 68q-122 0 -205.5 -60.5t-97.5 -152.5z" />
    <glyph glyph-name="Gbreve" unicode="&#x11e;" 
d="M647 1360q-73 0 -128.5 22t-85 52t-48.5 71t-24.5 70.5t-6.5 58.5l178 58q3 -168 132 -168q44 0 70 29.5t28 80.5l192 58q-3 -158 -83.5 -245t-223.5 -87zM690 694h488v-694h-185l-24 111q-153 -131 -355 -131q-249 0 -421 190q-166 184 -166 461q0 286 166 467
q169 184 428 184q241 0 419 -184q78 -81 123 -197l-211 -61q-43 129 -129 197.5t-205 68.5q-163 0 -262.5 -130t-99.5 -343q0 -215 100.5 -343t261.5 -128q139 0 234.5 93t95.5 247h-313z" />
    <glyph glyph-name="gbreve" unicode="&#x11f;" 
d="M606 1032q-73 0 -128.5 22t-85 52.5t-48.5 71.5t-24.5 70.5t-6.5 58.5l179 57q3 -168 131 -168q44 0 70 30t28 81l192 57q-3 -158 -83.5 -245t-223.5 -87zM737 156q24 0 39.5 -0.5t47.5 -2.5t54.5 -6.5t54.5 -13.5t54.5 -22t47.5 -33t40 -45.5t25 -61t10 -77.5
q0 -170 -143.5 -267.5t-384.5 -97.5q-240 0 -387.5 91.5t-147.5 238.5q0 67 33.5 112t103.5 86q-118 56 -118 160q0 66 39.5 108.5t101.5 73.5q-60 86 -60 189q0 153 117.5 250.5t294.5 97.5q148 0 262 -68q42 54 90 84q70 44 179 72q3 -7 45 -87t45 -85q-88 -7 -160 -55
q-36 -25 -66 -66q37 -64 37 -143q0 -145 -123.5 -243.5t-308.5 -98.5q-143 0 -246 61q-57 -33 -57 -76q0 -14 5.5 -25t17.5 -18.5t24 -13.5t32 -9t33.5 -5t37.5 -3t34.5 -1h32.5h264zM563 745q-97 0 -150 -40.5t-53 -116.5q0 -75 51.5 -113.5t149.5 -38.5q103 0 160 40.5
t57 111.5t-57.5 114t-157.5 43zM606 -311q151 0 225 39t74 108q0 58 -51.5 94.5t-148.5 36.5q-5 0 -59 -0.5t-109 -0.5h-110.5t-72.5 1q-98 -45 -98 -121q0 -75 98 -116t252 -41z" />
    <glyph glyph-name="Gdotaccent" unicode="&#x120;" 
d="M614 1372q-67 0 -115 45.5t-48 110.5q0 64 47.5 109.5t115.5 45.5t116 -45.5t48 -109.5t-48 -110t-116 -46zM690 694h488v-694h-185l-24 111q-153 -131 -355 -131q-249 0 -421 190q-166 184 -166 461q0 286 166 467q169 184 428 184q241 0 419 -184q78 -81 123 -197
l-211 -61q-43 129 -129 197.5t-205 68.5q-163 0 -262.5 -130t-99.5 -343q0 -215 100.5 -343t261.5 -128q139 0 234.5 93t95.5 247h-313z" />
    <glyph glyph-name="gdotaccent" unicode="&#x121;" 
d="M614 1108q-67 0 -115 45.5t-48 110.5q0 64 47.5 109.5t115.5 45.5t116 -45.5t48 -109.5t-48 -110t-116 -46zM737 156q24 0 39.5 -0.5t47.5 -2.5t54.5 -6.5t54.5 -13.5t54.5 -22t47.5 -33t40 -45.5t25 -61t10 -77.5q0 -170 -143.5 -267.5t-384.5 -97.5q-240 0 -387.5 91.5
t-147.5 238.5q0 67 33.5 112t103.5 86q-118 56 -118 160q0 66 39.5 108.5t101.5 73.5q-60 86 -60 189q0 153 117.5 250.5t294.5 97.5q148 0 262 -68q42 54 90 84q70 44 179 72q3 -7 45 -87t45 -85q-88 -7 -160 -55q-36 -25 -66 -66q37 -64 37 -143q0 -145 -123.5 -243.5
t-308.5 -98.5q-143 0 -246 61q-57 -33 -57 -76q0 -14 5.5 -25t17.5 -18.5t24 -13.5t32 -9t33.5 -5t37.5 -3t34.5 -1h32.5h264zM563 745q-97 0 -150 -40.5t-53 -116.5q0 -75 51.5 -113.5t149.5 -38.5q103 0 160 40.5t57 111.5t-57.5 114t-157.5 43zM606 -311q151 0 225 39
t74 108q0 58 -51.5 94.5t-148.5 36.5q-5 0 -59 -0.5t-109 -0.5h-110.5t-72.5 1q-98 -45 -98 -121q0 -75 98 -116t252 -41z" />
    <glyph glyph-name="uni0122" unicode="&#x122;" 
d="M690 694h488v-694h-185l-24 111q-153 -131 -355 -131q-249 0 -421 190q-166 184 -166 461q0 286 166 467q169 184 428 184q241 0 419 -184q78 -81 123 -197l-211 -61q-43 129 -129 197.5t-205 68.5q-163 0 -262.5 -130t-99.5 -343q0 -215 100.5 -343t261.5 -128
q139 0 234.5 93t95.5 247h-313zM657 -63q39 -6 70.5 -33t49 -68t24.5 -91t-6 -104.5t-40.5 -104.5t-80.5 -94.5t-125 -72.5l-137 101q172 76 184 161q-60 8 -100.5 52t-40.5 102q0 65 48 110.5t115 45.5q15 0 39 -4z" />
    <glyph glyph-name="uni0123" unicode="&#x123;" 
d="M578 1044q-39 6 -70.5 33t-49 68t-24.5 91t6 104.5t40.5 104.5t80.5 94.5t125 72.5l137 -101q-172 -76 -184 -161q60 -8 100.5 -52t40.5 -102q0 -64 -48 -110t-116 -46q-14 0 -38 4zM737 156q24 0 39.5 -0.5t47.5 -2.5t54.5 -6.5t54.5 -13.5t54.5 -22t47.5 -33t40 -45.5
t25 -61t10 -77.5q0 -170 -143.5 -267.5t-384.5 -97.5q-240 0 -387.5 91.5t-147.5 238.5q0 67 33.5 112t103.5 86q-118 56 -118 160q0 66 39.5 108.5t101.5 73.5q-60 86 -60 189q0 153 117.5 250.5t294.5 97.5q148 0 262 -68q42 54 90 84q70 44 179 72q3 -7 45 -87t45 -85
q-88 -7 -160 -55q-36 -25 -66 -66q37 -64 37 -143q0 -145 -123.5 -243.5t-308.5 -98.5q-143 0 -246 61q-57 -33 -57 -76q0 -14 5.5 -25t17.5 -18.5t24 -13.5t32 -9t33.5 -5t37.5 -3t34.5 -1h32.5h264zM563 745q-97 0 -150 -40.5t-53 -116.5q0 -75 51.5 -113.5t149.5 -38.5
q103 0 160 40.5t57 111.5t-57.5 114t-157.5 43zM606 -311q151 0 225 39t74 108q0 58 -51.5 94.5t-148.5 36.5q-5 0 -59 -0.5t-109 -0.5h-110.5t-72.5 1q-98 -45 -98 -121q0 -75 98 -116t252 -41z" />
    <glyph glyph-name="Hbar" unicode="&#x126;" 
d="M1260 1104l-56 -180h-106v-924h-230v573h-508v-573h-229v924h-162l56 180h106v158h229v-158h508v158h230v-158h162zM868 766v158h-508v-158h508z" />
    <glyph glyph-name="hbar" unicode="&#x127;" 
d="M670 934q45 0 91 -8t103 -33.5t100.5 -66t73 -113.5t29.5 -168v-545h-236v487q0 67 -14.5 117t-35 75.5t-49 41t-49.5 19t-44 3.5q-32 0 -64.5 -7t-70.5 -27.5t-66.5 -53t-47.5 -90t-19 -131.5v-434h-230v1044h-159l55 181h104v37l199 41v-78h461l-56 -181h-405v-329
q36 66 77 111.5t106.5 76.5t146.5 31z" />
    <glyph glyph-name="Itilde" unicode="&#x128;" 
d="M260 1425q-7 99 55.5 168.5t155.5 69.5q33 0 69 -12.5t53 -22.5t54 -33q71 -47 96 -47q24 0 39.5 31t16.5 92l168 -53q6 -98 -59.5 -168t-155.5 -70q-29 0 -60.5 11t-48.5 21t-49 30q-85 55 -111 55q-25 0 -41.5 -35.5t-13.5 -89.5zM143 0l56 197h301v868h-357l56 197
h878v-197h-348v-868h348v-197h-934z" />
    <glyph glyph-name="itilde" unicode="&#x129;" 
d="M178 1100q0 106 59 171.5t152 65.5q42 0 95 -28.5t101 -57t77 -28.5q52 0 55 123l168 -54q0 -99 -63.5 -168t-151.5 -69q-40 0 -87.5 29l-95 58t-86.5 29q-35 0 -45 -29.5t-10 -94.5zM168 0l55 180h320v553h-334l55 180h488v-733h362v-180h-946z" />
    <glyph glyph-name="Imacron" unicode="&#x12a;" 
d="M281 1552h723l-56 -180h-723zM143 0l56 197h301v868h-357l56 197h878v-197h-348v-868h348v-197h-934z" />
    <glyph glyph-name="imacron" unicode="&#x12b;" 
d="M301 1206h682l-55 -180h-682zM168 0l55 180h320v553h-334l55 180h488v-733h362v-180h-946z" />
    <glyph glyph-name="Iogonek" unicode="&#x12e;" 
d="M1034 -248l58 -162q-81 -44 -164 -50.5t-145.5 20.5t-102 85t-39.5 136q0 125 88 219h-586l56 197h301v868h-357l56 197h878v-197h-348v-868h348v-197h-10q-17 -5 -39.5 -14t-54.5 -27.5t-57.5 -41t-43.5 -56.5t-18 -72t36 -52.5t78 -8t66 23.5z" />
    <glyph glyph-name="iogonek" unicode="&#x12f;" 
d="M614 1108q-67 0 -115 45.5t-48 110.5q0 64 47.5 109.5t115.5 45.5t116 -45.5t48 -109.5t-48 -110t-116 -46zM1073 -248l57 -162q-65 -35 -132 -47t-123 0.5t-100.5 43t-69.5 81.5t-25 113q0 125 88 219h-600l55 180h320v553h-334l55 180h488v-733h362v-170l2 -8h-2v-2h-8
q-17 -5 -39.5 -14t-54.5 -27.5t-57.5 -41t-43.5 -56.5t-18 -72t36 -52.5t78 -8t66 23.5z" />
    <glyph glyph-name="Idotaccent" unicode="&#x130;" 
d="M614 1372q-67 0 -115 45.5t-48 110.5q0 64 47.5 109.5t115.5 45.5t116 -45.5t48 -109.5t-48 -110t-116 -46zM143 0l56 197h301v868h-357l56 197h878v-197h-348v-868h348v-197h-934z" />
    <glyph glyph-name="dotlessi" unicode="&#x131;" 
d="M168 0l55 180h320v553h-334l55 180h488v-733h362v-180h-946z" />
    <glyph glyph-name="uni0136" unicode="&#x136;" 
d="M717 655l424 -655h-293l-365 571q-66 -8 -98 -8v-563h-229v1221l229 41v-494q189 6 319 135t130 318l227 41q0 -187 -92.5 -350t-251.5 -257zM657 -63q39 -6 70.5 -33t49 -68t24.5 -91t-6 -104.5t-40.5 -104.5t-80.5 -94.5t-125 -72.5l-137 101q172 76 184 161
q-60 8 -100.5 52t-40.5 102q0 65 48 110.5t115 45.5q15 0 39 -4z" />
    <glyph glyph-name="uni0137" unicode="&#x137;" 
d="M743 467l387 -467h-292l-299 377q-85 -30 -146 -47v-330h-217v1262l217 41v-762q133 36 230 96q189 118 251 276l185 -100q-42 -97 -126.5 -189t-189.5 -157zM657 -63q39 -6 70.5 -33t49 -68t24.5 -91t-6 -104.5t-40.5 -104.5t-80.5 -94.5t-125 -72.5l-137 101
q172 76 184 161q-60 8 -100.5 52t-40.5 102q0 65 48 110.5t115 45.5q15 0 39 -4z" />
    <glyph glyph-name="Lacute" unicode="&#x139;" 
d="M264 1427l232 363l211 -70l-316 -336zM190 0v1204l230 58v-1065h655v-197h-885z" />
    <glyph glyph-name="lacute" unicode="&#x13a;" 
d="M559 1452l232 363l210 -70l-315 -336zM121 0l55 180h340v922h-313l55 180h475v-1102h375v-180h-987z" />
    <glyph glyph-name="uni013B" unicode="&#x13b;" 
d="M420 197h655v-197h-885v1204l230 58v-1065zM657 -63q39 -6 70.5 -33t49 -68t24.5 -91t-6 -104.5t-40.5 -104.5t-80.5 -94.5t-125 -72.5l-137 101q172 76 184 161q-60 8 -100.5 52t-40.5 102q0 65 48 110.5t115 45.5q15 0 39 -4z" />
    <glyph glyph-name="uni013C" unicode="&#x13c;" 
d="M733 180h375v-180h-987l55 180h340v922h-313l55 180h475v-1102zM657 -63q39 -6 70.5 -33t49 -68t24.5 -91t-6 -104.5t-40.5 -104.5t-80.5 -94.5t-125 -72.5l-137 101q172 76 184 161q-60 8 -100.5 52t-40.5 102q0 65 48 110.5t115 45.5q15 0 39 -4z" />
    <glyph glyph-name="Lcaron" unicode="&#x13d;" 
d="M571 1038l232 363l211 -70l-316 -336zM190 0v1204l230 58v-1065h655v-197h-885z" />
    <glyph glyph-name="lcaron" unicode="&#x13e;" 
d="M858 1038l232 363l210 -70l-315 -336zM121 0l55 180h340v922h-313l55 180h475v-1102h375v-180h-987z" />
    <glyph glyph-name="Lslash" unicode="&#x141;" 
d="M420 197h655v-197h-885v471l-133 -61l-26 186l159 74v534l230 58v-486l303 142l27 -187l-330 -153v-381z" />
    <glyph glyph-name="lslash" unicode="&#x142;" 
d="M733 180h375v-180h-987l55 180h340v338l-233 -108l-27 186l260 121v385h-313l55 180h475v-465l215 101l27 -187l-242 -113v-438z" />
    <glyph glyph-name="Nacute" unicode="&#x143;" 
d="M551 1386l231 363l211 -70l-315 -336zM109 1221l217 41l561 -850v809l229 41v-1262h-217l-561 881v-881h-229v1221z" />
    <glyph glyph-name="nacute" unicode="&#x144;" 
d="M489 1038l232 363l211 -70l-316 -336zM141 0v913h140l38 -239q15 46 42 88.5t69 82.5t104 64.5t136 24.5q45 0 91 -8t103 -33.5t100.5 -66t73 -113.5t29.5 -168v-545h-215v487q0 67 -17 117t-40 75.5t-55 41t-54.5 19t-46.5 3.5q-32 0 -64.5 -7t-70.5 -27.5t-66.5 -53
t-47.5 -90t-19 -131.5v-434h-230z" />
    <glyph glyph-name="uni0145" unicode="&#x145;" 
d="M887 1221l229 41v-1262h-217l-561 881v-881h-229v1221l217 41l561 -850v809zM657 -63q39 -6 70.5 -33t49 -68t24.5 -91t-6 -104.5t-40.5 -104.5t-80.5 -94.5t-125 -72.5l-137 101q172 76 184 161q-60 8 -100.5 52t-40.5 102q0 65 48 110.5t115 45.5q15 0 39 -4z" />
    <glyph glyph-name="uni0146" unicode="&#x146;" 
d="M670 934q45 0 91 -8t103 -33.5t100.5 -66t73 -113.5t29.5 -168v-545h-215v487q0 67 -17 117t-40 75.5t-55 41t-54.5 19t-46.5 3.5q-32 0 -64.5 -7t-70.5 -27.5t-66.5 -53t-47.5 -90t-19 -131.5v-434h-230v913h140l38 -239q15 46 42 88.5t69 82.5t104 64.5t136 24.5z
M657 -63q39 -6 70.5 -33t49 -68t24.5 -91t-6 -104.5t-40.5 -104.5t-80.5 -94.5t-125 -72.5l-137 101q172 76 184 161q-60 8 -100.5 52t-40.5 102q0 65 48 110.5t115 45.5q15 0 39 -4z" />
    <glyph glyph-name="Ncaron" unicode="&#x147;" 
d="M528 1364q0 132 -81.5 207.5t-229.5 75.5l84 163q111 0 186 -47.5t129 -134.5q56 89 134 135.5t196 46.5l84 -163q-311 0 -311 -244zM109 1221l217 41l561 -850v809l229 41v-1262h-217l-561 881v-881h-229v1221z" />
    <glyph glyph-name="ncaron" unicode="&#x148;" 
d="M518 1036q0 132 -81.5 207.5t-229.5 75.5l84 164q111 0 186 -48t129 -135q56 89 134 136t196 47l84 -164q-311 0 -311 -244zM141 0v913h140l38 -239q15 46 42 88.5t69 82.5t104 64.5t136 24.5q45 0 91 -8t103 -33.5t100.5 -66t73 -113.5t29.5 -168v-545h-215v487
q0 67 -17 117t-40 75.5t-55 41t-54.5 19t-46.5 3.5q-32 0 -64.5 -7t-70.5 -27.5t-66.5 -53t-47.5 -90t-19 -131.5v-434h-230z" />
    <glyph glyph-name="Eng" unicode="&#x14a;" 
d="M887 1221l229 41v-1323q0 -160 -78.5 -247t-224.5 -87q-132 0 -222.5 74t-90.5 190l198 59q0 -70 24.5 -98.5t76.5 -28.5q88 0 88 138v79l-549 863v-881h-229v1221l217 41l561 -850v809z" />
    <glyph glyph-name="eng" unicode="&#x14b;" 
d="M670 934q45 0 91 -8t103 -33.5t100.5 -66t73 -113.5t29.5 -168v-606q0 -21 -2 -43t-9 -57t-19.5 -65t-36 -62t-55 -55t-80 -37.5t-107.5 -14.5q-113 0 -199.5 73t-114.5 191l183 59q20 -67 54 -101t77 -34q40 0 67 39.5t27 106.5v548q0 67 -17 117t-40 75.5t-55 41
t-54.5 19t-46.5 3.5q-32 0 -64.5 -7t-70.5 -27.5t-66.5 -53t-47.5 -90t-19 -131.5v-434h-230v913h140l38 -239q15 46 42 88.5t69 82.5t104 64.5t136 24.5z" />
    <glyph glyph-name="Omacron" unicode="&#x14c;" 
d="M281 1552h723l-56 -180h-723zM612 -20q-258 0 -426 186q-166 187 -166 465q0 291 166 469q170 182 426 182q249 0 422 -182q172 -184 172 -469q0 -284 -172 -465q-180 -186 -422 -186zM612 168q160 0 258.5 128t98.5 337q0 211 -98 338t-259 127q-160 0 -259 -128
t-99 -337q0 -207 99 -336t259 -129z" />
    <glyph glyph-name="omacron" unicode="&#x14d;" 
d="M301 1206h682l-55 -180h-682zM614 -20q-202 0 -342 137q-137 134 -137 340q0 216 137 344q139 133 342 133q205 0 340 -135q140 -140 140 -342q0 -209 -140 -340q-143 -137 -340 -137zM616 152q117 0 189 83.5t72 221.5q0 139 -72 224t-189 85q-119 0 -191.5 -85
t-72.5 -224q0 -138 72.5 -221.5t191.5 -83.5z" />
    <glyph glyph-name="Ohungarumlaut" unicode="&#x150;" 
d="M367 1407l231 362l211 -69l-315 -336zM776 1407l232 362l211 -69l-316 -336zM612 -20q-258 0 -426 186q-166 187 -166 465q0 291 166 469q170 182 426 182q249 0 422 -182q172 -184 172 -469q0 -284 -172 -465q-180 -186 -422 -186zM612 168q160 0 258.5 128t98.5 337
q0 211 -98 338t-259 127q-160 0 -259 -128t-99 -337q0 -207 99 -336t259 -129z" />
    <glyph glyph-name="ohungarumlaut" unicode="&#x151;" 
d="M383 1038l231 363l211 -70l-315 -336zM752 1038l231 363l211 -70l-315 -336zM614 -20q-202 0 -342 137q-137 134 -137 340q0 216 137 344q139 133 342 133q205 0 340 -135q140 -140 140 -342q0 -209 -140 -340q-143 -137 -340 -137zM616 152q117 0 189 83.5t72 221.5
q0 139 -72 224t-189 85q-119 0 -191.5 -85t-72.5 -224q0 -138 72.5 -221.5t191.5 -83.5z" />
    <glyph glyph-name="OE" unicode="&#x152;" 
d="M1214 1073h-409v-323h336l-56 -189h-280v-373h409v-188h-639q-272 9 -415.5 172.5t-143.5 437.5q0 148 29 262t93 201.5t174 136t263 52.5h639v-189zM250 612q0 -84 16 -154t52 -131t101.5 -98t155.5 -43v873q-171 -9 -248 -116t-77 -331z" />
    <glyph glyph-name="oe" unicode="&#x153;" 
d="M868 166q31 0 52.5 4t49.5 17.5t53 45.5t46 82l117 -84q-99 -251 -318 -251q-182 0 -284 180q-15 -26 -27 -43q-95 -137 -225 -137q-135 0 -228 135q-92 134 -92 348q0 205 90 336q94 135 230 135q134 0 225 -135l25 -39q49 81 123 127.5t165 46.5q166 0 258.5 -144
t92.5 -397h-572q9 -104 66.5 -165.5t152.5 -61.5zM332 152q78 0 126 83.5t48 221.5t-48 223.5t-126 85.5q-76 0 -116 -83t-40 -226q0 -142 40 -223.5t116 -81.5zM862 762q-86 0 -145 -60.5t-68 -152.5h418q0 77 -57.5 145t-147.5 68z" />
    <glyph glyph-name="Racute" unicode="&#x154;" 
d="M993 1679l-315 -336l-127 43l231 363zM842 555q237 -187 237 -555h-229q0 135 -33.5 235.5t-94 160.5t-138.5 90t-174 32v-518h-230v1260h473q183 0 310 -109t127 -266q0 -104 -69 -193.5t-179 -136.5zM410 1079v-381h243q85 0 146 55t61 132q0 85 -57.5 139.5
t-149.5 54.5h-243z" />
    <glyph glyph-name="racute" unicode="&#x155;" 
d="M494 1092l231 362l211 -70l-315 -335zM176 0v913h139l62 -194q32 107 110 161t218 54q45 0 91 -8t103 -33.5t100.5 -66t73 -113.5t29.5 -168l-236 -58q0 71 -16.5 123t-37 76.5t-49.5 38.5t-44 16t-31 2q-38 0 -73 -7t-74.5 -27.5t-68 -53t-47.5 -89.5t-19 -132v-434
h-230z" />
    <glyph glyph-name="uni0156" unicode="&#x156;" 
d="M842 555q237 -187 237 -555h-229q0 135 -33.5 235.5t-94 160.5t-138.5 90t-174 32v-518h-230v1260h473q183 0 310 -109t127 -266q0 -104 -69 -193.5t-179 -136.5zM410 1079v-381h243q85 0 146 55t61 132q0 85 -57.5 139.5t-149.5 54.5h-243zM657 -63q39 -6 70.5 -33
t49 -68t24.5 -91t-6 -104.5t-40.5 -104.5t-80.5 -94.5t-125 -72.5l-137 101q172 76 184 161q-60 8 -100.5 52t-40.5 102q0 65 48 110.5t115 45.5q15 0 39 -4z" />
    <glyph glyph-name="uni0157" unicode="&#x157;" 
d="M705 934q45 0 91 -8t103 -33.5t100.5 -66t73 -113.5t29.5 -168l-236 -58q0 71 -16.5 123t-37 76.5t-49.5 38.5t-44 16t-31 2q-38 0 -73 -7t-74.5 -27.5t-68 -53t-47.5 -89.5t-19 -132v-434h-230v913h139l62 -194q32 107 110 161t218 54zM657 -63q39 -6 70.5 -33t49 -68
t24.5 -91t-6 -104.5t-40.5 -104.5t-80.5 -94.5t-125 -72.5l-137 101q172 76 184 161q-60 8 -100.5 52t-40.5 102q0 65 48 110.5t115 45.5q15 0 39 -4z" />
    <glyph glyph-name="Rcaron" unicode="&#x158;" 
d="M528 1364q0 132 -81.5 207.5t-229.5 75.5l84 163q111 0 186 -47.5t129 -134.5q56 89 134 135.5t196 46.5l84 -163q-311 0 -311 -244zM842 555q237 -187 237 -555h-229q0 135 -33.5 235.5t-94 160.5t-138.5 90t-174 32v-518h-230v1260h473q183 0 310 -109t127 -266
q0 -104 -69 -193.5t-179 -136.5zM410 1079v-381h243q85 0 146 55t61 132q0 85 -57.5 139.5t-149.5 54.5h-243z" />
    <glyph glyph-name="rcaron" unicode="&#x159;" 
d="M518 1036q0 132 -81.5 207.5t-229.5 75.5l84 164q111 0 186 -48t129 -135q56 89 134 136t196 47l84 -164q-311 0 -311 -244zM176 0v913h139l62 -194q32 107 110 161t218 54q45 0 91 -8t103 -33.5t100.5 -66t73 -113.5t29.5 -168l-236 -58q0 71 -16.5 123t-37 76.5
t-49.5 38.5t-44 16t-31 2q-38 0 -73 -7t-74.5 -27.5t-68 -53t-47.5 -89.5t-19 -132v-434h-230z" />
    <glyph glyph-name="Sacute" unicode="&#x15a;" 
d="M551 1386l231 363l211 -70l-315 -336zM63 246l177 121q31 -88 139.5 -142.5t255.5 -54.5q151 0 228 58t77 151q0 28 -9.5 50.5t-27 38t-35.5 26t-44 17.5t-42 10.5t-39 6.5l-282 43q-45 6 -86.5 17t-92.5 35.5t-88 58t-62.5 88.5t-25.5 123q0 156 117 264
q135 125 381 125q168 0 290 -62t208 -192l-189 -100q-33 75 -121 119.5t-194 44.5q-123 0 -192.5 -56.5t-69.5 -134.5q0 -28 11 -49.5t26 -34t40.5 -21.5t42.5 -12.5t44 -7.5l319 -49q178 -27 263 -109t85 -219q0 -168 -120 -282q-147 -137 -414 -137q-192 0 -348 71
t-222 195z" />
    <glyph glyph-name="sacute" unicode="&#x15b;" 
d="M489 1038l232 363l211 -70l-316 -336zM166 176l162 141q72 -167 340 -167q91 0 133.5 31.5t42.5 97.5q0 61 -123 79l-229 35q-289 43 -289 250q0 113 96 197q49 43 124 68.5t150 25.5q162 0 265 -44.5t178 -146.5l-168 -108q-38 66 -104 96.5t-171 30.5q-69 0 -111 -32.5
t-42 -86.5q0 -25 19.5 -40t84.5 -23l256 -35q142 -20 211.5 -85.5t69.5 -180.5q0 -132 -92 -209q-110 -90 -303 -90q-377 0 -500 196z" />
    <glyph glyph-name="Scedilla" unicode="&#x15e;" 
d="M819 727q178 -27 263 -109t85 -219q0 -168 -120 -282q-138 -128 -385 -137l-39 -31q52 -21 84 -65.5t32 -106.5q0 -81 -53.5 -134t-144.5 -53q-85 0 -141 44t-56 108l133 29q0 -28 18 -45t44 -17q31 0 50 21t19 49q0 32 -26 54t-54 22q-16 0 -34 -11l-23 -18l-96 96
l94 72q-140 25 -247.5 90.5t-158.5 161.5l177 121q31 -88 139.5 -142.5t255.5 -54.5q151 0 228 58t77 151q0 28 -9.5 50.5t-27 38t-35.5 26t-44 17.5t-42 10.5t-39 6.5l-282 43q-45 6 -86.5 17t-92.5 35.5t-88 58t-62.5 88.5t-25.5 123q0 156 117 264q135 125 381 125
q168 0 290 -62t208 -192l-189 -100q-33 75 -121 119.5t-194 44.5q-123 0 -192.5 -56.5t-69.5 -134.5q0 -28 11 -49.5t26 -34t40.5 -21.5t42.5 -12.5t44 -7.5z" />
    <glyph glyph-name="scedilla" unicode="&#x15f;" 
d="M780 545q142 -20 211.5 -85.5t69.5 -180.5q0 -132 -92 -209q-104 -87 -287 -90l-39 -31q52 -21 84.5 -65.5t32.5 -106.5q0 -80 -54 -133.5t-145 -53.5q-85 0 -140.5 44t-55.5 108l133 29q0 -28 17.5 -45t43.5 -17q31 0 50.5 21t19.5 49q0 32 -26 54t-54 22q-17 0 -35 -11
l-22 -18l-97 96l92 72q-229 38 -321 182l162 141q72 -167 340 -167q91 0 133.5 31.5t42.5 97.5q0 61 -123 79l-229 35q-289 43 -289 250q0 113 96 197q49 43 124 68.5t150 25.5q162 0 265 -44.5t178 -146.5l-168 -108q-38 66 -104 96.5t-171 30.5q-69 0 -111 -32.5
t-42 -86.5q0 -25 19.5 -40t84.5 -23z" />
    <glyph glyph-name="Scaron" unicode="&#x160;" 
d="M528 1364q0 132 -81.5 207.5t-229.5 75.5l84 163q111 0 186 -47.5t129 -134.5q56 89 134 135.5t196 46.5l84 -163q-311 0 -311 -244zM63 246l177 121q31 -88 139.5 -142.5t255.5 -54.5q151 0 228 58t77 151q0 28 -9.5 50.5t-27 38t-35.5 26t-44 17.5t-42 10.5t-39 6.5
l-282 43q-45 6 -86.5 17t-92.5 35.5t-88 58t-62.5 88.5t-25.5 123q0 156 117 264q135 125 381 125q168 0 290 -62t208 -192l-189 -100q-33 75 -121 119.5t-194 44.5q-123 0 -192.5 -56.5t-69.5 -134.5q0 -28 11 -49.5t26 -34t40.5 -21.5t42.5 -12.5t44 -7.5l319 -49
q178 -27 263 -109t85 -219q0 -168 -120 -282q-147 -137 -414 -137q-192 0 -348 71t-222 195z" />
    <glyph glyph-name="scaron" unicode="&#x161;" 
d="M518 1036q0 132 -81.5 207.5t-229.5 75.5l84 164q111 0 186 -48t129 -135q56 89 134 136t196 47l84 -164q-311 0 -311 -244zM166 176l162 141q72 -167 340 -167q91 0 133.5 31.5t42.5 97.5q0 61 -123 79l-229 35q-289 43 -289 250q0 113 96 197q49 43 124 68.5t150 25.5
q162 0 265 -44.5t178 -146.5l-168 -108q-38 66 -104 96.5t-171 30.5q-69 0 -111 -32.5t-42 -86.5q0 -25 19.5 -40t84.5 -23l256 -35q142 -20 211.5 -85.5t69.5 -180.5q0 -132 -92 -209q-110 -90 -303 -90q-377 0 -500 196z" />
    <glyph glyph-name="uni0162" unicode="&#x162;" 
d="M1139 1065h-410v-1061l2 -2l-2 -2l-65 -51q52 -21 84 -65.5t32 -106.5q0 -81 -53.5 -134t-144.5 -53q-85 0 -141 44t-56 108l133 29q0 -28 18 -45t44 -17q31 0 50 21t19 49q0 32 -26 54t-54 22q-16 0 -34 -11l-23 -18l-96 96l102 78h-18v1065h-418l55 197h1002v-197z" />
    <glyph glyph-name="uni0163" unicode="&#x163;" 
d="M1171 346q-22 -168 -124.5 -265t-264.5 -106l-37 -28q52 -21 84.5 -65.5t32.5 -106.5q0 -81 -53.5 -134t-144.5 -53q-85 0 -141 44t-56 108l133 29q0 -28 18 -45t44 -17q31 0 50 21t19 49q0 32 -26 54t-54 22q-17 0 -35 -11l-22 -18l-96 96l100 76q-143 43 -225 161.5
t-82 303.5v264h-254l55 188h199v291l217 58v-349h465l-55 -188h-410v-244q0 -323 252 -323q93 0 147.5 60t77.5 188z" />
    <glyph glyph-name="Tcaron" unicode="&#x164;" 
d="M528 1364q0 132 -81.5 207.5t-229.5 75.5l84 163q111 0 186 -47.5t129 -134.5q56 89 134 135.5t196 46.5l84 -163q-311 0 -311 -244zM1139 1262v-197h-410v-1065h-229v1065h-418l55 197h1002z" />
    <glyph glyph-name="tcaron" unicode="&#x165;" 
d="M1137 1331l-316 -336l-127 43l232 363zM985 406l186 -60q-23 -176 -134 -273.5t-285 -97.5q-205 0 -333 127t-128 359v264h-254l55 188h199v291l217 58v-349h465l-55 -188h-410v-244q0 -323 252 -323q93 0 147.5 60t77.5 188z" />
    <glyph glyph-name="Tbar" unicode="&#x166;" 
d="M1139 1065h-410v-313h295l-55 -181h-240v-571h-229v571h-295l55 181h240v313h-418l55 197h1002v-197z" />
    <glyph glyph-name="tbar" unicode="&#x167;" 
d="M985 406l186 -60q-23 -176 -134 -273.5t-285 -97.5q-196 0 -321.5 114.5t-137.5 326.5h-256l55 188h199v121h-254l55 188h199v291l217 58v-349h465l-55 -188h-410v-121h407l-55 -188h-350q24 -258 250 -258q93 0 147.5 60t77.5 188z" />
    <glyph glyph-name="Utilde" unicode="&#x168;" 
d="M260 1425q-7 99 55.5 168.5t155.5 69.5q33 0 69 -12.5t53 -22.5t54 -33q71 -47 96 -47q24 0 39.5 31t16.5 92l168 -53q6 -98 -59.5 -168t-155.5 -70q-29 0 -60.5 11t-48.5 21t-49 30q-85 55 -111 55q-25 0 -41.5 -35.5t-13.5 -89.5zM608 -20q-104 0 -187 28.5t-135 69.5
t-89.5 107.5t-55 119t-27.5 129.5t-11 114.5t-1 96.5v559l230 58v-617v-2q0 -56 0.5 -86t6 -85t15.5 -87t30.5 -73.5t50 -64t75 -38.5t104.5 -16q58 0 103.5 16t75 38.5t50 64t30.5 73.5t15.5 87t6 86t0.5 87v559l229 58v-617q0 -55 -1 -91.5t-11 -112.5t-28 -129.5
t-56.5 -121t-91.5 -109.5t-137.5 -71.5t-190.5 -29.5z" />
    <glyph glyph-name="utilde" unicode="&#x169;" 
d="M260 1100q0 106 59 171.5t152 65.5q42 0 94.5 -28.5t100.5 -57t77 -28.5q24 0 39.5 31t16.5 92l168 -54q0 -99 -63.5 -168t-151.5 -69q-40 0 -87.5 29l-95 58t-86.5 29q-35 0 -45 -29.5t-10 -94.5zM1067 934v-934h-139l-39 240q-15 -46 -42 -88.5t-68.5 -82.5
t-103.5 -64.5t-136 -24.5q-45 0 -91 8t-103.5 33.5t-100.5 66t-73 113.5t-30 168v524l215 41v-508q0 -69 22.5 -121.5t58 -80.5t72.5 -41t73 -13q27 0 57 7t66.5 27.5t65 53t48 90t19.5 131.5v414z" />
    <glyph glyph-name="Umacron" unicode="&#x16a;" 
d="M281 1552h723l-56 -180h-723zM608 -20q-104 0 -187 28.5t-135 69.5t-89.5 107.5t-55 119t-27.5 129.5t-11 114.5t-1 96.5v559l230 58v-617v-2q0 -56 0.5 -86t6 -85t15.5 -87t30.5 -73.5t50 -64t75 -38.5t104.5 -16q58 0 103.5 16t75 38.5t50 64t30.5 73.5t15.5 87t6 86
t0.5 87v559l229 58v-617q0 -55 -1 -91.5t-11 -112.5t-28 -129.5t-56.5 -121t-91.5 -109.5t-137.5 -71.5t-190.5 -29.5z" />
    <glyph glyph-name="umacron" unicode="&#x16b;" 
d="M301 1206h682l-55 -180h-682zM1067 934v-934h-139l-39 240q-15 -46 -42 -88.5t-68.5 -82.5t-103.5 -64.5t-136 -24.5q-45 0 -91 8t-103.5 33.5t-100.5 66t-73 113.5t-30 168v524l215 41v-508q0 -69 22.5 -121.5t58 -80.5t72.5 -41t73 -13q27 0 57 7t66.5 27.5t65 53
t48 90t19.5 131.5v414z" />
    <glyph glyph-name="Uring" unicode="&#x16e;" 
d="M608 1358q-86 0 -143 56t-57 142t57.5 144.5t140.5 58.5q88 0 145.5 -56.5t57.5 -141.5q0 -88 -57.5 -145.5t-143.5 -57.5zM608 1475q35 0 59.5 24.5t24.5 59.5t-24.5 59t-59.5 24t-59.5 -24t-24.5 -59q0 -36 24 -60t60 -24zM608 -20q-104 0 -187 28.5t-135 69.5
t-89.5 107.5t-55 119t-27.5 129.5t-11 114.5t-1 96.5v559l230 58v-617v-2q0 -56 0.5 -86t6 -85t15.5 -87t30.5 -73.5t50 -64t75 -38.5t104.5 -16q58 0 103.5 16t75 38.5t50 64t30.5 73.5t15.5 87t6 86t0.5 87v559l229 58v-617q0 -55 -1 -91.5t-11 -112.5t-28 -129.5
t-56.5 -121t-91.5 -109.5t-137.5 -71.5t-190.5 -29.5z" />
    <glyph glyph-name="uring" unicode="&#x16f;" 
d="M565 1014q-89 0 -149 59t-60 148t60 150t147 61q90 0 150.5 -59.5t60.5 -147.5q0 -91 -60 -151t-149 -60zM565 1143q34 0 57 23t23 57t-23 57t-57 23t-57 -23t-23 -57q0 -35 23 -57.5t57 -22.5zM1067 934v-934h-139l-39 240q-15 -46 -42 -88.5t-68.5 -82.5t-103.5 -64.5
t-136 -24.5q-45 0 -91 8t-103.5 33.5t-100.5 66t-73 113.5t-30 168v524l215 41v-508q0 -69 22.5 -121.5t58 -80.5t72.5 -41t73 -13q27 0 57 7t66.5 27.5t65 53t48 90t19.5 131.5v414z" />
    <glyph glyph-name="Uhungarumlaut" unicode="&#x170;" 
d="M367 1407l231 362l211 -69l-315 -336zM776 1407l232 362l211 -69l-316 -336zM608 -20q-104 0 -187 28.5t-135 69.5t-89.5 107.5t-55 119t-27.5 129.5t-11 114.5t-1 96.5v559l230 58v-617v-2q0 -56 0.5 -86t6 -85t15.5 -87t30.5 -73.5t50 -64t75 -38.5t104.5 -16
q58 0 103.5 16t75 38.5t50 64t30.5 73.5t15.5 87t6 86t0.5 87v559l229 58v-617q0 -55 -1 -91.5t-11 -112.5t-28 -129.5t-56.5 -121t-91.5 -109.5t-137.5 -71.5t-190.5 -29.5z" />
    <glyph glyph-name="uhungarumlaut" unicode="&#x171;" 
d="M362 1038l232 363l211 -70l-316 -336zM731 1038l232 363l211 -70l-316 -336zM1067 934v-934h-139l-39 240q-15 -46 -42 -88.5t-68.5 -82.5t-103.5 -64.5t-136 -24.5q-45 0 -91 8t-103.5 33.5t-100.5 66t-73 113.5t-30 168v524l215 41v-508q0 -69 22.5 -121.5t58 -80.5
t72.5 -41t73 -13q27 0 57 7t66.5 27.5t65 53t48 90t19.5 131.5v414z" />
    <glyph glyph-name="Uogonek" unicode="&#x172;" 
d="M895 1204l229 58v-617q0 -37 -0.5 -59.5t-3.5 -71.5t-9 -84t-18.5 -86t-30 -89t-45.5 -82t-62.5 -75t-83.5 -58t-107 -42q-162 -76 -162 -193q0 -38 36 -52t78 -7.5t66 23.5l58 -162q-82 -44 -164.5 -50.5t-145 20t-102 84.5t-39.5 136q0 110 70 199q-58 14 -106 40
t-82.5 57t-62 74t-45 80.5t-30 88.5t-18.5 86.5t-9 85t-3.5 74t-0.5 63.5v559l230 58v-617v-2q0 -56 0.5 -86t6 -85t15.5 -87t30.5 -73.5t50 -64t75 -38.5t104.5 -16q58 0 103.5 16t75 38.5t50 64t30.5 73.5t15.5 87t6 86t0.5 87v559z" />
    <glyph glyph-name="uogonek" unicode="&#x173;" 
d="M1024 -252l57 -162q-65 -35 -132 -47t-123 0.5t-100.5 43t-69.5 81.5t-25 113q0 113 73.5 202.5t204.5 139.5l-20 121q-15 -46 -42 -88.5t-68.5 -82.5t-103.5 -64.5t-136 -24.5q-45 0 -91 8t-103.5 33.5t-100.5 66t-73 113.5t-30 168v524l215 41v-508q0 -69 22.5 -121.5
t58 -80.5t72.5 -41t73 -13q27 0 57 7t66.5 27.5t65 53t48 90t19.5 131.5v414l229 41v-936q-9 0 -41.5 -13.5t-74.5 -37.5t-74.5 -67.5t-32.5 -94.5q0 -38 36 -52.5t78 -8t66 23.5z" />
    <glyph glyph-name="Wcircumflex" unicode="&#x174;" 
d="M719 1782q0 -132 81.5 -207.5t229.5 -75.5l-84 -164q-111 0 -186 48t-129 135q-56 -89 -134 -136t-196 -47l-84 164q311 0 311 244zM209 0l-195 1221l230 41l112 -897l164 528l189 41l168 -574l108 861l229 41l-194 -1262h-213l-193 543l-192 -543h-213z" />
    <glyph glyph-name="wcircumflex" unicode="&#x175;" 
d="M719 1438q0 -132 81.5 -207.5t229.5 -75.5l-84 -164q-111 0 -186 48t-129 135q-56 -89 -134 -136t-196 -47l-84 164q311 0 311 244zM12 893l230 41l90 -653l186 612l193 41l188 -649l88 608l230 41l-199 -934h-213l-189 629l-192 -629h-213z" />
    <glyph glyph-name="Ycircumflex" unicode="&#x176;" 
d="M719 1782q0 -132 81.5 -207.5t229.5 -75.5l-84 -164q-111 0 -186 48t-129 135q-56 -89 -134 -136t-196 -47l-84 164q311 0 311 244zM86 1221l254 41l266 -519l262 498l275 21l-422 -775v-487h-229v487z" />
    <glyph glyph-name="ycircumflex" unicode="&#x177;" 
d="M627 1174q-56 -89 -134 -136t-196 -47l-84 164q311 0 311 244l191 39q0 -132 81.5 -207.5t229.5 -75.5l-84 -164q-111 0 -186 48t-129 135zM838 893l229 41v-934q0 -60 -11 -114.5t-41 -110t-77 -95.5t-126 -65t-181 -25q-82 0 -148 17t-108.5 44.5t-71.5 64t-41 73.5
t-12 76l180 59q0 -74 53 -118t154 -44q37 0 66.5 5.5t50 18.5t35.5 25.5t24 35t14.5 38.5t7.5 44.5t2.5 44.5t0.5 46v117q-107 -157 -299 -157q-45 0 -91 8t-103.5 33.5t-100.5 66t-73 113.5t-30 168v524l215 41v-508q0 -69 22.5 -121.5t58 -80.5t72.5 -41t73 -13q27 0 57 7
t66.5 27.5t65 53t48 90t19.5 131.5v414z" />
    <glyph glyph-name="Ydieresis" unicode="&#x178;" 
d="M401 1352q-67 0 -115 48t-48 116t48 115.5t115 47.5q68 0 116 -48t48 -115q0 -68 -48.5 -116t-115.5 -48zM819 1352q-67 0 -115.5 48t-48.5 116q0 67 48 115t116 48t116 -48t48 -115q0 -68 -48.5 -116t-115.5 -48zM86 1221l254 41l266 -519l262 498l275 21l-422 -775
v-487h-229v487z" />
    <glyph glyph-name="Zacute" unicode="&#x179;" 
d="M551 1386l231 363l211 -70l-315 -336zM90 0v197l752 868h-746l41 197h993v-197l-753 -868h753v-197h-1040z" />
    <glyph glyph-name="zacute" unicode="&#x17a;" 
d="M489 1038l232 363l211 -70l-316 -336zM90 0v186l717 531h-725l55 196h993v-182l-716 -530h716v-201h-1040z" />
    <glyph glyph-name="Zdotaccent" unicode="&#x17b;" 
d="M614 1372q-67 0 -115 45.5t-48 110.5q0 64 47.5 109.5t115.5 45.5t116 -45.5t48 -109.5t-48 -110t-116 -46zM90 0v197l752 868h-746l41 197h993v-197l-753 -868h753v-197h-1040z" />
    <glyph glyph-name="zdotaccent" unicode="&#x17c;" 
d="M614 1108q-67 0 -115 45.5t-48 110.5q0 64 47.5 109.5t115.5 45.5t116 -45.5t48 -109.5t-48 -110t-116 -46zM90 0v186l717 531h-725l55 196h993v-182l-716 -530h716v-201h-1040z" />
    <glyph glyph-name="Zcaron" unicode="&#x17d;" 
d="M528 1364q0 132 -81.5 207.5t-229.5 75.5l84 163q111 0 186 -47.5t129 -134.5q56 89 134 135.5t196 46.5l84 -163q-311 0 -311 -244zM90 0v197l752 868h-746l41 197h993v-197l-753 -868h753v-197h-1040z" />
    <glyph glyph-name="zcaron" unicode="&#x17e;" 
d="M518 1036q0 132 -81.5 207.5t-229.5 75.5l84 164q111 0 186 -48t129 -135q56 89 134 136t196 47l84 -164q-311 0 -311 -244zM90 0v186l717 531h-725l55 196h993v-182l-716 -530h716v-201h-1040z" />
    <glyph glyph-name="uni0197" unicode="&#x197;" 
d="M1077 1065h-348v-268l217 100l27 -186l-244 -113v-401h348v-197h-934l56 197h301v295l-219 -103l-27 186l246 115v375h-357l56 197h878v-197z" />
    <glyph glyph-name="uni01CD" unicode="&#x1cd;" 
d="M528 1364q0 132 -81.5 207.5t-229.5 75.5l84 163q111 0 186 -47.5t129 -134.5q56 89 134 135.5t196 46.5l84 -163q-311 0 -311 -244zM33 0l469 1262l225 41l467 -1303h-229l-127 326h-451l-125 -326h-229zM453 522h321l-160 432z" />
    <glyph glyph-name="uni01CE" unicode="&#x1ce;" 
d="M453 1036q0 132 -82 207.5t-230 75.5l84 164q111 0 186.5 -48t129.5 -135q57 90 134 136.5t195 46.5l84 -164q-311 0 -311 -244zM471 -20q-166 0 -265.5 73.5t-99.5 206.5q0 158 154.5 227.5t466.5 69.5v64q0 86 -43 117.5t-141 31.5q-144 0 -228 -121l-149 92
q125 195 409 195q75 0 135.5 -14.5t98 -36t65 -53.5t40 -58.5t19.5 -60.5t8 -49t1 -35v-365q0 -73 39 -95t137 9l53 -158q-1 -4 -31.5 -13.5t-79 -18t-87.5 -8.5q-49 0 -86.5 13t-62 37.5t-36 41.5t-24.5 43q-73 -135 -293 -135zM473 152q54 0 98.5 14.5t72.5 37t44.5 44
t24.5 41.5q14 35 14 108q-110 -1 -179 -6.5t-123 -20t-77.5 -41t-23.5 -69.5q0 -108 149 -108z" />
    <glyph glyph-name="uni01CF" unicode="&#x1cf;" 
d="M528 1364q0 132 -81.5 207.5t-229.5 75.5l84 163q111 0 186 -47.5t129 -134.5q56 89 134 135.5t196 46.5l84 -163q-311 0 -311 -244zM143 0l56 197h301v868h-357l56 197h878v-197h-348v-868h348v-197h-934z" />
    <glyph glyph-name="uni01D0" unicode="&#x1d0;" 
d="M518 1036q0 132 -81.5 207.5t-229.5 75.5l84 164q111 0 186 -48t129 -135q56 89 134 136t196 47l84 -164q-311 0 -311 -244zM168 0l55 180h320v553h-334l55 180h488v-733h362v-180h-946z" />
    <glyph glyph-name="uni01D1" unicode="&#x1d1;" 
d="M528 1364q0 132 -81.5 207.5t-229.5 75.5l84 163q111 0 186 -47.5t129 -134.5q56 89 134 135.5t196 46.5l84 -163q-311 0 -311 -244zM612 -20q-258 0 -426 186q-166 187 -166 465q0 291 166 469q170 182 426 182q249 0 422 -182q172 -184 172 -469q0 -284 -172 -465
q-180 -186 -422 -186zM612 168q160 0 258.5 128t98.5 337q0 211 -98 338t-259 127q-160 0 -259 -128t-99 -337q0 -207 99 -336t259 -129z" />
    <glyph glyph-name="uni01D2" unicode="&#x1d2;" 
d="M518 1036q0 132 -81.5 207.5t-229.5 75.5l84 164q111 0 186 -48t129 -135q56 89 134 136t196 47l84 -164q-311 0 -311 -244zM614 -20q-202 0 -342 137q-137 134 -137 340q0 216 137 344q139 133 342 133q205 0 340 -135q140 -140 140 -342q0 -209 -140 -340
q-143 -137 -340 -137zM616 152q117 0 189 83.5t72 221.5q0 139 -72 224t-189 85q-119 0 -191.5 -85t-72.5 -224q0 -138 72.5 -221.5t191.5 -83.5z" />
    <glyph glyph-name="uni01D3" unicode="&#x1d3;" 
d="M528 1364q0 132 -81.5 207.5t-229.5 75.5l84 163q111 0 186 -47.5t129 -134.5q56 89 134 135.5t196 46.5l84 -163q-311 0 -311 -244zM608 -20q-104 0 -187 28.5t-135 69.5t-89.5 107.5t-55 119t-27.5 129.5t-11 114.5t-1 96.5v559l230 58v-617v-2q0 -56 0.5 -86t6 -85
t15.5 -87t30.5 -73.5t50 -64t75 -38.5t104.5 -16q58 0 103.5 16t75 38.5t50 64t30.5 73.5t15.5 87t6 86t0.5 87v559l229 58v-617q0 -55 -1 -91.5t-11 -112.5t-28 -129.5t-56.5 -121t-91.5 -109.5t-137.5 -71.5t-190.5 -29.5z" />
    <glyph glyph-name="uni01D4" unicode="&#x1d4;" 
d="M518 1036q0 132 -81.5 207.5t-229.5 75.5l84 164q111 0 186 -48t129 -135q56 89 134 136t196 47l84 -164q-311 0 -311 -244zM1067 934v-934h-139l-39 240q-15 -46 -42 -88.5t-68.5 -82.5t-103.5 -64.5t-136 -24.5q-45 0 -91 8t-103.5 33.5t-100.5 66t-73 113.5t-30 168
v524l215 41v-508q0 -69 22.5 -121.5t58 -80.5t72.5 -41t73 -13q27 0 57 7t66.5 27.5t65 53t48 90t19.5 131.5v414z" />
    <glyph glyph-name="Gcaron" unicode="&#x1e6;" 
d="M528 1364q0 132 -81.5 207.5t-229.5 75.5l84 163q111 0 186 -47.5t129 -134.5q56 89 134 135.5t196 46.5l84 -163q-311 0 -311 -244zM690 694h488v-694h-185l-24 111q-153 -131 -355 -131q-249 0 -421 190q-166 184 -166 461q0 286 166 467q169 184 428 184
q241 0 419 -184q78 -81 123 -197l-211 -61q-43 129 -129 197.5t-205 68.5q-163 0 -262.5 -130t-99.5 -343q0 -215 100.5 -343t261.5 -128q139 0 234.5 93t95.5 247h-313z" />
    <glyph glyph-name="gcaron" unicode="&#x1e7;" 
d="M518 1036q0 132 -81.5 207.5t-229.5 75.5l84 164q111 0 186 -48t129 -135q56 89 134 136t196 47l84 -164q-311 0 -311 -244zM737 156q24 0 39.5 -0.5t47.5 -2.5t54.5 -6.5t54.5 -13.5t54.5 -22t47.5 -33t40 -45.5t25 -61t10 -77.5q0 -170 -143.5 -267.5t-384.5 -97.5
q-240 0 -387.5 91.5t-147.5 238.5q0 67 33.5 112t103.5 86q-118 56 -118 160q0 66 39.5 108.5t101.5 73.5q-60 86 -60 189q0 153 117.5 250.5t294.5 97.5q148 0 262 -68q42 54 90 84q70 44 179 72q3 -7 45 -87t45 -85q-88 -7 -160 -55q-36 -25 -66 -66q37 -64 37 -143
q0 -145 -123.5 -243.5t-308.5 -98.5q-143 0 -246 61q-57 -33 -57 -76q0 -14 5.5 -25t17.5 -18.5t24 -13.5t32 -9t33.5 -5t37.5 -3t34.5 -1h32.5h264zM563 745q-97 0 -150 -40.5t-53 -116.5q0 -75 51.5 -113.5t149.5 -38.5q103 0 160 40.5t57 111.5t-57.5 114t-157.5 43z
M606 -311q151 0 225 39t74 108q0 58 -51.5 94.5t-148.5 36.5q-5 0 -59 -0.5t-109 -0.5h-110.5t-72.5 1q-98 -45 -98 -121q0 -75 98 -116t252 -41z" />
    <glyph glyph-name="uni0218" unicode="&#x218;" 
d="M819 727q178 -27 263 -109t85 -219q0 -168 -120 -282q-147 -137 -414 -137q-192 0 -348 71t-222 195l177 121q31 -88 139.5 -142.5t255.5 -54.5q151 0 228 58t77 151q0 28 -9.5 50.5t-27 38t-35.5 26t-44 17.5t-42 10.5t-39 6.5l-282 43q-45 6 -86.5 17t-92.5 35.5
t-88 58t-62.5 88.5t-25.5 123q0 156 117 264q135 125 381 125q168 0 290 -62t208 -192l-189 -100q-33 75 -121 119.5t-194 44.5q-123 0 -192.5 -56.5t-69.5 -134.5q0 -28 11 -49.5t26 -34t40.5 -21.5t42.5 -12.5t44 -7.5zM657 -63q39 -6 70.5 -33t49 -68t24.5 -91t-6 -104.5
t-40.5 -104.5t-80.5 -94.5t-125 -72.5l-137 101q172 76 184 161q-60 8 -100.5 52t-40.5 102q0 65 48 110.5t115 45.5q15 0 39 -4z" />
    <glyph glyph-name="uni0219" unicode="&#x219;" 
d="M780 545q142 -20 211.5 -85.5t69.5 -180.5q0 -132 -92 -209q-110 -90 -303 -90q-377 0 -500 196l162 141q72 -167 340 -167q91 0 133.5 31.5t42.5 97.5q0 61 -123 79l-229 35q-289 43 -289 250q0 113 96 197q49 43 124 68.5t150 25.5q162 0 265 -44.5t178 -146.5
l-168 -108q-38 66 -104 96.5t-171 30.5q-69 0 -111 -32.5t-42 -86.5q0 -25 19.5 -40t84.5 -23zM657 -63q39 -6 70.5 -33t49 -68t24.5 -91t-6 -104.5t-40.5 -104.5t-80.5 -94.5t-125 -72.5l-137 101q172 76 184 161q-60 8 -100.5 52t-40.5 102q0 65 48 110.5t115 45.5
q15 0 39 -4z" />
    <glyph glyph-name="uni021A" unicode="&#x21a;" 
d="M137 1262h1002v-197h-410v-1065h-229v1065h-418zM616 -63q39 -6 70.5 -33t49 -68t24.5 -91t-6 -104.5t-40.5 -104.5t-80.5 -94.5t-125 -72.5l-137 101q172 76 184 161q-60 8 -100.5 52t-40.5 102q0 64 48 110t116 46q14 0 38 -4z" />
    <glyph glyph-name="uni021B" unicode="&#x21b;" 
d="M985 406l186 -60q-23 -176 -134 -273.5t-285 -97.5q-205 0 -333 127t-128 359v264h-254l55 188h199v291l217 58v-349h465l-55 -188h-410v-244q0 -323 252 -323q93 0 147.5 60t77.5 188zM657 -63q39 -6 70.5 -33t49 -68t24.5 -91t-6 -104.5t-40.5 -104.5t-80.5 -94.5
t-125 -72.5l-137 101q172 76 184 161q-60 8 -100.5 52t-40.5 102q0 65 48 110.5t115 45.5q15 0 39 -4z" />
    <glyph glyph-name="uni0228" unicode="&#x228;" 
d="M1077 1069h-655v-319h582l-56 -193h-526v-362h655v-195h-368l-66 -51q52 -21 84.5 -65.5t32.5 -106.5q0 -80 -54 -133.5t-145 -53.5q-85 0 -140.5 44t-55.5 108l133 29q0 -28 17.5 -45t43.5 -17q31 0 50.5 21t19.5 49q0 32 -26 54t-54 22q-17 0 -35 -11l-22 -18l-97 96
l103 78h-305v1262h884v-193z" />
    <glyph glyph-name="uni0229" unicode="&#x229;" 
d="M616 166q44 0 74.5 4t71 17.5t76 45.5t65.5 82l166 -84q-130 -231 -405 -249l-41 -33q52 -21 84 -65.5t32 -106.5q0 -81 -53.5 -134t-144.5 -53q-85 0 -141 44t-56 108l133 29q0 -28 18 -45t44 -17q31 0 50 21t19 49q0 32 -26 54t-54 22q-16 0 -34 -11l-23 -18l-96 96
l96 74q-119 29 -204 107.5t-124 175.5t-39 202q0 121 63.5 224t182.5 166t268 63q238 0 369 -143.5t131 -397.5h-813q14 -103 95.5 -165t215.5 -62zM608 762q-122 0 -205.5 -60.5t-97.5 -152.5h594q0 77 -81 145t-210 68z" />
    <glyph glyph-name="uni0268" unicode="&#x268;" 
d="M588 1130q-68 0 -116 48t-48 116t48 116t116 48t116 -48t48 -116t-48 -116t-116 -48zM752 180h362v-180h-946l55 180h320v219l-242 -112l-27 186l269 125v135h-334l55 180h488v-219l215 101l26 -187l-241 -112v-316z" />
    <glyph glyph-name="gravecomb" unicode="&#x300;" horiz-adv-x="0" 
d="M-575 1038l-127 -43l-316 336l211 70z" />
    <glyph glyph-name="acutecomb" unicode="&#x301;" horiz-adv-x="0" 
d="M-739 1038l231 363l211 -70l-315 -336z" />
    <glyph glyph-name="uni0302" unicode="&#x302;" horiz-adv-x="0" 
d="M-510 1438q0 -132 81.5 -207.5t229.5 -75.5l-84 -164q-111 0 -186 48t-129 135q-56 -89 -134 -136t-196 -47l-84 164q148 0 230 59t82 185z" />
    <glyph glyph-name="tildecomb" unicode="&#x303;" horiz-adv-x="0" 
d="M-969 1100q0 106 59 171.5t152 65.5q42 0 95 -28.5t101 -57t77 -28.5q52 0 55 123l168 -54q0 -99 -63.5 -168t-151.5 -69q-40 0 -87.5 29t-94.5 58t-86 29q-35 0 -45.5 -30t-10.5 -94z" />
    <glyph glyph-name="uni0304" unicode="&#x304;" horiz-adv-x="0" 
d="M-928 1206h682l-55 -180h-682z" />
    <glyph glyph-name="uni0306" unicode="&#x306;" horiz-adv-x="0" 
d="M-623 1032q-73 0 -128 22t-85 52.5t-48.5 71.5t-24 70.5t-6.5 58.5l178 57q3 -168 131 -168q44 0 70 30t28 81l193 57q-3 -158 -84 -245t-224 -87z" />
    <glyph glyph-name="uni0307" unicode="&#x307;" horiz-adv-x="0" 
d="M-614 1108q-68 0 -116 46t-48 110t48 109.5t116 45.5t115.5 -45.5t47.5 -109.5q0 -65 -48 -110.5t-115 -45.5z" />
    <glyph glyph-name="uni0308" unicode="&#x308;" horiz-adv-x="0" 
d="M-840 1116q-68 0 -116 46t-48 110t48 109.5t116 45.5t116 -45.5t48 -109.5t-48 -110t-116 -46zM-422 1116q-68 0 -116 46t-48 110t48 109.5t116 45.5t116 -45.5t48 -109.5t-48 -110t-116 -46z" />
    <glyph glyph-name="uni030A" unicode="&#x30a;" horiz-adv-x="0" 
d="M-664 1014q-89 0 -148.5 59t-59.5 148t60 150t146 61q90 0 150.5 -59.5t60.5 -147.5q0 -91 -60 -151t-149 -60zM-664 1143q34 0 57 23t23 57t-23 57t-57 23t-56.5 -23t-22.5 -57q0 -35 22.5 -57.5t56.5 -22.5z" />
    <glyph glyph-name="uni030B" unicode="&#x30b;" horiz-adv-x="0" 
d="M-866 1038l231 363l211 -70l-315 -336zM-498 1038l232 363l211 -70l-316 -336z" />
    <glyph glyph-name="uni030C" unicode="&#x30c;" horiz-adv-x="0" 
d="M-711 1036q0 132 -81.5 207.5t-229.5 75.5l84 164q111 0 186 -48t129 -135q56 89 134 136t196 47l84 -164q-311 0 -311 -244z" />
    <glyph glyph-name="uni0312" unicode="&#x312;" horiz-adv-x="0" 
d="M-590 1350q60 -8 100.5 -52t40.5 -102q0 -65 -48 -110.5t-115 -45.5q-15 0 -39 4q-39 6 -70.5 33t-49 68t-24.5 91t6 104.5t40.5 104.5t80.5 94.5t125 72.5l137 -101q-172 -76 -184 -161z" />
    <glyph glyph-name="dotbelowcomb" unicode="&#x323;" horiz-adv-x="0" 
d="M-614 -389q-68 0 -116 48.5t-48 115.5t48 115.5t116 48.5q67 0 115 -48t48 -116t-48 -116t-115 -48z" />
    <glyph glyph-name="uni0326" unicode="&#x326;" horiz-adv-x="0" 
d="M-571 -63q54 -8 93 -56t48 -117.5t-8 -143.5t-80 -143.5t-162 -107.5l-137 101q172 76 184 161q-60 8 -100.5 52t-40.5 102q0 64 48 110t116 46q15 0 39 -4z" />
    <glyph glyph-name="uni0327" unicode="&#x327;" horiz-adv-x="0" 
d="M-647 -12q52 -21 84.5 -65.5t32.5 -106.5q0 -80 -54 -133.5t-145 -53.5q-85 0 -141 44t-56 108l133 29q0 -28 18 -45t44 -17q31 0 50 21t19 49q0 32 -25.5 54t-53.5 22q-17 0 -35 -11l-23 -18l-96 96l219 168l96 -88z" />
    <glyph glyph-name="uni0328" unicode="&#x328;" horiz-adv-x="0" 
d="M-530 -203q0 138 107.5 239t291.5 136l37 -154q-9 0 -41.5 -13.5t-74.5 -37.5t-74.5 -67.5t-32.5 -94.5q0 -38 36 -52t78 -7.5t66 23.5l57 -162q-82 -44 -164.5 -50.5t-144.5 20t-101.5 84.5t-39.5 136z" />
    <glyph glyph-name="uni1E04" unicode="&#x1e04;" 
d="M152 -2v1264h391q220 0 328 -87.5t108 -265.5q0 -157 -113 -235q43 -19 76 -40.5t66 -56.5t51 -88t18 -120q0 -177 -119 -274t-333 -97h-473zM346 723h176q128 0 186 51t58 135q0 181 -244 181h-176v-367zM346 184h258q126 0 185 49t59 136q0 76 -63.5 122t-180.5 46
h-258v-353zM614 -410q-67 0 -115 48t-48 116t48 116t115 48q68 0 116 -48t48 -116t-48 -116t-116 -48z" />
    <glyph glyph-name="uni1E05" unicode="&#x1e05;" 
d="M651 934q213 0 337 -128.5t124 -350.5q0 -209 -130 -342t-331 -133q-157 0 -274 114l-29 -94h-170v1262l217 41v-467q112 98 256 98zM651 166q117 0 179.5 75.5t62.5 213.5q0 137 -64 215t-178 78q-103 0 -179.5 -87t-76.5 -206q0 -120 75 -204.5t181 -84.5zM614 -61
q68 0 116 -48.5t48 -115.5t-48 -115.5t-116 -48.5q-67 0 -115 48t-48 116t48 116t115 48z" />
    <glyph glyph-name="uni1E0C" unicode="&#x1e0c;" 
d="M967 1081q172 -187 172 -458q0 -268 -172 -455q-155 -168 -422 -168h-416v1262h416q253 0 422 -181zM545 176q167 0 265.5 121t98.5 326q0 210 -99.5 337t-264.5 127h-187v-911h187zM614 -61q68 0 116 -48.5t48 -115.5t-48 -115.5t-116 -48.5q-67 0 -115 48t-48 116
t48 116t115 48z" />
    <glyph glyph-name="uni1E0D" unicode="&#x1e0d;" 
d="M838 1262l217 41v-1303h-170l-29 94q-117 -114 -274 -114q-201 0 -331 133t-130 342q0 222 124 350.5t337 128.5q144 0 256 -98v426zM582 166q106 0 181 84.5t75 204.5q0 119 -76.5 206t-179.5 87q-114 0 -178 -78t-64 -215q0 -138 62.5 -213.5t179.5 -75.5zM614 -61
q68 0 116 -48.5t48 -115.5t-48 -115.5t-116 -48.5q-67 0 -115 48t-48 116t48 116t115 48z" />
    <glyph glyph-name="uni1E24" unicode="&#x1e24;" 
d="M868 1262h230v-1262h-230v573h-508v-573h-229v1262h229v-496h508v496zM614 -61q68 0 116 -48.5t48 -115.5t-48 -115.5t-116 -48.5q-67 0 -115 48t-48 116t48 116t115 48z" />
    <glyph glyph-name="uni1E25" unicode="&#x1e25;" 
d="M141 0v1262l199 41v-588q36 66 77 111.5t106.5 76.5t146.5 31q45 0 91 -8t103 -33.5t100.5 -66t73 -113.5t29.5 -168v-545h-236v487q0 67 -14.5 117t-35 75.5t-49 41t-49.5 19t-44 3.5q-32 0 -64.5 -7t-70.5 -27.5t-66.5 -53t-47.5 -90t-19 -131.5v-434h-230zM614 -389
q-67 0 -115 48t-48 116t48 116t115 48q68 0 116 -48.5t48 -115.5t-48 -115.5t-116 -48.5z" />
    <glyph glyph-name="uni1E36" unicode="&#x1e36;" 
d="M190 0v1204l230 58v-1065h655v-197h-885zM614 -389q-67 0 -115 48t-48 116t48 116t115 48q68 0 116 -48.5t48 -115.5t-48 -115.5t-116 -48.5z" />
    <glyph glyph-name="uni1E37" unicode="&#x1e37;" 
d="M121 0l55 180h340v922h-313l55 180h475v-1102h375v-180h-987zM614 -389q-67 0 -115 48t-48 116t48 116t115 48q68 0 116 -48.5t48 -115.5t-48 -115.5t-116 -48.5z" />
    <glyph glyph-name="uni1E3E" unicode="&#x1e3e;" 
d="M551 1386l231 363l211 -70l-315 -336zM59 0v1221l217 41l338 -578l338 537l219 41v-1262h-210v850l-252 -387h-189l-252 387v-850h-209z" />
    <glyph glyph-name="uni1E3F" unicode="&#x1e3f;" 
d="M489 1038l232 363l211 -70l-316 -336zM37 0v913h139l43 -204q21 82 84.5 153.5t149.5 71.5q65 0 125.5 -45t93.5 -115q43 85 93.5 122.5t131.5 37.5q139 0 217 -106t78 -306v-522h-213v440q0 31 -0.5 49.5t-2.5 53t-6.5 56.5t-13.5 49.5t-21.5 43.5t-32 27.5t-44.5 11.5
q-62 0 -95.5 -61.5t-33.5 -147.5v-522h-213v440q0 31 -0.5 49t-2.5 52.5t-6.5 56.5t-13 50t-21 44t-31.5 27.5t-44 11.5q-67 0 -107 -77t-40 -214v-440h-213z" />
    <glyph glyph-name="uni1E44" unicode="&#x1e44;" 
d="M614 1372q-67 0 -115 45.5t-48 110.5q0 64 47.5 109.5t115.5 45.5t116 -45.5t48 -109.5t-48 -110t-116 -46zM109 1221l217 41l561 -850v809l229 41v-1262h-217l-561 881v-881h-229v1221z" />
    <glyph glyph-name="uni1E45" unicode="&#x1e45;" 
d="M614 1108q-67 0 -115 45.5t-48 110.5q0 64 47.5 109.5t115.5 45.5t116 -45.5t48 -109.5t-48 -110t-116 -46zM141 0v913h140l38 -239q15 46 42 88.5t69 82.5t104 64.5t136 24.5q45 0 91 -8t103 -33.5t100.5 -66t73 -113.5t29.5 -168v-545h-215v487q0 67 -17 117t-40 75.5
t-55 41t-54.5 19t-46.5 3.5q-32 0 -64.5 -7t-70.5 -27.5t-66.5 -53t-47.5 -90t-19 -131.5v-434h-230z" />
    <glyph glyph-name="uni1E46" unicode="&#x1e46;" 
d="M109 1221l217 41l561 -850v809l229 41v-1262h-217l-561 881v-881h-229v1221zM614 -389q-67 0 -115 48t-48 116t48 116t115 48q68 0 116 -48.5t48 -115.5t-48 -115.5t-116 -48.5z" />
    <glyph glyph-name="uni1E47" unicode="&#x1e47;" 
d="M141 0v913h140l38 -239q15 46 42 88.5t69 82.5t104 64.5t136 24.5q45 0 91 -8t103 -33.5t100.5 -66t73 -113.5t29.5 -168v-545h-215v487q0 67 -17 117t-40 75.5t-55 41t-54.5 19t-46.5 3.5q-32 0 -64.5 -7t-70.5 -27.5t-66.5 -53t-47.5 -90t-19 -131.5v-434h-230z
M614 -389q-67 0 -115 48t-48 116t48 116t115 48q68 0 116 -48.5t48 -115.5t-48 -115.5t-116 -48.5z" />
    <glyph glyph-name="uni1E62" unicode="&#x1e62;" 
d="M63 246l177 121q31 -88 139.5 -142.5t255.5 -54.5q151 0 228 58t77 151q0 28 -9.5 50.5t-27 38t-35.5 26t-44 17.5t-42 10.5t-39 6.5l-282 43q-45 6 -86.5 17t-92.5 35.5t-88 58t-62.5 88.5t-25.5 123q0 156 117 264q135 125 381 125q168 0 290 -62t208 -192l-189 -100
q-33 75 -121 119.5t-194 44.5q-123 0 -192.5 -56.5t-69.5 -134.5q0 -28 11 -49.5t26 -34t40.5 -21.5t42.5 -12.5t44 -7.5l319 -49q178 -27 263 -109t85 -219q0 -168 -120 -282q-147 -137 -414 -137q-192 0 -348 71t-222 195zM614 -389q-67 0 -115 48t-48 116t48 116t115 48
q68 0 116 -48.5t48 -115.5t-48 -115.5t-116 -48.5z" />
    <glyph glyph-name="uni1E63" unicode="&#x1e63;" 
d="M166 176l162 141q72 -167 340 -167q91 0 133.5 31.5t42.5 97.5q0 61 -123 79l-229 35q-289 43 -289 250q0 113 96 197q49 43 124 68.5t150 25.5q162 0 265 -44.5t178 -146.5l-168 -108q-38 66 -104 96.5t-171 30.5q-69 0 -111 -32.5t-42 -86.5q0 -25 19.5 -40t84.5 -23
l256 -35q142 -20 211.5 -85.5t69.5 -180.5q0 -132 -92 -209q-110 -90 -303 -90q-377 0 -500 196zM614 -389q-67 0 -115 48t-48 116t48 116t115 48q68 0 116 -48.5t48 -115.5t-48 -115.5t-116 -48.5z" />
    <glyph glyph-name="uni1E6C" unicode="&#x1e6c;" 
d="M1139 1262v-197h-410v-1065h-229v1065h-418l55 197h1002zM614 -389q-67 0 -115 48t-48 116t48 116t115 48q68 0 116 -48.5t48 -115.5t-48 -115.5t-116 -48.5z" />
    <glyph glyph-name="uni1E6D" unicode="&#x1e6d;" 
d="M985 406l186 -60q-23 -176 -134 -273.5t-285 -97.5q-205 0 -333 127t-128 359v264h-254l55 188h199v291l217 58v-349h465l-55 -188h-410v-244q0 -323 252 -323q93 0 147.5 60t77.5 188zM614 -61q68 0 116 -48.5t48 -115.5t-48 -115.5t-116 -48.5q-67 0 -115 48t-48 116
t48 116t115 48z" />
    <glyph glyph-name="Wgrave" unicode="&#x1e80;" 
d="M698 1386l-127 -43l-315 336l211 70zM209 0l-195 1221l230 41l112 -897l164 528l189 41l168 -574l108 861l229 41l-194 -1262h-213l-193 543l-192 -543h-213z" />
    <glyph glyph-name="wgrave" unicode="&#x1e81;" 
d="M653 1038l-127 -43l-315 336l211 70zM12 893l230 41l90 -653l186 612l193 41l188 -649l88 608l230 41l-199 -934h-213l-189 629l-192 -629h-213z" />
    <glyph glyph-name="Wacute" unicode="&#x1e82;" 
d="M551 1386l231 363l211 -70l-315 -336zM209 0l-195 1221l230 41l112 -897l164 528l189 41l168 -574l108 861l229 41l-194 -1262h-213l-193 543l-192 -543h-213z" />
    <glyph glyph-name="wacute" unicode="&#x1e83;" 
d="M489 1038l232 363l211 -70l-316 -336zM12 893l230 41l90 -653l186 612l193 41l188 -649l88 608l230 41l-199 -934h-213l-189 629l-192 -629h-213z" />
    <glyph glyph-name="Wdieresis" unicode="&#x1e84;" 
d="M401 1352q-67 0 -115 48t-48 116t48 115.5t115 47.5q68 0 116 -48t48 -115q0 -68 -48.5 -116t-115.5 -48zM819 1352q-67 0 -115.5 48t-48.5 116q0 67 48 115t116 48t116 -48t48 -115q0 -68 -48.5 -116t-115.5 -48zM209 0l-195 1221l230 41l112 -897l164 528l189 41
l168 -574l108 861l229 41l-194 -1262h-213l-193 543l-192 -543h-213z" />
    <glyph glyph-name="wdieresis" unicode="&#x1e85;" 
d="M389 1116q-68 0 -116 46t-48 110t48 109.5t116 45.5t116 -45.5t48 -109.5t-48 -110t-116 -46zM807 1116q-68 0 -116 46t-48 110t48 109.5t116 45.5t116 -45.5t48 -109.5t-48 -110t-116 -46zM12 893l230 41l90 -653l186 612l193 41l188 -649l88 608l230 41l-199 -934h-213
l-189 629l-192 -629h-213z" />
    <glyph glyph-name="uni1E92" unicode="&#x1e92;" 
d="M90 0v197l752 868h-746l41 197h993v-197l-753 -868h753v-197h-1040zM614 -389q-67 0 -115 48t-48 116t48 116t115 48q68 0 116 -48.5t48 -115.5t-48 -115.5t-116 -48.5z" />
    <glyph glyph-name="uni1E93" unicode="&#x1e93;" 
d="M90 0v186l717 531h-725l55 196h993v-182l-716 -530h716v-201h-1040zM614 -389q-67 0 -115 48t-48 116t48 116t115 48q68 0 116 -48.5t48 -115.5t-48 -115.5t-116 -48.5z" />
    <glyph glyph-name="uni1EA0" unicode="&#x1ea0;" 
d="M33 0l469 1262l225 41l467 -1303h-229l-127 326h-451l-125 -326h-229zM453 522h321l-160 432zM614 -389q-67 0 -115 48t-48 116t48 116t115 48q68 0 116 -48.5t48 -115.5t-48 -115.5t-116 -48.5z" />
    <glyph glyph-name="uni1EA1" unicode="&#x1ea1;" 
d="M471 -20q-166 0 -265.5 73.5t-99.5 206.5q0 158 154.5 227.5t466.5 69.5v64q0 86 -43 117.5t-141 31.5q-144 0 -228 -121l-149 92q125 195 409 195q75 0 135.5 -14.5t98 -36t65 -53.5t40 -58.5t19.5 -60.5t8 -49t1 -35v-365q0 -73 39 -95t137 9l53 -158
q-1 -4 -31.5 -13.5t-79 -18t-87.5 -8.5q-49 0 -86.5 13t-62 37.5t-36 41.5t-24.5 43q-73 -135 -293 -135zM473 152q54 0 98.5 14.5t72.5 37t44.5 44t24.5 41.5q14 35 14 108q-110 -1 -179 -6.5t-123 -20t-77.5 -41t-23.5 -69.5q0 -108 149 -108zM614 -389q-67 0 -115 48
t-48 116t48 116t115 48q68 0 116 -48.5t48 -115.5t-48 -115.5t-116 -48.5z" />
    <glyph glyph-name="uni1EB8" unicode="&#x1eb8;" 
d="M1077 1069h-655v-319h582l-56 -193h-526v-362h655v-195h-884v1262h884v-193zM614 -61q68 0 116 -48.5t48 -115.5t-48 -115.5t-116 -48.5q-67 0 -115 48t-48 116t48 116t115 48z" />
    <glyph glyph-name="uni1EB9" unicode="&#x1eb9;" 
d="M104 481q0 121 63.5 224t182.5 166t268 63q238 0 369 -143.5t131 -397.5h-813q14 -103 95.5 -165t215.5 -62q44 0 74.5 4t71 17.5t76 45.5t65.5 82l166 -84q-141 -251 -453 -251q-101 0 -186.5 29t-144.5 78t-100.5 114t-61 136t-19.5 144zM305 549h594q0 77 -81 145
t-210 68q-122 0 -205.5 -60.5t-97.5 -152.5zM614 -389q-67 0 -115 48t-48 116t48 116t115 48q68 0 116 -48.5t48 -115.5t-48 -115.5t-116 -48.5z" />
    <glyph glyph-name="uni1EBC" unicode="&#x1ebc;" 
d="M428 1372l-168 53q-7 99 55.5 168.5t155.5 69.5q33 0 69 -12.5t53 -22.5t54 -33q71 -47 96 -47q24 0 39.5 31t16.5 92l168 -53q6 -98 -59.5 -168t-155.5 -70q-29 0 -60.5 11t-48.5 21t-49 30q-85 55 -111 55q-25 0 -41.5 -35.5t-13.5 -89.5zM1077 1069h-655v-319h582
l-56 -193h-526v-362h655v-195h-884v1262h884v-193z" />
    <glyph glyph-name="uni1EBD" unicode="&#x1ebd;" 
d="M260 1100q0 106 59 171.5t152 65.5q42 0 94.5 -28.5t100.5 -57t77 -28.5q24 0 39.5 31t16.5 92l168 -54q0 -99 -63.5 -168t-151.5 -69q-40 0 -87.5 29l-95 58t-86.5 29q-35 0 -45 -29.5t-10 -94.5zM104 481q0 121 63.5 224t182.5 166t268 63q238 0 369 -143.5t131 -397.5
h-813q14 -103 95.5 -165t215.5 -62q44 0 74.5 4t71 17.5t76 45.5t65.5 82l166 -84q-141 -251 -453 -251q-101 0 -186.5 29t-144.5 78t-100.5 114t-61 136t-19.5 144zM305 549h594q0 77 -81 145t-210 68q-122 0 -205.5 -60.5t-97.5 -152.5z" />
    <glyph glyph-name="uni1ECA" unicode="&#x1eca;" 
d="M143 0l56 197h301v868h-357l56 197h878v-197h-348v-868h348v-197h-934zM614 -389q-67 0 -115 48t-48 116t48 116t115 48q68 0 116 -48.5t48 -115.5t-48 -115.5t-116 -48.5z" />
    <glyph glyph-name="uni1ECB" unicode="&#x1ecb;" 
d="M588 1130q-68 0 -116 48t-48 116t48 116t116 48t116 -48t48 -116t-48 -116t-116 -48zM168 0l55 180h320v553h-334l55 180h488v-733h362v-180h-946zM614 -389q-67 0 -115 48t-48 116t48 116t115 48q68 0 116 -48.5t48 -115.5t-48 -115.5t-116 -48.5z" />
    <glyph glyph-name="uni1ECC" unicode="&#x1ecc;" 
d="M612 -20q-258 0 -426 186q-166 187 -166 465q0 291 166 469q170 182 426 182q249 0 422 -182q172 -184 172 -469q0 -284 -172 -465q-180 -186 -422 -186zM612 168q160 0 258.5 128t98.5 337q0 211 -98 338t-259 127q-160 0 -259 -128t-99 -337q0 -207 99 -336t259 -129z
M614 -389q-67 0 -115 48t-48 116t48 116t115 48q68 0 116 -48.5t48 -115.5t-48 -115.5t-116 -48.5z" />
    <glyph glyph-name="uni1ECD" unicode="&#x1ecd;" 
d="M614 -20q-202 0 -342 137q-137 134 -137 340q0 216 137 344q139 133 342 133q205 0 340 -135q140 -140 140 -342q0 -209 -140 -340q-143 -137 -340 -137zM616 152q117 0 189 83.5t72 221.5q0 139 -72 224t-189 85q-119 0 -191.5 -85t-72.5 -224q0 -138 72.5 -221.5
t191.5 -83.5zM614 -389q-67 0 -115 48t-48 116t48 116t115 48q68 0 116 -48.5t48 -115.5t-48 -115.5t-116 -48.5z" />
    <glyph glyph-name="uni1EE4" unicode="&#x1ee4;" 
d="M608 -20q-104 0 -187 28.5t-135 69.5t-89.5 107.5t-55 119t-27.5 129.5t-11 114.5t-1 96.5v559l230 58v-617v-2q0 -56 0.5 -86t6 -85t15.5 -87t30.5 -73.5t50 -64t75 -38.5t104.5 -16q58 0 103.5 16t75 38.5t50 64t30.5 73.5t15.5 87t6 86t0.5 87v559l229 58v-617
q0 -55 -1 -91.5t-11 -112.5t-28 -129.5t-56.5 -121t-91.5 -109.5t-137.5 -71.5t-190.5 -29.5zM614 -389q-67 0 -115 48t-48 116t48 116t115 48q68 0 116 -48.5t48 -115.5t-48 -115.5t-116 -48.5z" />
    <glyph glyph-name="uni1EE5" unicode="&#x1ee5;" 
d="M1067 934v-934h-139l-39 240q-15 -46 -42 -88.5t-68.5 -82.5t-103.5 -64.5t-136 -24.5q-45 0 -91 8t-103.5 33.5t-100.5 66t-73 113.5t-30 168v524l215 41v-508q0 -69 22.5 -121.5t58 -80.5t72.5 -41t73 -13q27 0 57 7t66.5 27.5t65 53t48 90t19.5 131.5v414zM614 -389
q-67 0 -115 48t-48 116t48 116t115 48q68 0 116 -48.5t48 -115.5t-48 -115.5t-116 -48.5z" />
    <glyph glyph-name="Ygrave" unicode="&#x1ef2;" 
d="M698 1386l-127 -43l-315 336l211 70zM86 1221l254 41l266 -519l262 498l275 21l-422 -775v-487h-229v487z" />
    <glyph glyph-name="ygrave" unicode="&#x1ef3;" 
d="M655 1038l-127 -43l-315 336l211 70zM838 893l229 41v-934q0 -60 -11 -114.5t-41 -110t-77 -95.5t-126 -65t-181 -25q-82 0 -148 17t-108.5 44.5t-71.5 64t-41 73.5t-12 76l180 59q0 -74 53 -118t154 -44q37 0 66.5 5.5t50 18.5t35.5 25.5t24 35t14.5 38.5t7.5 44.5
t2.5 44.5t0.5 46v117q-107 -157 -299 -157q-45 0 -91 8t-103.5 33.5t-100.5 66t-73 113.5t-30 168v524l215 41v-508q0 -69 22.5 -121.5t58 -80.5t72.5 -41t73 -13q27 0 57 7t66.5 27.5t65 53t48 90t19.5 131.5v414z" />
    <glyph glyph-name="uni1EF4" unicode="&#x1ef4;" 
d="M86 1221l254 41l266 -519l262 498l275 21l-422 -775v-487h-229v487zM614 -389q-67 0 -115 48t-48 116t48 116t115 48q68 0 116 -48.5t48 -115.5t-48 -115.5t-116 -48.5z" />
    <glyph glyph-name="uni1EF5" unicode="&#x1ef5;" 
d="M1067 0q0 -60 -11 -114.5t-41 -110t-77 -95.5t-126 -65t-181 -25q-82 0 -148 17t-108.5 44.5t-71.5 64t-41 73.5t-12 76l180 59q0 -74 53 -118t154 -44q37 0 66.5 5.5t50 18.5t35.5 25.5t24 35t14.5 38.5t7.5 44.5t2.5 44.5t0.5 46v117q-107 -157 -299 -157q-45 0 -91 8
t-103.5 33.5t-100.5 66t-73 113.5t-30 168v524l215 41v-508q0 -69 22.5 -121.5t58 -80.5t72.5 -41t73 -13q27 0 57 7t66.5 27.5t65 53t48 90t19.5 131.5v414l229 41v-934zM1229 -246q67 0 115.5 -48t48.5 -116q0 -67 -48 -115t-116 -48t-116 48t-48 115q0 68 48.5 116
t115.5 48z" />
    <glyph glyph-name="uni1EF8" unicode="&#x1ef8;" 
d="M260 1425q-7 99 55.5 168.5t155.5 69.5q33 0 69 -12.5t53 -22.5t54 -33q71 -47 96 -47q24 0 39.5 31t16.5 92l168 -53q6 -98 -59.5 -168t-155.5 -70q-29 0 -60.5 11t-48.5 21t-49 30q-85 55 -111 55q-25 0 -41.5 -35.5t-13.5 -89.5zM86 1221l254 41l266 -519l262 498
l275 21l-422 -775v-487h-229v487z" />
    <glyph glyph-name="uni1EF9" unicode="&#x1ef9;" 
d="M485 1171q-35 0 -45 -29.5t-10 -94.5l-168 53q0 106 59 171.5t152 65.5q42 0 94.5 -28.5t100.5 -57t77 -28.5q24 0 39.5 31t16.5 92l168 -54q0 -99 -63.5 -168t-151.5 -69q-40 0 -87.5 29l-95 58t-86.5 29zM838 893l229 41v-934q0 -60 -11 -114.5t-41 -110t-77 -95.5
t-126 -65t-181 -25q-82 0 -148 17t-108.5 44.5t-71.5 64t-41 73.5t-12 76l180 59q0 -74 53 -118t154 -44q37 0 66.5 5.5t50 18.5t35.5 25.5t24 35t14.5 38.5t7.5 44.5t2.5 44.5t0.5 46v117q-107 -157 -299 -157q-45 0 -91 8t-103.5 33.5t-100.5 66t-73 113.5t-30 168v524
l215 41v-508q0 -69 22.5 -121.5t58 -80.5t72.5 -41t73 -13q27 0 57 7t66.5 27.5t65 53t48 90t19.5 131.5v414z" />
    <glyph glyph-name="endash" unicode="&#x2013;" 
d="M260 631h764l-55 -180h-764z" />
    <glyph glyph-name="emdash" unicode="&#x2014;" 
d="M25 631h1235l-56 -180h-1235z" />
    <glyph glyph-name="quoteleft" unicode="&#x2018;" 
d="M659 1094q60 -8 101 -52t41 -102q0 -64 -48 -110t-116 -46q-15 0 -39 4q-54 8 -93 56t-48 117.5t8 143.5t80 143.5t162 107.5l137 -101q-173 -77 -185 -161z" />
    <glyph glyph-name="quoteright" unicode="&#x2019;" 
d="M637 1372q54 -8 93 -56t48 -117t-8 -143t-80 -143.5t-162 -107.5l-137 100q171 76 184 162q-60 8 -100.5 52t-40.5 102q0 64 48 109.5t116 45.5q15 0 39 -4z" />
    <glyph glyph-name="quotesinglbase" unicode="&#x201a;" 
d="M637 287q54 -8 93 -56t48 -117.5t-8 -143.5t-80 -143.5t-162 -107.5l-137 101q171 76 184 162q-60 8 -100.5 51.5t-40.5 101.5q0 64 48 110t116 46q15 0 39 -4z" />
    <glyph glyph-name="quotedblleft" unicode="&#x201c;" 
d="M608 1255q-172 -76 -184 -161q60 -8 100.5 -52t40.5 -102q0 -64 -48 -110t-116 -46q-15 0 -39 4q-54 8 -93 56t-48 117.5t8 143.5t80 143.5t162 107.5zM848 1090q60 -8 100.5 -52t40.5 -102q0 -64 -48 -110t-116 -46q-15 0 -39 4q-54 8 -93 56t-48 117.5t8 143.5
t80 143.5t162 107.5l137 -101q-172 -76 -184 -161z" />
    <glyph glyph-name="quotedblright" unicode="&#x201d;" 
d="M463 1352q54 -8 93 -56t48 -117.5t-8 -143.5t-80 -143.5t-162 -107.5l-137 101q171 76 184 162q-60 8 -100.5 51.5t-40.5 101.5q0 64 48 110t116 46q15 0 39 -4zM887 1348q54 -8 93 -56t48 -117.5t-8 -143.5t-80 -143.5t-162 -107.5l-137 101q172 76 184 161
q-60 8 -100.5 52t-40.5 102q0 64 48 110t116 46q15 0 39 -4z" />
    <glyph glyph-name="quotedblbase" unicode="&#x201e;" 
d="M442 287q39 -6 70.5 -33t49 -68t24.5 -91t-6 -104.5t-40.5 -104.5t-80.5 -94.5t-125 -72.5l-137 101q171 76 184 162q-60 8 -100.5 51.5t-40.5 101.5q0 65 48 110.5t115 45.5q15 0 39 -4zM866 287q39 -6 70.5 -33t49 -68t24.5 -91t-6 -104.5t-40.5 -104.5t-80.5 -94.5
t-125 -72.5l-137 101q171 76 184 162q-60 8 -100.5 51.5t-40.5 101.5q0 65 48 110.5t115 45.5q15 0 39 -4z" />
    <glyph glyph-name="dagger" unicode="&#x2020;" 
d="M956 954h-213v-436l-229 -41v477h-281l58 189h223v211l229 41v-252h271z" />
    <glyph glyph-name="daggerdbl" unicode="&#x2021;" 
d="M233 668l58 188h223v119h-281l58 188h223v191l229 41v-232h271l-58 -188h-213v-119h271l-58 -188h-213v-150l-229 -41v191h-281z" />
    <glyph glyph-name="bullet" unicode="&#x2022;" 
d="M614 270q-107 0 -184.5 77.5t-77.5 184.5t77.5 185t184.5 78t185 -78t78 -185t-78 -184.5t-185 -77.5z" />
    <glyph glyph-name="ellipsis" unicode="&#x2026;" 
d="M287 -20q-68 0 -116 48t-48 115t48.5 115.5t115.5 48.5t115.5 -48.5t48.5 -115.5t-48 -115t-116 -48zM676 -20q-68 0 -116 48t-48 115t48 115.5t116 48.5t116 -48.5t48 -115.5t-48 -115t-116 -48zM1065 -20q-68 0 -116 48t-48 115t48.5 115.5t115.5 48.5t115.5 -48.5
t48.5 -115.5t-48 -115t-116 -48z" />
    <glyph glyph-name="perthousand" unicode="&#x2030;" 
d="M1200 952q84 -81 84 -202q0 -120 -84 -201q-79 -82 -205 -82q-116 0 -202 80q-84 81 -84 198q0 27 2 41l-217 -317q73 51 165 51q113 0 205 -80q84 -81 84 -202q0 -120 -84 -201q-79 -82 -205 -82q-116 0 -202 80q-84 81 -84 198q0 41 8 74l-242 -352h-221l582 846
q-75 -60 -178 -60q-118 0 -205 80q-84 78 -84 203q0 120 84 201q79 82 202 82q113 0 205 -80q84 -81 84 -203q0 -37 -10 -82l250 365h221l-211 -308q68 33 137 33q113 0 205 -80zM319 901q45 0 73 34t28 89t-28 89t-73 34q-44 0 -71 -33.5t-27 -89.5t27 -89.5t71 -33.5z
M995 627q45 0 73 34t28 89t-28 88.5t-73 33.5q-44 0 -71 -33.5t-27 -88.5q0 -56 27 -89.5t71 -33.5zM659 360q-44 0 -71 -33.5t-27 -88.5q0 -56 27 -89.5t71 -33.5q45 0 73 34t28 89t-28 88.5t-73 33.5z" />
    <glyph glyph-name="guilsinglleft" unicode="&#x2039;" 
d="M549 477q123 -82 224.5 -175.5t135.5 -170.5l-176 -94q-22 53 -125.5 138.5t-201.5 147t-127 68.5l61 197q48 14 225 145.5t209 208.5l176 -94q-25 -56 -97 -128.5t-147.5 -131t-156.5 -111.5z" />
    <glyph glyph-name="guilsinglright" unicode="&#x203a;" 
d="M518 940q22 -53 125.5 -138.5t202 -147t127.5 -68.5l-62 -197q-48 -14 -225 -145.5t-209 -208.5l-176 94q25 56 97 128.5t147.5 131t156.5 111.5q-123 82 -224.5 175.5t-135.5 170.5z" />
    <glyph glyph-name="fraction" unicode="&#x2044;" 
d="M-20 -121l1130 1544l127 -86l-1139 -1546z" />
    <glyph glyph-name="Euro" unicode="&#x20ac;" 
d="M983 500l197 -86q-46 -156 -129 -244q-181 -190 -422 -190q-255 0 -426 190q-78 83 -123 199h-107l56 180h12q-4 54 -4 82v24h-64l56 181h32q36 147 142 262q172 184 426 184q104 0 181 -22.5t128 -59t113 -102.5q84 -90 123 -199l-211 -59q-43 129 -129 197.5t-205 68.5
t-206.5 -71.5t-127.5 -198.5h539l-56 -181h-512v-24q0 -28 4 -82h564l-56 -180h-461q46 -99 127.5 -154t184.5 -55q135 0 229 90t125 250z" />
    <glyph glyph-name="uni20B9" unicode="&#x20b9;" 
d="M979 799q-26 -76 -85.5 -138.5t-141.5 -99.5q115 -89 178.5 -229.5t62.5 -331.5h-229q1 109 -28 198t-78 147.5t-116.5 98t-141 57t-152.5 17.5h-2l61 180h244q57 0 106.5 28t77.5 73h-528l63 180h467q-59 102 -186 102h-350l63 181h899l-65 -181h-172q32 -43 51 -102
h192l-65 -180h-125z" />
    <glyph glyph-name="trademark" unicode="&#x2122;" 
d="M223 631v469h-219l45 162h537v-162h-164v-469h-199zM631 631v610l180 21l111 -240l112 213l180 27v-631h-174v334l-45 -140h-145l-47 140v-334h-172z" />
    <glyph glyph-name="arrowleft" unicode="&#x2190;" 
d="M451 455q201 -159 245 -260l-176 -95q-22 53 -122 138.5t-193.5 147.5t-118.5 69l-61 196q29 7 127 69t201.5 147.5t125.5 138.5l176 -95q-48 -107 -241 -260h729l61 -196h-753z" />
    <glyph glyph-name="arrowup" unicode="&#x2191;" 
d="M713 1143q7 -29 68.5 -127.5t147 -202t138.5 -125.5l-94 -176q-106 48 -260 242v-729l-197 -62v754q-160 -202 -260 -246l-94 176q77 32 208.5 209t145.5 225z" />
    <glyph glyph-name="arrowright" unicode="&#x2192;" 
d="M750 1006q22 -53 125.5 -138.5t201.5 -147.5t127 -69l-61 -196q-25 -7 -118.5 -69t-193.5 -147.5t-122 -138.5l-177 95q44 100 246 260h-753l61 196h729q-194 154 -242 260z" />
    <glyph glyph-name="arrowdown" unicode="&#x2193;" 
d="M973 635l94 -176q-77 -32 -208.5 -209t-145.5 -225l-197 -62q-7 29 -68.5 127.5t-147 202t-138.5 125.5l94 176q106 -48 260 -242v729l197 62v-754q160 202 260 246z" />
    <glyph glyph-name="arrowboth" unicode="&#x2194;" 
d="M1210 639l-2 -8l-55 -180h-727q149 -130 211 -287l-176 -92q-76 164 -183.5 254.5t-259.5 119.5l21 68l37 117h2v2q2 0 5 -1t5 -1h719q-150 131 -215 291l176 92q76 -165 183 -255.5t259 -119.5z" />
    <glyph glyph-name="arrowupdn" unicode="&#x2195;" 
d="M995 565l92 -176q-165 -76 -255 -183t-119 -259l-8 2l-181 55v727q-131 -150 -286 -211l-93 176q165 76 255.5 183.5t119.5 259.5l68 -21l117 -37v-2h2q0 -2 -1 -5t-1 -5v-719q131 151 290 215z" />
    <glyph glyph-name="uni2196" unicode="&#x2196;" 
d="M1059 250l-96 -184l-535 534q33 -249 -8 -358l-193 57q32 78 0.5 293.5t-55.5 265.5l96 182q24 -16 141.5 -42t239.5 -38t191 9l57 -191q-108 -43 -352 -14z" />
    <glyph glyph-name="uni2197" unicode="&#x2197;" 
d="M1102 899q-16 -24 -42 -141.5t-38.5 -239t8.5 -190.5l-190 -58q-44 110 -15 353l-514 -514l-184 96l535 534q-248 -33 -359 9l57 192q78 -32 294 -0.5t266 55.5z" />
    <glyph glyph-name="uni2198" unicode="&#x2198;" 
d="M1001 807q-32 -77 0 -293t56 -266l-96 -182q-24 16 -141.5 42t-239.5 38t-191 -9l-57 191q108 43 352 14l-514 514l96 184l535 -534q-33 249 8 358z" />
    <glyph glyph-name="uni2199" unicode="&#x2199;" 
d="M567 367q248 33 359 -9l-58 -192q-78 32 -293.5 0.5t-265.5 -55.5l-182 96q16 24 42 141.5t38.5 239t-8.5 190.5l190 58q43 -108 14 -353l515 514l184 -96z" />
    <glyph glyph-name="minus" unicode="&#x2212;" 
d="M240 631h804l-55 -180h-805z" />
    <glyph glyph-name="approxequal" unicode="&#x2248;" 
d="M844 535q-55 0 -107.5 24.5t-93 59.5t-78 69.5t-76.5 59t-75 24.5q-55 0 -75 -53.5t-20 -153.5l-196 68q0 152 82.5 248t206.5 96q60 0 113.5 -24.5t91.5 -59t71 -69t66.5 -59t64.5 -24.5q42 0 60 48.5t18 154.5l207 -65q0 -158 -73.5 -251t-186.5 -93zM844 43
q-55 0 -107.5 24.5t-93 59.5t-78 70t-76.5 59.5t-75 24.5q-55 0 -75 -53.5t-20 -153.5l-196 67q0 152 82.5 248t206.5 96q50 0 96.5 -17.5t79.5 -43.5t65.5 -56.5t57.5 -56.5t53.5 -43.5t54.5 -17.5q42 0 60 48.5t18 154.5l207 -66q0 -158 -73.5 -251t-186.5 -93z" />
    <glyph glyph-name="notequal" unicode="&#x2260;" 
d="M707 553l-27 -107h364l-55 -180h-354l-55 -219h-168l55 219h-283l56 180h272l27 107h-355l56 180h344l53 215h168l-53 -215h292l-55 -180h-282z" />
    <glyph glyph-name="lessequal" unicode="&#x2264;" 
d="M147 834l977 387v-220l-684 -272l684 -285v-219l-1026 402zM1124 12v-219l-1015 402l43 217z" />
    <glyph glyph-name="greaterequal" unicode="&#x2265;" 
d="M1079 612l-977 -387v219l684 273l-684 284v220l1026 -402zM102 33l965 383l-47 -226l-918 -376v219z" />
    <glyph glyph-name="i.loclTRK" 
d="M614 1108q-67 0 -115 45.5t-48 110.5q0 64 47.5 109.5t115.5 45.5t116 -45.5t48 -109.5t-48 -110t-116 -46zM168 0l55 180h320v553h-334l55 180h488v-733h362v-180h-946z" />
    <glyph glyph-name="zero.dnom" horiz-adv-x="882" 
d="M723 395q119 -150 119 -338q0 -181 -115 -329q-107 -138 -287 -138q-178 0 -288 138q-113 142 -113 329q0 191 115 336q52 65 128 99t158 34t157 -33.5t126 -97.5zM440 346q-83 0 -136.5 -82.5t-53.5 -206.5q0 -118 47 -192l180 475q-15 6 -37 6zM440 -227q82 0 136.5 81
t54.5 203q0 112 -45 191l-180 -471q20 -4 34 -4z" />
    <glyph glyph-name="one.dnom" 
d="M569 -233h236v-177h-696l49 177h198v428q-88 -43 -194 -43l-78 157q67 0 122 20t86 50.5t47.5 62t16.5 58.5h213v-733z" />
    <glyph glyph-name="two.dnom" horiz-adv-x="884" 
d="M55 -410v88q0 73 25 129t63 88t90 59t99.5 43.5t98 41t79.5 51.5q80 50 80 137q0 52 -40.5 87.5t-105.5 35.5q-85 0 -130.5 -56t-45.5 -167l-205 37q0 177 105 262q109 88 274 88q163 0 262 -81t99 -228q0 -149 -92 -215q-35 -26 -110.5 -55t-138 -50.5t-112 -55.5
t-49.5 -73h530v-166h-776z" />
    <glyph glyph-name="three.dnom" 
d="M778 233q105 -33 171.5 -113.5t66.5 -182.5q0 -148 -111.5 -247.5t-275.5 -99.5q-149 0 -254.5 74t-120.5 184l192 41q-12 -51 44 -92t135 -41q84 0 137 51t53 132q0 60 -45 101.5t-117.5 45.5t-163.5 -47l-40 -29l-144 131l277 201h-359l58 172h655v-172z" />
    <glyph glyph-name="four.dnom" 
d="M805 -102v-177h-96v-131h-199v131h-367q-6 -2 -18 -2v2h-72v177h4q31 10 104 79.5t120 163.5q19 38 28 63t16.5 96t4.5 179l211 21q0 -84 -3 -144t-19.5 -147t-47.5 -152q-29 -64 -113 -159h152v243l199 -55v-188h96z" />
    <glyph glyph-name="five.dnom" 
d="M420 283q78 0 146 -20.5t122 -61t85.5 -107.5t31.5 -153q0 -155 -110.5 -249.5t-270.5 -94.5q-151 0 -255.5 70t-119.5 175l195 45q-12 -50 42 -90.5t132 -40.5q76 0 130 55t54 130q0 69 -56 120.5t-134 51.5q-54 0 -100.5 -27.5t-69.5 -73.5q-1 -4 -4.5 -11l-4.5 -9
l-194 51q12 37 38.5 110.5t31.5 93t16.5 69.5t13.5 94.5t2 113.5h627l-43 -170h-379q0 -30 -10 -78q47 7 84 7z" />
    <glyph glyph-name="six.dnom" 
d="M635 223q97 -41 157 -120.5t60 -174.5q0 -138 -113 -234.5t-270 -96.5q-160 0 -272 69t-142 189q-17 69 -22.5 154t15 189t73.5 167q76 90 158 130t184 40q56 0 119.5 -17.5t120.5 -49t91 -85t27 -117.5zM295 279q-54 -67 -57 -72q140 51 229 51q75 0 145 -25
q18 58 -20.5 97t-128.5 39q-49 0 -88.5 -20.5t-79.5 -69.5zM465 -236q77 0 129.5 46.5t52.5 113.5q0 69 -53.5 118.5t-128.5 49.5q-56 0 -96.5 -21.5t-59 -54t-27 -70.5t0.5 -71q9 -50 56 -80.5t126 -30.5z" />
    <glyph glyph-name="seven.dnom" 
d="M109 520h727v-178q-12 -1 -47.5 -16.5t-83 -42.5t-98 -75.5t-81.5 -103.5q-27 -49 -43.5 -114.5t-22 -148t-6.5 -120.5t-1 -110h-215q-3 128 21 281t75 270q36 80 143 180h-428z" />
    <glyph glyph-name="eight.dnom" 
d="M721 90q117 -91 117 -209q0 -134 -115 -207q-125 -77 -281 -77q-77 0 -150 21t-124 56q-117 80 -117 207q0 133 119 213l33 21q-80 71 -80 166q0 102 94 180q86 71 225 71q132 0 224 -71q98 -73 98 -180q0 -99 -80 -166zM442 375q-47 0 -74.5 -28.5t-27.5 -74.5
q0 -43 27.5 -67.5t74.5 -24.5q48 0 75.5 23.5t27.5 68.5q0 47 -28 75t-75 28zM442 -252q83 0 125.5 34t42.5 97q0 69 -44.5 108.5t-123.5 39.5q-77 0 -121.5 -39t-44.5 -109q0 -62 41 -96.5t125 -34.5z" />
    <glyph glyph-name="nine.dnom" 
d="M829 272q17 -67 22.5 -151.5t-15 -189.5t-74.5 -169q-139 -165 -340 -165q-59 0 -122.5 17.5t-120 49t-90 84t-26.5 115.5l185 45q-96 41 -155.5 120.5t-59.5 174.5q0 138 113 235t270 97q158 0 269.5 -69t143.5 -194zM420 365q-78 0 -131 -46t-53 -114t54 -117t130 -49
q44 0 79.5 14t55.5 36.5t34 51t15 57t-2 54.5q-9 53 -55.5 83t-126.5 30zM590 -150q29 38 57 74q-135 -51 -231 -51q-76 0 -146 25q-13 -61 26 -99.5t126 -38.5q95 0 168 90z" />
    <glyph glyph-name="zero.numr" horiz-adv-x="882" 
d="M723 1214q119 -150 119 -337q0 -182 -115 -330q-107 -137 -287 -137q-179 0 -288 137q-113 142 -113 330q0 190 115 335q52 66 128 100t158 34t157 -34t126 -98zM440 1165q-83 0 -136.5 -82t-53.5 -206q0 -119 47 -193l180 475q-15 6 -37 6zM440 592q82 0 136.5 81.5
t54.5 203.5q0 111 -45 190l-180 -471q20 -4 34 -4z" />
    <glyph glyph-name="one.numr" 
d="M569 549h236v-176h-696l49 176h198v428q-88 -43 -194 -43l-78 158q132 0 202 58.5t70 131.5h213v-733z" />
    <glyph glyph-name="two.numr" horiz-adv-x="884" 
d="M55 358v88q0 73 25 129t63 88t90 59t99.5 43.5t98 41t79.5 51.5q80 50 80 137q0 52 -40.5 87.5t-105.5 35.5q-85 0 -130.5 -56t-45.5 -167l-205 37q0 177 105 262q109 88 274 88q163 0 262 -81t99 -228q0 -149 -92 -215q-35 -26 -110.5 -55t-138 -50.5t-112 -55.5
t-49.5 -73h530v-166h-776z" />
    <glyph glyph-name="three.numr" 
d="M602 1001q105 -33 171.5 -113.5t66.5 -182.5q0 -148 -111.5 -247.5t-275.5 -99.5q-149 0 -254.5 74t-120.5 184l192 41q-12 -51 44 -92t135 -41q84 0 137 51t53 132q0 60 -45 101.5t-117.5 45.5t-163.5 -47l-41 -29l-143 131l277 201h-359l57 172h656v-172z" />
    <glyph glyph-name="four.numr" 
d="M805 666v-177h-96v-131h-199v131h-367q-6 -2 -18 -2v2h-72v177h4q31 10 104 79.5t120 163.5q19 38 28 63t16.5 96t4.5 179l211 21q0 -84 -3 -144t-19.5 -147t-47.5 -152q-29 -64 -113 -159h152v243l199 -55v-188h96z" />
    <glyph glyph-name="five.numr" 
d="M420 1044q78 0 146 -20.5t122 -61t85.5 -107.5t31.5 -153q0 -155 -110.5 -249.5t-270.5 -94.5q-151 0 -255.5 70.5t-119.5 175.5l195 45q-12 -50 42 -90.5t132 -40.5q76 0 130 54.5t54 129.5q0 69 -56 120.5t-134 51.5q-54 0 -100.5 -27t-69.5 -73q-1 -4 -4.5 -11
l-4.5 -9l-194 51q12 37 38.5 110.5t31.5 93t16.5 69.5t13.5 94.5t2 113.5h627l-43 -170h-379q0 -30 -10 -78q40 6 84 6z" />
    <glyph glyph-name="six.numr" 
d="M635 985q97 -41 157 -120.5t60 -174.5q0 -138 -113 -235t-270 -97q-160 0 -272 69t-142 189q-17 69 -22.5 154t15 189t73.5 167q76 90 158 130t184 40q44 0 94 -10.5t99.5 -32.5t88.5 -52.5t60.5 -75.5t15.5 -97zM295 1040q-5 -6 -17 -20t-22 -26.5t-18 -24.5
q140 51 229 51q75 0 145 -25q18 58 -20.5 96.5t-128.5 38.5q-49 0 -88.5 -20.5t-79.5 -69.5zM465 526q77 0 129.5 46.5t52.5 113.5q0 69 -53.5 118.5t-128.5 49.5q-56 0 -96.5 -21.5t-59 -54t-27 -70.5t0.5 -71q9 -50 56 -80.5t126 -30.5z" />
    <glyph glyph-name="seven.numr" 
d="M109 1268h727v-178q-12 -1 -47.5 -16.5t-83 -42.5t-98 -75.5t-81.5 -103.5q-22 -39 -37 -96.5t-22 -102.5t-10.5 -116t-3.5 -95.5v-83.5h-215q-3 128 21 281t75 270q37 82 143 181h-428z" />
    <glyph glyph-name="eight.numr" 
d="M721 852q117 -92 117 -209q0 -134 -115 -207q-126 -78 -281 -78q-77 0 -150 21.5t-124 56.5q-117 80 -117 207q0 133 119 213l33 21q-80 71 -80 165q0 103 94 181q86 71 225 71q132 0 224 -71q98 -73 98 -181q0 -98 -80 -165zM442 1137q-47 0 -74.5 -28.5t-27.5 -74.5
q0 -43 27.5 -67.5t74.5 -24.5q48 0 75.5 23.5t27.5 68.5q0 47 -28 75t-75 28zM442 510q83 0 125.5 34t42.5 97q0 69 -44.5 108t-123.5 39q-77 0 -121.5 -38.5t-44.5 -108.5q0 -62 41 -96.5t125 -34.5z" />
    <glyph glyph-name="nine.numr" 
d="M829 1034q17 -67 22.5 -151.5t-15 -189.5t-74.5 -169q-139 -166 -340 -166q-59 0 -122.5 17.5t-120 49.5t-90 84.5t-26.5 115.5l185 45q-96 41 -155.5 120.5t-59.5 174.5q0 138 113 234.5t270 96.5q159 0 270 -68.5t143 -193.5zM420 1126q-78 0 -131 -46t-53 -113
q0 -68 54 -117t130 -49q44 0 79.5 14t55.5 36.5t34 51t15 57t-2 54.5q-9 52 -55.5 82t-126.5 30zM590 612q29 38 57 74q-135 -51 -231 -51q-78 0 -146 24q-13 -61 25.5 -99t126.5 -38q95 0 168 90z" />
    <glyph glyph-name="uni0308.case" horiz-adv-x="0" 
d="M-827 1352q-67 0 -115.5 48t-48.5 116q0 67 48 115t116 48q67 0 115 -47.5t48 -115.5t-48 -116t-115 -48zM-410 1352q-67 0 -115 48t-48 116t47.5 115.5t115.5 47.5t116 -48t48 -115q0 -68 -48 -116t-116 -48z" />
    <glyph glyph-name="uni0307.case" horiz-adv-x="0" 
d="M-614 1372q-68 0 -116 46t-48 110t48 109.5t116 45.5t115.5 -45.5t47.5 -109.5q0 -65 -48 -110.5t-115 -45.5z" />
    <glyph glyph-name="gravecomb.case" horiz-adv-x="0" 
d="M-530 1386l-127 -43l-316 336l211 70z" />
    <glyph glyph-name="acutecomb.case" horiz-adv-x="0" 
d="M-678 1386l232 363l210 -70l-315 -336z" />
    <glyph glyph-name="uni030B.case" horiz-adv-x="0" 
d="M-862 1407l231 362l211 -69l-315 -336zM-453 1407l232 362l211 -69l-316 -336z" />
    <glyph glyph-name="uni0302.case" horiz-adv-x="0" 
d="M-510 1782q0 -132 81.5 -207.5t229.5 -75.5l-84 -164q-111 0 -186 48t-129 135q-56 -89 -134 -136t-196 -47l-84 164q148 0 230 59t82 185z" />
    <glyph glyph-name="uni030C.case" horiz-adv-x="0" 
d="M-700 1364q0 132 -82 207.5t-230 75.5l84 163q111 0 186.5 -47.5t129.5 -134.5q56 89 133.5 135.5t195.5 46.5l84 -163q-311 0 -311 -244z" />
    <glyph glyph-name="uni0306.case" horiz-adv-x="0" 
d="M-582 1360q-73 0 -128 22t-85 52t-48.5 71t-24 70.5t-6.5 58.5l178 58q3 -168 131 -168q44 0 70 29.5t28 80.5l193 58q-3 -158 -84 -245t-224 -87z" />
    <glyph glyph-name="uni030A.case" horiz-adv-x="0" 
d="M-621 1358q-86 0 -143 56t-57 142t57.5 144.5t140.5 58.5q88 0 145.5 -56.5t57.5 -141.5q0 -88 -57.5 -145.5t-143.5 -57.5zM-621 1475q35 0 59.5 24.5t24.5 59.5t-24.5 59t-59.5 24t-59.5 -24t-24.5 -59q0 -36 24 -60t60 -24z" />
    <glyph glyph-name="tildecomb.case" horiz-adv-x="0" 
d="M-969 1425q-7 99 55.5 168.5t155.5 69.5q33 0 69 -12.5t53 -22.5t54 -33q71 -47 97 -47q52 0 55 123l168 -53q6 -98 -59.5 -168t-155.5 -70q-29 0 -60.5 11t-48.5 21t-49 30q-85 55 -110 55t-42 -35.5t-14 -89.5z" />
    <glyph glyph-name="uni0304.case" horiz-adv-x="0" 
d="M-948 1552h723l-56 -180h-723z" />
    <glyph glyph-name="uni0327.case" horiz-adv-x="0" 
d="M-647 -12q52 -21 84.5 -65.5t32.5 -106.5q0 -80 -54 -133.5t-145 -53.5q-85 0 -141 44t-56 108l133 29q0 -28 18 -45t44 -17q31 0 50 21t19 49q0 32 -25.5 54t-53.5 22q-17 0 -35 -11l-23 -18l-96 96l219 168l96 -88z" />
    <glyph glyph-name="engtail" 
d="M1087 -61q-1 -24 -2.5 -43.5t-8.5 -56t-18 -65t-34 -62t-53.5 -55.5t-79 -37t-107.5 -15q-113 0 -199 73t-114 191l199 59q20 -69 46.5 -98t67.5 -29q74 0 74 138v86h229v-86z" />
  </font>
</defs>
</svg>
