<svg xmlns="http://www.w3.org/2000/svg" xmlns:xlink="http://www.w3.org/1999/xlink" viewBox="0 0 56 110"><defs><linearGradient id="a" x1="27.54" y1="19.74" x2="27.54" y2="24" gradientUnits="userSpaceOnUse"><stop offset="0" stop-color="#4b6b38"/><stop offset="1" stop-color="#618b49"/></linearGradient><linearGradient id="b" x1="29.33" y1="61.43" x2="26.67" y2="66.04" xlink:href="#a"/><linearGradient id="c" x1="28" y1="98.5" x2="28" y2="106.35" xlink:href="#a"/><style>.a{fill:#618b49}</style></defs><path class="a" d="M22 34.05V0h12v110H22V34.05z"/><path fill="url(#a)" d="M21.45 24h12.17l-6.08-4.26L21.45 24z"/><path fill="url(#b)" d="M34 66.07v4.21l-12-8.87V57.2l12 8.87z"/><path fill="url(#c)" d="M28 102.74l-6-4.24v3.63l6 4.22 6-4.22V98.5l-6 4.24z"/><path class="a" d="M40 28.25V38h16V25.81L28 6.19 0 25.81v15.14l40 29.59v10.21l-11.99 8.56L16 80.75V71H0v12.53l27.51 19.63L55 83.53V68.42l-40-29.9V28.25l12.5-8.53L40 28.25z"/></svg>
