<svg xmlns="http://www.w3.org/2000/svg" xmlns:xlink="http://www.w3.org/1999/xlink" viewBox="0 0 711 110"><defs><linearGradient id="a" x1="618.82" y1="20.74" x2="618.82" y2="25" gradientUnits="userSpaceOnUse"><stop offset="0" stop-color="#4b6b38"/><stop offset="1" stop-color="#618b49"/></linearGradient><linearGradient id="b" x1="620.33" y1="62.31" x2="617.67" y2="66.92" xlink:href="#a"/><linearGradient id="c" x1="619" y1="99.38" x2="619" y2="107.23" xlink:href="#a"/><style>.a{fill:#618b49}</style></defs><path class="a" d="M613 34.05V0h12v110h-12V34.05z"/><path fill="url(#a)" d="M612.74 25h12.16l-6.08-4.26-6.08 4.26z"/><path fill="url(#b)" d="M625 66.95v4.21l-12-8.87v-4.21l12 8.87z"/><path fill="url(#c)" d="M619 103.62l-6-4.24v3.63l6 4.22 6-4.22v-3.63l-6 4.24z"/><path class="a" d="M631 29.25V39h16V26.81L619 7.19l-28 19.62v15.02l40 29.59v9.33l-11.99 8.56L607 80.75V71h-16v12.53l28.01 19.63L647 83.53V69.3l-40-29.9V29.25l12-8.53 12 8.53zM657 22h14v27h26V22h14v66h-14V61h-26v27h-14zM0 22h15v27h26V22h14v66H41V61H15v28H0zM125.39 72.75a30.57 30.57 0 01-11.69 12.12 33.37 33.37 0 01-17.1 4.37 33.37 33.37 0 01-17.1-4.37 30.48 30.48 0 01-11.68-12.12 35.85 35.85 0 01-4.18-17.33 35.86 35.86 0 014.18-17.34A30.45 30.45 0 0179.5 26a33.27 33.27 0 0117.1-4.4 33.27 33.27 0 0117.1 4.4 30.54 30.54 0 0111.69 12.11 36 36 0 014.18 17.34 36 36 0 01-4.18 17.3zm-44.94-6.12a18.32 18.32 0 006.46 7.74 18 18 0 0019.29 0 18.39 18.39 0 006.46-7.74 26.48 26.48 0 002.28-11.21 26.45 26.45 0 00-2.28-11.21 18.36 18.36 0 00-6.46-7.75 18 18 0 00-19.29 0 18.29 18.29 0 00-6.46 7.75 26.45 26.45 0 00-2.28 11.21 26.48 26.48 0 002.28 11.21zM130.45 22l14.84-.1 12.35 49L170.75 22h12.92l12.73 48.91L209 22h14.55L205 89h-16.54l-11.59-44.51L165.58 89H149zM239.08 67.19a10.74 10.74 0 004 7.83q3.6 2.94 9.6 3a14.22 14.22 0 008.11-2.11 6.67 6.67 0 003.13-5.91 5.29 5.29 0 00-1.73-4.17 12.38 12.38 0 00-4.88-2.44c-2.09-.59-5.32-1.33-9.7-2.2a51 51 0 01-10.87-3.14 17.26 17.26 0 01-7.18-5.72q-2.76-3.8-2.76-10.08A17.46 17.46 0 01229.94 32a21.17 21.17 0 018.72-7 29.7 29.7 0 0112.61-2.57 30.52 30.52 0 0113 2.67 22.38 22.38 0 019.1 7.36 18.47 18.47 0 013.4 10.54H263a10 10 0 00-3.57-6.8 12.3 12.3 0 00-8.15-2.57 12.84 12.84 0 00-7.5 2 6.45 6.45 0 00-2.78 5.59 5.11 5.11 0 001.68 4.08 12.62 12.62 0 004.78 2.34c2.07.6 5.25 1.3 9.57 2.11a57.55 57.55 0 0111.06 3 16.67 16.67 0 017.26 5.53q2.78 3.7 2.77 9.89A18.35 18.35 0 01274.8 79a22.27 22.27 0 01-9.14 7.46 31 31 0 01-13.17 2.71 32.94 32.94 0 01-14-2.85 23.24 23.24 0 01-9.61-7.93A20.13 20.13 0 01225.3 67zM280 22h53v13h-20v54h-14V35h-19zM341 22h14v27h26V22h14v66h-14V61h-26v28h-14zM407 22h44v12h-30v15h25v12h-25v15h32v13h-46zM460.59 37.69a28.13 28.13 0 0111.31-11.83 34.51 34.51 0 0117.34-4.18 31.15 31.15 0 0114 3 25.75 25.75 0 0110 8.55 27.08 27.08 0 014.5 12.77h-14.25a15.58 15.58 0 00-5.18-9 14.89 14.89 0 00-9.83-3.27 15.16 15.16 0 00-12.64 6q-4.65 6-4.65 15.77t4.65 15.72a15.09 15.09 0 0012.64 6 14.89 14.89 0 009.83-3.22 15.58 15.58 0 005.18-9h14.25a27.08 27.08 0 01-4.56 12.73 25.75 25.75 0 01-10 8.55 31.15 31.15 0 01-14 3 34.51 34.51 0 01-17.34-4.18 28.13 28.13 0 01-11.31-11.83 38.29 38.29 0 01-3.94-17.81 38.32 38.32 0 014-17.77zM518.06 89l24.5-67h17.23l24.31 67h-15l-5.29-15h-26.05l-5.3 15zM542 63h17.58l-8.88-25.27z"/></svg>
